<?xml version="1.0" encoding="UTF-8" standalone="no"?>
<!-- Created with Inkscape (http://www.inkscape.org/) -->

<svg
   xmlns:dc="http://purl.org/dc/elements/1.1/"
   xmlns:cc="http://creativecommons.org/ns#"
   xmlns:rdf="http://www.w3.org/1999/02/22-rdf-syntax-ns#"
   xmlns:svg="http://www.w3.org/2000/svg"
   xmlns="http://www.w3.org/2000/svg"
   xmlns:sodipodi="http://sodipodi.sourceforge.net/DTD/sodipodi-0.dtd"
   xmlns:inkscape="http://www.inkscape.org/namespaces/inkscape"
   id="svg2"
   version="1.1"
   inkscape:version="0.91 r13725"
   width="2245.4993"
   height="935.61487"
   viewBox="0 0 2245.4993 935.61487"
   sodipodi:docname="click_to_change.svg">
  <metadata
     id="metadata8">
    <rdf:RDF>
      <cc:Work
         rdf:about="">
        <dc:format>image/svg+xml</dc:format>
        <dc:type
           rdf:resource="http://purl.org/dc/dcmitype/StillImage" />
        <dc:title />
      </cc:Work>
    </rdf:RDF>
  </metadata>
  <defs
     id="defs6" />
  <sodipodi:namedview
     pagecolor="#ffffff"
     bordercolor="#666666"
     borderopacity="1"
     objecttolerance="10"
     gridtolerance="10"
     guidetolerance="10"
     inkscape:pageopacity="0"
     inkscape:pageshadow="2"
     inkscape:window-width="3062"
     inkscape:window-height="1752"
     id="namedview4"
     showgrid="false"
     inkscape:zoom="2.0538732"
     inkscape:cx="1541.6965"
     inkscape:cy="336.92089"
     inkscape:window-x="138"
     inkscape:window-y="48"
     inkscape:window-maximized="1"
     inkscape:current-layer="svg2"
     fit-margin-top="0"
     fit-margin-left="0"
     fit-margin-right="0"
     fit-margin-bottom="0" />
  <path
     style="fill:#ffffff;fill-opacity:1;opacity:0.8"
     d="M 139.60156 0 C 138.89176 -0.010000001 138.21161 0.03495313 137.57812 0.12695312 C 132.2502 0.90385313 116.03078 8.1744631 112.95703 11.164062 C 109.42386 14.600563 103.39488 18.322675 102.61914 17.546875 C 102.18111 17.108875 101.82226 17.282741 101.82227 17.931641 C 101.82227 19.221141 94.892068 27.167969 93.767578 27.167969 C 92.615788 27.167969 88.072256 32.082625 88.072266 33.328125 C 88.072266 33.965825 86.666006 35.593412 84.947266 36.945312 C 83.228506 38.297312 81.822266 40.33265 81.822266 41.46875 C 81.822266 42.60495 80.252461 44.436864 78.332031 45.539062 C 76.411621 46.641264 72.119552 51.114569 68.794922 55.480469 C 65.470292 59.846269 62.260809 63.417969 61.662109 63.417969 C 61.063409 63.417969 60.551991 64.121069 60.525391 64.980469 C 60.498791 65.839869 57.214382 69.355469 53.226562 72.792969 C 49.238723 76.230469 44.753569 80.871069 43.261719 83.105469 C 41.769849 85.339869 39.750084 87.167969 38.771484 87.167969 C 37.792884 87.167969 36.630976 88.300547 36.191406 89.685547 C 35.751826 91.070547 34.910812 91.906016 34.320312 91.541016 C 33.729813 91.176216 32.839267 91.531044 32.341797 92.339844 C 31.776897 93.253844 31.979559 93.468909 32.880859 92.912109 C 36.515719 90.665509 33.793746 94.876469 29.322266 98.417969 C 26.572266 100.59597 24.322266 103.03946 24.322266 103.84766 C 24.322266 104.65576 23.197266 106.01825 21.822266 106.87695 C 20.447266 107.73565 19.322266 109.28988 19.322266 110.33008 C 19.322266 111.37018 17.916006 112.86143 16.197266 113.64453 C 14.478506 114.42753 13.070406 115.68264 13.066406 116.43164 C 13.063406 117.18064 10.773616 119.73462 7.9785156 122.10742 C 0.95809566 128.06682 -1.2665475 133.69187 0.6640625 140.60547 C 2.0246025 145.47757 2.4881925 145.91797 6.2578125 145.91797 C 8.5184925 145.91797 11.191939 146.23459 12.199219 146.62109 C 13.319509 147.05099 16.409477 144.98809 20.154297 141.30859 C 29.830347 131.80149 36.510897 125.91925 37.648438 125.90625 C 38.225248 125.89625 40.770494 123.93165 43.302734 121.53125 C 45.834964 119.13105 48.407934 117.16797 49.021484 117.16797 C 49.635034 117.16797 51.457566 115.76167 53.072266 114.04297 C 54.686946 112.32417 56.754626 110.91797 57.666016 110.91797 C 58.577426 110.91797 59.322256 110.48523 59.322266 109.95703 C 59.322266 109.42873 60.686342 108.16313 62.351562 107.14453 C 64.016792 106.12593 68.094914 102.74686 71.414062 99.634766 C 74.733212 96.522766 80.247972 91.741566 83.669922 89.009766 C 87.091862 86.278166 91.22021 82.496069 92.84375 80.605469 C 94.46728 78.714869 96.54851 77.167969 97.46875 77.167969 C 98.38898 77.167969 100.24764 75.761669 101.59961 74.042969 C 105.64275 68.902969 107.33316 70.082169 109.21484 79.355469 C 110.15651 83.996069 111.05686 88.917969 111.21484 90.292969 C 111.3728 91.667969 111.84928 93.636669 112.27344 94.667969 C 112.69759 95.699169 113.22391 97.793166 113.44336 99.322266 C 113.66281 100.85156 114.23098 102.49275 114.70703 102.96875 C 115.18308 103.44475 115.57226 105.05337 115.57227 106.54297 C 115.57227 108.03257 115.99414 109.6723 116.50977 110.1875 C 117.02539 110.7029 117.53996 114.03158 117.65234 117.58398 C 117.7647 121.13638 118.49795 129.38667 119.28125 135.91797 C 120.06455 142.44917 121.02261 151.30857 121.41016 155.60547 C 121.79772 159.90237 122.62167 163.41797 123.24219 163.41797 C 123.86269 163.41797 124.04731 164.7057 123.65234 166.2793 C 123.25736 167.8531 123.59194 170.8062 124.39648 172.8418 C 125.9501 176.7732 133.72903 205.64167 135.49805 214.04297 C 136.0771 216.79297 137.74546 223.26167 139.20508 228.41797 C 140.66469 233.57417 142.20402 239.35096 142.62695 241.25586 C 143.04987 243.16086 143.88568 245.02258 144.48438 245.39258 C 145.08308 245.76258 145.57227 247.40537 145.57227 249.04297 C 145.57227 250.68057 146.13477 252.36807 146.82227 252.79297 C 147.50977 253.21787 148.07227 254.43153 148.07227 255.49023 C 148.07227 257.29293 150.58148 263.79099 153.17773 268.71289 C 153.80743 269.90679 154.32226 271.91082 154.32227 273.16602 C 154.32227 274.42132 155.3904 277.66389 156.69531 280.37109 C 158.00022 283.07839 159.73434 287.82417 160.54883 290.91797 C 162.49711 298.31817 171.97666 320.18817 177.3457 329.66797 C 178.31914 331.38667 180.34575 335.60547 181.84766 339.04297 C 183.34957 342.48047 185.4188 346.24254 186.44727 347.40234 C 187.47577 348.56214 187.98751 350.04427 187.58398 350.69727 C 187.18046 351.35017 187.77865 352.65059 188.91406 353.58789 C 190.04946 354.52509 192.02854 357.65928 193.31055 360.55078 C 194.59256 363.44228 196.32928 366.53608 197.16992 367.42578 C 198.01056 368.31558 199.67938 371.01167 200.87891 373.41797 C 203.52842 378.73297 206.61035 384.04683 209.94727 389.05273 C 214.08421 395.25873 215.52342 397.66645 216.69531 400.34375 C 217.30955 401.74695 218.7155 403.64525 219.81836 404.56055 C 220.92124 405.47585 221.82226 406.78937 221.82227 407.48047 C 221.82226 408.17157 224.52716 412.46274 227.83203 417.01562 C 231.13691 421.56853 234.80608 426.69917 235.98633 428.41797 C 239.16343 433.04457 246.47412 443.42757 250.06836 448.41797 C 251.80141 450.82417 254.17115 454.12475 255.33398 455.75195 C 256.49679 457.37925 259.13476 460.83901 261.19727 463.44141 C 269.81998 474.32141 276.55895 483.16248 280.62305 488.92578 C 283.00147 492.29848 287.90039 498.02685 291.50977 501.65625 C 295.11914 505.28545 298.07227 508.74942 298.07227 509.35352 C 298.07227 509.95782 306.79101 518.8266 317.44727 529.0625 C 328.10351 539.2984 336.82227 548.35661 336.82227 549.19141 C 336.82227 550.02631 337.39024 550.89966 338.08398 551.13086 C 338.77771 551.36216 347.35584 559.48755 357.14648 569.18945 C 366.93711 578.89125 376.93511 588.17561 379.36328 589.82031 C 381.79146 591.46521 385.44771 594.39212 387.48828 596.32422 C 389.52886 598.25652 393.25197 600.90734 395.76172 602.21484 C 398.27147 603.52234 404.01711 607.42246 408.5293 610.88086 C 413.0415 614.33926 417.63428 617.16797 418.73633 617.16797 C 419.83838 617.16797 422.53025 618.51882 424.71875 620.16992 C 426.90725 621.82102 430.666 624.05762 433.07227 625.14062 C 435.47851 626.22372 441.1035 629.34201 445.57227 632.07031 C 450.04101 634.79871 457.26776 639.17131 461.63086 641.78711 C 465.99397 644.40251 471.05647 647.50685 472.88086 648.68555 C 476.35935 650.93305 486.91073 656.18723 497.39062 660.89062 C 500.7962 662.41913 511.20244 666.20062 520.51562 669.29492 C 529.8288 672.38912 538.41653 675.43901 539.59961 676.07031 C 546.05138 679.51231 584.27696 687.80765 599.32227 689.03125 C 604.47851 689.45065 611.2285 690.06488 614.32227 690.39648 C 617.41601 690.72818 625.80098 691.53781 632.95508 692.19531 C 640.10917 692.85281 646.21726 693.64498 646.52734 693.95508 C 646.8374 694.26508 656.45249 694.47583 667.89453 694.42383 C 698.45243 694.28373 720.98757 690.88575 743.69727 682.99805 C 762.08907 676.61005 764.45718 675.6038 769.92578 671.8418 C 772.66358 669.9586 775.89788 668.41797 777.11328 668.41797 C 778.32868 668.41797 779.32227 667.85547 779.32227 667.16797 C 779.32227 666.48047 780.25428 665.91797 781.39258 665.91797 C 782.53078 665.91797 785.30519 664.51167 787.55859 662.79297 C 789.81199 661.07417 791.96982 659.66797 792.35352 659.66797 C 793.39652 659.66797 804.80739 650.83153 805.86719 649.20312 C 807.79549 646.24023 806.73159 642.27255 803.36719 639.87695 L 799.91016 637.41602 L 790.13672 642.72852 C 784.76132 645.65062 779.27832 648.97067 777.95312 650.10547 C 776.62784 651.24017 774.93049 652.16797 774.17969 652.16797 C 773.42889 652.16797 765.98156 654.90109 757.63086 658.24219 C 738.18136 666.02399 729.82277 668.32791 707.44727 672.07031 C 699.37607 673.42011 670.30667 675.48345 666.19727 674.99805 C 661.17927 674.40545 644.64043 673.37042 632.44727 672.88672 C 616.37022 672.24912 591.91718 669.74064 588.69727 668.39844 C 587.32227 667.82514 584.791 667.07753 583.07227 666.73633 C 581.35351 666.39503 576.291 665.18487 571.82227 664.04688 C 567.35351 662.90877 562.57227 661.74956 561.19727 661.47266 C 559.82227 661.19566 557.57227 660.42471 556.19727 659.75781 C 554.82227 659.09111 547.791 657.09958 540.57227 655.33398 C 533.35351 653.56838 524.63477 650.80491 521.19727 649.19141 C 517.75977 647.57781 512.69727 645.5507 509.94727 644.6875 C 504.64952 643.0245 492.0224 637.01892 483.69727 632.20312 C 473.10995 626.07894 467.62122 623.41797 465.58008 623.41797 C 464.41403 623.41797 462.38975 622.2325 461.08008 620.7832 C 459.77039 619.3339 456.166 616.79718 453.07227 615.14648 C 449.97851 613.49588 446.6035 611.61861 445.57227 610.97461 C 444.54101 610.33071 439.4785 607.45234 434.32227 604.57812 C 429.16601 601.70412 421.76029 596.89177 417.86523 593.88477 C 413.97017 590.87777 410.2757 588.41797 409.6543 588.41797 C 408.42563 588.41797 399.58173 581.96417 389.95508 574.04297 C 383.0318 568.34617 355.57227 541.5343 355.57227 540.4707 C 355.57227 540.085 347.63581 531.73085 337.93555 521.90625 C 328.23527 512.08165 318.60509 502.07417 316.5332 499.66797 C 314.4613 497.26167 307.35089 489.55692 300.73242 482.54492 C 285.06422 465.94532 281.82226 462.27026 281.82227 461.10156 C 281.82227 460.57066 280.13477 458.51897 278.07227 456.54297 C 276.00977 454.56697 274.32227 452.45636 274.32227 451.85156 C 274.32227 451.24686 272.91601 448.9077 271.19727 446.6543 C 269.47851 444.4009 268.07227 442.19485 268.07227 441.75195 C 268.07226 440.29225 263.79469 435.91797 262.36719 435.91797 C 261.59755 435.91797 260.32579 433.77565 259.54102 431.15625 C 258.75626 428.53705 256.64972 425.02135 254.85938 423.34375 C 253.06904 421.66625 250.80478 418.60547 249.82812 416.54297 C 248.02057 412.72567 243.99561 406.80534 238.98242 400.58984 C 235.74997 396.58204 224.08231 378.28347 221.25781 372.79297 C 220.19679 370.73047 218.21502 367.35547 216.85352 365.29297 C 215.49204 363.23047 211.27505 355.25029 207.48242 347.55859 C 203.68977 339.86699 200.02113 333.22396 199.33008 332.79688 C 198.63903 332.36978 198.07227 330.91751 198.07227 329.57031 C 198.07227 328.22321 194.44159 320.00825 190.00195 311.31445 C 185.56232 302.62075 182.24107 295.00277 182.62305 294.38477 C 183.00504 293.76667 182.52141 292.31214 181.54688 291.15234 C 180.57234 289.99254 178.74321 285.66797 177.48242 281.54297 C 176.22163 277.41797 173.86912 271.07537 172.25586 267.44727 C 170.6426 263.81897 169.32226 260.03998 169.32227 259.05078 C 169.32227 258.06168 168.40194 255.12494 167.27539 252.52344 C 163.13791 242.96904 161.65102 237.68537 159.96875 226.54297 C 159.76115 225.16797 158.68724 221.58242 157.58203 218.57422 C 156.4768 215.56582 155.57226 212.04194 155.57227 210.74414 C 155.57226 209.44624 155.051 207.40679 154.41406 206.21289 C 153.12211 203.79149 146.76322 178.29587 146.23438 173.41797 C 146.04805 171.69917 145.75061 170.29297 145.57422 170.29297 C 145.18697 170.29297 144.9686 168.94237 142.63672 152.16797 C 141.63321 144.94917 140.43451 134.54297 139.97266 129.04297 C 139.51082 123.54297 138.5619 117.18893 137.86328 114.92383 C 137.16464 112.65873 136.10581 107.87743 135.51172 104.29883 C 134.91763 100.72023 133.60943 94.417969 132.60352 90.292969 C 127.50629 69.389869 125.47161 58.3314 125.44531 51.375 C 125.42081 44.8856 124.94769 43.26615 122.36914 40.84375 C 119.40867 38.06235 119.32226 38.054844 119.32227 40.527344 C 119.32226 42.571044 118.70498 42.953403 116.17969 42.470703 C 114.45078 42.140203 112.74954 41.404038 112.39844 40.835938 C 111.24099 38.963237 122.24425 28.402522 128.65625 25.232422 C 132.1165 23.521622 135.94388 21.428731 137.16016 20.582031 C 139.05901 19.260131 139.99709 19.705469 143.80078 23.730469 C 146.23718 26.308569 148.68915 28.417969 149.25 28.417969 C 149.81086 28.417969 153.09954 31.089869 156.55859 34.355469 C 165.16914 42.484469 167.88359 44.667969 169.37891 44.667969 C 170.08172 44.667969 172.3061 46.355469 174.32227 48.417969 C 176.33843 50.480469 178.42995 52.19175 178.96875 52.21875 C 179.50754 52.24675 181.8951 53.93425 184.27539 55.96875 C 186.65566 58.00345 189.24175 59.667969 190.02148 59.667969 C 191.96148 59.667969 199.10532 63.304894 199.99609 64.746094 C 200.39408 65.390094 204.20268 65.878125 208.45898 65.828125 C 215.69132 65.744125 216.43038 65.458709 219.74023 61.474609 C 222.58424 58.051509 223.11837 56.468353 222.45312 53.439453 C 221.9975 51.364953 220.85162 49.667969 219.90625 49.667969 C 218.96087 49.667969 216.78125 48.261669 215.0625 46.542969 C 213.34375 44.824169 210.81667 43.417969 209.44727 43.417969 C 205.82414 43.417969 184.42706 30.878469 179.05273 25.605469 C 177.82647 24.402369 176.40039 23.415344 175.88477 23.402344 C 175.36914 23.392344 172.59455 21.200597 169.71875 18.529297 C 166.84297 15.857997 162.34297 12.101187 159.71875 10.179688 C 157.09455 8.2581871 154.38476 6.068 153.69727 5.3125 C 151.02992 2.3812 144.57019 0.043699999 139.60156 0 z M 1480.3203 318.04688 C 1480.0522 318.05888 1479.7821 318.08305 1479.5117 318.12305 C 1477.3455 318.44105 1475.5723 319.45405 1475.5723 320.37305 C 1475.5723 321.29225 1474.8691 322.49317 1474.0098 323.04297 C 1473.1504 323.59267 1469.8467 327.13667 1466.668 330.91797 C 1463.4892 334.69917 1455.333 343.74264 1448.543 351.01562 C 1441.753 358.28863 1433.7873 367.00743 1430.8418 370.39062 L 1425.4863 376.54297 L 1423.0391 373.41797 C 1421.6927 371.69917 1419.642 367.34459 1418.4824 363.74219 C 1414.3092 350.77719 1406.3858 345.10447 1400.5723 350.91797 C 1397.4362 354.05437 1397.4139 357.48764 1400.4844 363.96094 C 1403.13 369.53824 1406.1749 379.65224 1405.7363 381.40234 C 1405.5834 382.01214 1406.5589 383.69964 1407.9043 385.15234 C 1409.2498 386.60504 1412.4108 392.01167 1414.9277 397.16797 C 1422.7327 413.15757 1423.9131 415.11333 1426.3418 416.08203 C 1430.2171 417.62783 1432.1097 416.76654 1434.584 412.33594 C 1436.3707 409.13674 1436.7353 406.8196 1436.1113 402.6582 C 1435.4089 397.9745 1435.7162 396.73912 1438.2441 394.07422 C 1441.9486 390.16912 1443.5459 390.16592 1451.5859 394.04492 C 1455.1502 395.76432 1458.4883 397.08286 1459.0059 396.97656 C 1459.5236 396.86966 1462.1766 397.76906 1464.9004 398.97656 C 1471.1578 401.75076 1501.4298 409.64438 1502.3359 408.73828 C 1502.7082 408.36608 1503.7522 408.67528 1504.6562 409.42578 C 1506.7052 411.12598 1517.6744 413.80048 1521.6973 413.58008 C 1528.187 413.22458 1529.8136 407.89186 1526.127 399.06836 C 1524.573 395.34926 1523.6667 394.54798 1521.6172 395.08398 C 1519.9453 395.52118 1518.1197 394.77099 1516.375 392.92969 C 1513.9007 390.31869 1506.8834 387.78112 1499.3223 386.76172 C 1497.6035 386.52992 1494.791 385.74553 1493.0723 385.01953 C 1491.3535 384.29353 1486.8535 383.01333 1483.0723 382.17383 C 1474.7764 380.33213 1457.8626 374.77244 1456.3848 373.40234 C 1455.2793 372.37744 1456.1834 371.34725 1466.0098 362.40625 C 1473.6405 355.46285 1485.5723 339.91211 1485.5723 336.91211 C 1485.5723 335.63421 1486.2944 334.31291 1487.1758 333.97461 C 1488.0571 333.63661 1488.6654 331.82567 1488.5273 329.95117 C 1488.3893 328.07647 1488.2298 325.55857 1488.1738 324.35547 C 1488.0052 320.72177 1484.3418 317.86668 1480.3203 318.04688 z M 2206.3535 340.98242 C 2203.9672 340.99242 2201.4304 341.58351 2199.7539 342.75781 C 2195.2495 345.91271 2195.3632 350.4505 2200.1016 356.6582 C 2202.4236 359.7 2204.3223 362.68226 2204.3223 363.28516 C 2204.3223 363.88816 2205.1625 365.99369 2206.1895 367.96289 C 2207.2166 369.93219 2208.0645 372.49365 2208.0645 373.65625 C 2208.0645 374.81875 2208.5596 376.07195 2209.1543 376.43945 C 2210.1675 377.06575 2213.5344 390.53662 2213.7109 394.66992 C 2213.7549 395.70202 2214.245 397.28244 2214.8008 398.18164 C 2215.3565 399.08084 2215.4179 403.72957 2214.9375 408.51367 C 2214.2354 415.50497 2214.4637 417.82065 2216.0977 420.31445 C 2218.4823 423.95395 2218.2287 423.90842 2223.5957 421.66602 C 2228.3294 419.68802 2228.7475 418.15147 2230.082 397.79297 C 2230.7102 388.20887 2230.3525 384.78447 2227.668 374.66797 C 2222.6505 355.76027 2221.0735 352.53454 2212.0469 342.71484 C 2210.9761 341.55044 2208.7398 340.97412 2206.3535 340.98242 z M 1324.3672 357.83398 C 1317.8509 357.87098 1316.5311 358.35651 1311.3125 362.63281 C 1300.8883 371.17481 1286.4989 396.91638 1285.0176 409.67578 C 1284.1816 416.87678 1286.202 429.66797 1288.1758 429.66797 C 1288.8063 429.66797 1289.3223 430.44418 1289.3223 431.39258 C 1289.3223 433.34888 1298.0556 440.83409 1303.6973 443.71289 C 1306.9374 445.36629 1315.0454 447.42291 1323.6973 448.78711 C 1333.9198 450.39881 1364.558 447.34823 1367.4785 444.42773 C 1367.9378 443.96833 1371.3535 442.10656 1375.0684 440.28906 C 1378.7833 438.47146 1381.8223 436.25002 1381.8223 435.35352 C 1381.8223 434.45702 1382.594 433.08348 1383.5371 432.30078 C 1384.4801 431.51808 1385.5894 428.79721 1386.002 426.25391 C 1386.598 422.58141 1386.2011 421.04174 1384.0703 418.77344 C 1380.7461 415.23494 1378.4892 415.13442 1377.4277 418.47852 C 1376.4264 421.63372 1366.4544 426.19609 1356.1484 428.21289 C 1345.5362 430.28949 1327.4423 430.41003 1319.4004 428.45703 C 1306.0347 425.21093 1300.7982 419.93788 1302.3945 411.33008 C 1303.4977 405.38098 1308.9573 395.13679 1312.5156 392.33789 C 1313.984 391.18279 1316.1687 388.16456 1317.3711 385.63086 C 1319.9818 380.12916 1325.1314 374.71896 1327.9316 374.53516 C 1329.0408 374.46216 1331.4554 374.50109 1333.2969 374.62109 C 1339.9503 375.05279 1340.8419 366.45331 1334.7383 360.72461 C 1332.1889 358.33201 1330.2849 357.79998 1324.3672 357.83398 z M 1206.8574 386.39844 C 1204.8257 386.35544 1203.6738 387.0729 1201.8047 389.0625 C 1198.4777 392.604 1198.7152 394.45487 1204.3027 408.41797 C 1205.8157 412.19917 1207.9377 418.61659 1209.0176 422.67969 C 1211.7944 433.12789 1223.2369 454.93039 1226.9453 456.83789 C 1231.3175 459.08679 1235.2273 458.76297 1238.0723 455.91797 C 1241.0113 452.97897 1241.2494 449.45813 1238.8184 444.86133 C 1235.3463 438.29613 1229.6694 425.19417 1228.1738 420.29297 C 1226.3333 414.26187 1225.4894 412.07497 1222.0059 404.32227 C 1220.5303 401.03827 1219.3223 397.21668 1219.3223 395.83008 C 1219.3223 392.10758 1214.3252 387.57048 1209.2402 386.67578 C 1208.3083 386.51178 1207.5347 386.41254 1206.8574 386.39844 z M 2057.2734 405.91797 C 2053.3904 405.91797 2051.6807 407.08671 2043.8848 415.07031 C 2038.9693 420.10431 2033.4261 427.27621 2031.5664 431.00781 C 2025.9084 442.36081 2023.8485 463.0176 2027.3105 473.6875 C 2028.2664 476.6333 2029.3747 480.44917 2029.7734 482.16797 C 2030.715 486.22637 2039.977 496.21458 2045.5723 499.20508 C 2047.9785 500.49118 2050.2338 501.92036 2050.584 502.38086 C 2051.8494 504.04436 2064.4992 508.41797 2068.0449 508.41797 C 2070.0414 508.41797 2072.0224 508.98047 2072.4473 509.66797 C 2074.6059 513.16067 2099.9008 509.64101 2106.1777 504.97461 C 2112.9909 499.90921 2114.9625 490.90092 2111.0566 482.66992 C 2109.3696 479.11522 2108.37 478.41797 2104.959 478.41797 C 2100.4261 478.41797 2098.5911 480.09818 2098.3652 484.45508 C 2098.1235 489.11958 2095.9376 490.62971 2088.1211 491.53711 C 2080.8625 492.37931 2069.958 490.93175 2062.4473 488.12695 C 2057.742 486.36985 2049.3846 480.66019 2049.3496 479.17969 C 2049.3106 477.57869 2053.3437 474.75303 2055.7344 474.70703 C 2056.8547 474.68503 2061.636 472.70971 2066.3594 470.31641 C 2071.0827 467.92301 2075.5267 465.95341 2076.2344 465.94141 C 2078.1517 465.90641 2086.593 457.36113 2087.4844 454.55273 C 2087.9101 453.21123 2087.5144 450.39477 2086.6035 448.29297 L 2084.9473 444.4707 L 2076.8223 445.31641 C 2072.3535 445.78201 2068.1348 446.58471 2067.4473 447.09961 C 2065.532 448.53431 2054.1958 451.95867 2048.1719 452.92188 C 2042.9126 453.76288 2042.8119 453.71341 2043.7793 450.78711 C 2044.3238 449.13961 2044.8084 446.43298 2044.8574 444.77148 C 2044.9064 443.10988 2045.6504 441.51667 2046.5098 441.23047 C 2047.3691 440.94407 2048.0723 439.9275 2048.0723 438.9707 C 2048.0723 438.0138 2051.4991 433.98202 2055.6855 430.01172 C 2066.9946 419.28622 2069.1598 413.8991 2064.2734 408.6543 C 2062.5732 406.8292 2060.243 405.91797 2057.2734 405.91797 z M 1084.0098 412.27344 C 1082.1216 412.30644 1080.2838 413.17962 1078.4668 414.88672 C 1074.7102 418.41582 1074.7954 422.61524 1078.8242 432.39844 C 1080.6123 436.74054 1082.9381 442.54297 1083.9922 445.29297 C 1085.0462 448.04297 1087.2386 453.26057 1088.8652 456.88867 C 1090.4917 460.51697 1091.8223 463.78298 1091.8223 464.14648 C 1091.8223 464.50998 1093.5054 468.19764 1095.5605 472.33984 C 1099.603 480.48754 1102.2246 483.19279 1109.9473 487.18359 C 1113.2779 488.90469 1116.1993 489.52883 1118.6973 489.05273 C 1120.7598 488.65953 1127.1964 487.50693 1133 486.49023 C 1138.8036 485.47363 1144.7222 483.8745 1146.1523 482.9375 C 1147.5825 482.0003 1151.2099 480.8199 1154.2129 480.3125 C 1160.6578 479.2236 1171.5626 474.01734 1174.5781 470.58984 C 1175.7493 469.25854 1177.0939 465.59171 1177.5664 462.44141 C 1178.3604 457.14621 1178.1531 456.49537 1174.8125 453.82227 C 1170.6168 450.46497 1167.7589 450.16107 1165.127 452.79297 C 1164.0957 453.82417 1162.0862 454.66797 1160.6621 454.66797 C 1159.238 454.66797 1158.0723 455.14466 1158.0723 455.72656 C 1158.0723 456.80196 1137.814 464.62105 1128.6973 467.06445 C 1115.3945 470.62965 1109.6808 467.43525 1107.3359 455.12695 C 1107.0567 453.66115 1105.9872 450.84865 1104.959 448.87695 C 1103.9307 446.90535 1103.0801 444.61712 1103.0801 443.79102 C 1103.0801 442.96502 1101.0614 437.71169 1098.6016 432.11719 C 1096.1419 426.52279 1094.4638 421.61047 1094.873 421.20117 C 1095.2824 420.79177 1093.8091 418.5921 1091.5996 416.3125 C 1088.9471 413.5759 1086.4374 412.23104 1084.0098 412.27344 z M 997.28516 429.90234 L 997.28516 429.90625 C 996.11946 429.94225 994.61704 430.09852 992.58984 430.32812 C 984.77424 431.21312 973.29123 435.76797 970.54883 439.07227 C 969.70673 440.08697 968.30459 440.91797 967.43359 440.91797 C 966.56259 440.91797 964.24014 442.97448 962.27344 445.48828 C 960.30664 448.00198 957.50934 451.51758 956.05664 453.30078 C 947.88424 463.33038 941.73646 483.35626 944.31836 491.53516 C 950.02856 509.62376 950.69937 511.03812 955.73047 515.60742 C 958.56767 518.18412 962.08277 520.67222 963.54297 521.13672 C 967.27547 522.32392 994.37962 522.08183 997.66992 520.83203 C 999.16692 520.26313 1003.3856 519.47302 1007.0449 519.07422 C 1015.3714 518.16672 1032.5077 514.11177 1042.7129 510.63477 C 1049.1139 508.45377 1050.746 507.31293 1052.0039 504.14062 C 1052.8432 502.02414 1054.1969 498.60547 1055.0117 496.54297 C 1056.5239 492.71617 1055.5529 488.8639 1052.5742 486.875 C 1050.0806 485.21 1043.462 485.87967 1040.4199 488.10547 C 1035.0694 492.01997 1032.4544 493.10148 1023.0059 495.30078 C 1017.887 496.49228 1009.3696 498.52857 1004.0801 499.82617 C 998.79072 501.12377 989.50948 502.52159 983.45508 502.93359 C 973.25378 503.62769 972.12667 503.46477 968.07227 500.70117 C 964.29097 498.12377 963.54375 496.75478 962.56445 490.61328 C 961.60215 484.57798 961.88455 481.99515 964.43945 473.46875 C 966.09385 467.94755 968.10415 463.42383 968.90625 463.42383 C 969.70835 463.42383 970.55205 462.93239 970.78125 462.33789 C 971.64535 460.09649 990.50672 448.41739 993.29102 448.40039 C 998.21632 448.36939 1002.0268 445.5073 1003.6934 440.5918 C 1005.1274 436.3625 1005.033 435.57033 1002.7578 432.67773 C 1001.2668 430.78233 1000.4839 430.01831 998.3457 429.91211 C 998.025 429.89611 997.67366 429.89434 997.28516 429.90234 z M 1911.2148 442.39648 C 1910.8131 442.38548 1910.3732 442.39616 1909.8848 442.41016 C 1906.1669 442.54986 1904 444.08898 1895.5391 452.58398 C 1890.0579 458.08738 1885.5723 463.21181 1885.5723 463.97461 C 1885.5723 464.73761 1884.5181 466.26484 1883.2285 467.36914 C 1879.8943 470.22414 1875.4266 485.02376 1874.9043 494.94336 C 1874.2693 507.00636 1876.9685 513.86687 1886.5586 524.57227 C 1892.5922 531.30757 1895.6085 533.66681 1899.5371 534.72461 C 1902.3518 535.48281 1905.5636 536.61483 1906.6758 537.24023 C 1907.7879 537.86563 1910.666 538.89856 1913.0723 539.53516 C 1919.9724 541.36066 1933.9247 541.11789 1938.7832 539.08789 C 1941.6631 537.88459 1943.7521 535.85109 1944.8828 533.15039 C 1945.8287 530.89129 1947.0514 528.59763 1947.5996 528.05273 C 1949.0696 526.59173 1948.1094 516.84137 1946.2812 514.66797 C 1941.36 508.81747 1944.8228 504.99657 1955.4902 504.50977 C 1959.0458 504.34757 1962.1991 503.81954 1962.498 503.33594 C 1962.797 502.85214 1965.6632 502.06448 1968.8672 501.58398 C 1973.5592 500.88028 1976.0077 499.46461 1981.4512 494.31641 C 1987.6682 488.43691 1988.1592 487.56938 1987.5645 483.48438 C 1987.2088 481.04176 1986.8971 478.62107 1986.8711 478.10547 C 1986.7931 476.55117 1978.7217 477.04955 1973.3652 478.93945 C 1970.6035 479.91385 1962.2343 481.32176 1954.7656 482.06836 C 1947.2967 482.81516 1936.9692 484.30491 1931.8164 485.37891 C 1926.6635 486.45281 1920.498 487.72267 1918.1152 488.20117 C 1914.6173 488.90367 1913.5608 489.84947 1912.627 493.10547 C 1911.651 496.50847 1911.9775 497.90453 1914.7227 502.05273 C 1916.5119 504.75643 1920.2488 509.28654 1923.0254 512.11914 C 1925.8019 514.95184 1928.0723 518.33858 1928.0723 519.64258 C 1928.0723 521.65918 1927.3716 521.91968 1923.3848 521.39258 C 1898.9498 518.16258 1888.0642 505.75157 1893.5273 487.35547 C 1895.5306 480.60957 1896.5491 478.98236 1902.2676 473.41016 C 1907.9077 467.91416 1910.1406 466.2233 1912.918 465.3418 C 1916.2806 464.2745 1920.5723 458.78208 1920.5723 455.54688 C 1920.5723 454.15317 1919.1531 450.58961 1917.418 447.62891 C 1914.9549 443.42621 1914.0264 442.47138 1911.2148 442.39648 z M 2234.0859 469.89844 C 2233.3235 469.92744 2232.4385 470.03167 2231.373 470.19727 C 2225.1161 471.16987 2223.0723 473.58139 2223.0723 479.99609 C 2223.0723 484.91999 2224.2346 486.86133 2228.6602 489.32812 C 2232.3526 491.38632 2238.3954 488.50457 2239.9375 483.95117 C 2240.6191 481.93867 2242.166 479.55856 2243.375 478.66016 C 2246.0668 476.66016 2246.227 474.66797 2243.6973 474.66797 C 2242.666 474.66797 2240.6363 473.4801 2239.1855 472.0293 C 2237.556 470.3999 2236.3734 469.81164 2234.0859 469.89844 z M 1790.7109 471.19727 C 1789.1737 471.23427 1787.6742 471.70993 1786.2539 472.64062 C 1782.5988 475.03562 1781.8818 481.27975 1784.8809 484.59375 C 1785.8754 485.69275 1788.5228 490.80066 1790.7637 495.94336 C 1794.485 504.48346 1794.8577 506.508 1795.0723 519.3125 C 1795.3378 535.1403 1794.5486 536.97263 1788.5371 534.48633 C 1786.5628 533.66983 1784.666 532.90797 1784.3223 532.79297 C 1782.2343 532.09307 1775.4798 529.19837 1771.1973 527.16797 C 1768.4473 525.86417 1764.791 524.20427 1763.0723 523.48047 C 1760.1109 522.23347 1750.4948 516.05057 1735.2715 505.60547 C 1731.514 503.02737 1727.7941 500.91797 1727.0059 500.91797 C 1726.2176 500.91797 1725.5723 500.4483 1725.5723 499.875 C 1725.5723 499.3018 1722.4483 496.68128 1718.6289 494.05078 C 1710.0787 488.16198 1704.0201 487.7763 1699.6172 492.8418 C 1698.0606 494.6328 1697.0794 496.57028 1697.4355 497.14648 C 1697.7916 497.72258 1698.1637 500.63564 1698.2637 503.61914 C 1698.3637 506.60254 1698.906 510.30039 1699.4707 511.83789 C 1700.0356 513.37539 1700.8585 517.31289 1701.2988 520.58789 C 1701.7392 523.86289 1703.1564 530.68505 1704.4473 535.74805 C 1705.7383 540.81105 1706.4712 545.47623 1706.0762 546.11523 C 1705.6813 546.75423 1706.0312 548.08733 1706.8535 549.07812 C 1707.82 550.24262 1708.2863 555.24286 1708.1738 563.22266 C 1708.0038 575.33756 1709.2654 581.74945 1712.2129 583.74805 C 1713.6123 584.69705 1722.3925 583.98647 1724.3711 582.76367 C 1724.8729 582.45347 1725.9762 578.52982 1726.8223 574.04492 C 1728.4813 565.25262 1727.8505 555.12337 1724.7207 540.29297 C 1723.7051 535.48047 1722.7364 529.8208 1722.5684 527.7168 C 1722.4004 525.6128 1721.8492 523.2222 1721.3438 522.4043 C 1720.2678 520.6636 1721.7619 517.64066 1722.916 519.22266 C 1724.3021 521.12286 1748.6088 536.91542 1751.3984 537.72852 C 1752.8831 538.16122 1754.7795 539.3371 1755.6133 540.3418 C 1756.4472 541.3464 1758.7001 542.16797 1760.6211 542.16797 C 1762.5421 542.16797 1764.3021 542.60713 1764.5312 543.14453 C 1765.7801 546.07283 1787.8724 554.62365 1799.0312 556.49805 L 1804.3633 557.39453 L 1806.8281 551.82227 C 1808.184 548.75697 1810.2312 545.47178 1811.377 544.52148 C 1815.2111 541.34178 1816.8686 534.93293 1816.9336 523.04883 C 1817.0266 505.81043 1813.8063 495.785 1803.0586 479.875 C 1799.3649 474.4073 1795.2619 471.43028 1791.3711 471.20898 C 1791.15 471.19598 1790.9305 471.19227 1790.7109 471.19727 z M 1613.4668 507.16797 C 1611.2429 507.16916 1606.865 509.44759 1604.4531 511.85938 C 1602.0947 514.21767 1598.1386 539.17697 1597.4004 556.35547 C 1597.0797 563.81437 1596.5363 570.37088 1596.1934 570.92578 C 1595.4624 572.10838 1596.2224 585.59397 1597.4258 592.79297 C 1598.6807 600.29997 1600.6753 605.04903 1603.584 607.45312 C 1606.9343 610.22204 1607.824 610.1902 1612.8516 607.125 C 1616.3176 605.0118 1616.9639 603.92241 1616.7344 600.56641 C 1616.5824 598.35321 1616.5389 593.87875 1616.6387 590.62305 L 1616.8203 584.70312 L 1624.2852 580.93555 C 1628.3906 578.86315 1632.4848 577.16797 1633.3828 577.16797 C 1634.2809 577.16797 1635.9788 576.04297 1637.1562 574.66797 C 1640.3926 570.88837 1645.7077 571.49497 1650.8457 576.23047 C 1653.2701 578.46487 1657.5427 582.40237 1660.3398 584.98047 C 1663.1371 587.55857 1665.9137 589.66797 1666.5117 589.66797 C 1667.1098 589.66797 1668.724 590.71424 1670.0977 591.99414 C 1671.4715 593.27384 1675.0937 595.6953 1678.1465 597.375 C 1685.5778 601.464 1689.7182 600.10925 1692.5645 592.65625 L 1694.584 587.36719 L 1690.3906 583.55469 C 1688.0838 581.45729 1685.6855 579.72508 1685.0605 579.70508 C 1681.5135 579.59068 1656.8644 557.14247 1650.0195 547.79297 C 1648.0062 545.04297 1644.9799 541.38667 1643.2949 539.66797 C 1641.6099 537.94917 1638.1332 533.73047 1635.5684 530.29297 C 1633.0036 526.85547 1629.7049 522.97181 1628.2383 521.66211 C 1626.7716 520.35231 1625.5703 518.87109 1625.5703 518.37109 C 1625.5703 516.68234 1615.2977 507.17297 1613.4688 507.16797 L 1613.4668 507.16797 z M 1620.4902 543.84375 C 1621.4713 543.87675 1622.9954 545.32031 1625.6465 548.19141 C 1630.553 553.50501 1631.4179 555.26942 1629.6348 556.32422 C 1629.1191 556.62922 1626.3651 557.26483 1623.5137 557.73633 C 1617.9708 558.65303 1616.18 557.49155 1617.3184 553.71875 C 1617.6795 552.52175 1618.253 549.92617 1618.5938 547.95117 C 1619.0703 545.18597 1619.5092 543.81055 1620.4902 543.84375 z M 1517.3027 548.76953 C 1511.6962 549.02813 1509.5068 553.28312 1509.1504 563.35352 C 1509.0031 567.51312 1508.0882 570.5019 1506.3145 572.625 C 1503.8949 575.5215 1502.763 575.78739 1491.3281 576.15039 L 1478.959 576.54297 L 1476.9395 572.79297 C 1475.8294 570.73047 1474.9019 568.48047 1474.8789 567.79297 C 1474.7789 564.80597 1471.2999 559.82152 1468.8574 559.16602 C 1458.0516 556.26612 1453.7519 563.87785 1459.2949 576.09375 C 1460.6549 579.09075 1461.7799 583.89363 1461.7949 586.76562 C 1461.8159 590.75392 1462.5249 592.53827 1464.793 594.32227 C 1467.7046 596.61257 1473.0723 605.75292 1473.0723 608.41992 C 1473.0723 609.16352 1474.2358 611.0151 1475.6562 612.5332 C 1477.0765 614.0514 1479.1314 617.16748 1480.2227 619.45898 C 1482.7578 624.78198 1487.6433 626.89671 1490.1543 623.75781 C 1492.2126 621.18501 1491.5592 606.73925 1489.2598 603.96875 C 1488.501 603.05445 1488.0644 601.00863 1488.2891 599.42383 C 1488.6451 596.91313 1489.6618 596.41892 1496.1973 595.57422 C 1509.6865 593.83092 1517.0129 591.97443 1518.7402 589.86523 C 1519.674 588.72503 1521.5303 586.40548 1522.8633 584.70898 C 1524.9345 582.07318 1525.5765 581.86485 1527.2832 583.28125 C 1530.0753 585.59855 1546.8223 609.21739 1546.8223 610.83789 C 1546.8223 611.56899 1547.2867 612.16797 1547.8535 612.16797 C 1548.4202 612.16797 1550.503 615.68357 1552.4824 619.98047 C 1554.4619 624.27737 1556.6712 628.47529 1557.3906 629.30859 C 1558.8334 630.97969 1562.203 631.28461 1566.5 630.13281 C 1572.1815 628.61021 1572.7377 615.65587 1567.4316 608.41797 C 1566.6755 607.38667 1565.3786 605.13667 1564.5508 603.41797 C 1563.7231 601.69917 1562.0688 598.83408 1560.873 597.05078 C 1553.673 586.31408 1551.0354 582.65567 1549.6914 581.54297 C 1548.8611 580.85547 1547.3969 578.75033 1546.4375 576.86523 C 1545.4783 574.98013 1542.9066 571.32383 1540.7246 568.74023 C 1538.5426 566.15663 1534.6305 560.94917 1532.0312 557.16797 C 1527.8427 551.07447 1526.6466 550.16355 1521.4961 549.15625 C 1520.4021 548.94225 1519.3955 548.81208 1518.4707 548.77148 C 1518.0661 548.75348 1517.6765 548.75248 1517.3027 548.77148 L 1517.3027 548.76953 z M 1386.3203 568.55664 C 1385.9317 568.54664 1385.5477 568.55641 1385.168 568.56641 C 1378.4851 568.79021 1373.0174 571.92187 1363.0918 579.66797 C 1355.6684 585.46117 1348.0723 593.34285 1348.0723 595.25195 C 1348.0723 596.09475 1347.2662 598.41776 1346.2793 600.41406 C 1344.1794 604.66176 1341.8101 620.76206 1343.1621 621.59766 C 1343.6716 621.91256 1343.8266 623.16937 1343.5078 624.38867 C 1342.255 629.17937 1351.9129 641.78539 1360.0352 645.96289 C 1363.081 647.52929 1365.5723 649.28583 1365.5723 649.86523 C 1365.5723 650.44463 1366.5848 650.91797 1367.8223 650.91797 C 1369.0598 650.91797 1370.6066 651.42903 1371.2598 652.05273 C 1373.0788 653.78943 1381.619 656.14759 1389.9473 657.21289 C 1398.8031 658.34549 1433.666 657.46459 1441.9141 655.90039 C 1451.2082 654.13779 1458.3694 650.86226 1463.459 646.04688 C 1467.708 642.02666 1468.1341 641.07957 1467.418 637.23047 C 1466.0711 629.98987 1459.4008 627.24729 1454.9902 632.12109 C 1450.5921 636.98079 1437.4476 638.91147 1409.8066 638.75977 C 1391.9071 638.66177 1375.7036 635.76244 1371.1309 631.83984 C 1359.2721 621.66694 1358.18 618.53937 1363.2402 609.23438 C 1363.9314 607.96438 1364.2228 606.65051 1363.8887 606.31641 C 1362.701 605.12871 1375.1909 592.16797 1377.5234 592.16797 C 1378.3275 592.16797 1380.4648 591.00518 1382.2715 589.58398 C 1385.1603 587.31158 1386.0551 587.18025 1389.6992 588.49805 C 1393.2619 589.78625 1394.6672 589.63264 1399.709 587.40234 C 1404.5312 585.26934 1405.5723 584.22908 1405.5723 581.55078 C 1405.5723 575.07268 1402.5075 571.5065 1395.5664 569.9043 C 1392.0033 569.0819 1389.0404 568.59694 1386.3203 568.55664 z M 1154.1406 637.33203 C 1151.6982 637.39503 1150.2912 638.08731 1147.9043 639.78711 C 1145.6279 641.40791 1142.4531 642.56362 1140.8496 642.35352 C 1134.7687 641.55662 1126.183 651.26815 1123.1504 662.37305 C 1121.4808 668.48675 1122.3448 680.91797 1124.4395 680.91797 C 1125.0625 680.91797 1125.5723 681.79157 1125.5723 682.85938 C 1125.5723 689.40116 1144.2736 705.61467 1152.0625 705.82617 C 1153.9125 705.87617 1155.7067 706.37279 1156.0508 706.92969 C 1156.3951 707.48669 1159.3681 708.08175 1162.6562 708.25195 C 1165.9444 708.42225 1168.9109 708.84039 1169.25 709.17969 C 1169.5892 709.51889 1172.136 709.40296 1174.9082 708.92188 C 1177.6803 708.44088 1180.791 708.07056 1181.8223 708.10156 C 1184.8151 708.19056 1195.7572 704.83583 1198.5996 702.95703 C 1201.7704 700.86113 1208.5928 687.37114 1210.4023 679.61914 C 1211.9395 673.03354 1211.2775 669.58336 1207.2402 663.13086 C 1205.6357 660.56636 1204.3223 657.97088 1204.3223 657.36328 C 1204.3223 656.75548 1201.9316 654.6648 1199.0098 652.7168 C 1196.0879 650.769 1192.291 647.91691 1190.5723 646.37891 C 1187.0434 643.22091 1178.0242 639.86718 1170.9414 639.08008 C 1168.3323 638.79018 1163.0136 638.16797 1159.1211 637.69727 C 1157.5661 637.50917 1156.3148 637.3834 1155.2559 637.3418 C 1154.8588 637.3258 1154.4896 637.32303 1154.1406 637.33203 z M 1105.5859 637.62695 C 1103.377 637.60295 1100.5881 637.66798 1097.7539 637.83008 C 1088.4807 638.36028 1084.7435 638.7614 1074.3223 640.3418 C 1072.6035 640.6024 1068.3742 641.08707 1064.9219 641.41797 C 1054.1025 642.45477 1022.7854 648.39448 1014.9473 650.89648 C 1010.8223 652.21318 1004.3535 653.86877 1000.5723 654.57617 C 996.7909 655.28347 987.50977 657.42234 979.94727 659.32812 L 966.19727 662.79297 L 965.80078 667.62305 C 964.98258 677.59085 972.15835 680.3763 990.03125 677.0293 C 994.11075 676.2654 998.8534 675.64648 1000.5723 675.64648 C 1002.291 675.64648 1004.541 674.9501 1005.5723 674.0918 C 1006.6035 673.2335 1010.8223 671.83186 1014.9473 670.97656 C 1019.0723 670.12106 1024.6973 668.8662 1027.4473 668.1875 C 1030.1973 667.5087 1034.1348 666.86055 1036.1973 666.74805 C 1039.4418 666.57055 1040.0393 667.04847 1040.6309 670.29297 C 1041.261 673.74897 1042.6339 677.26373 1047.5742 688.08203 C 1048.5888 690.30393 1049.399 692.41413 1049.375 692.76953 C 1049.351 693.12483 1050.4342 696.31603 1051.7812 699.86133 C 1053.1284 703.40673 1053.9672 706.73386 1053.6445 707.25586 C 1053.322 707.77776 1053.5525 708.39245 1054.1582 708.62305 C 1055.5339 709.14655 1063.0723 724.01683 1063.0723 726.20703 C 1063.0723 727.09303 1065.4012 730.21744 1068.2461 733.14844 C 1073.7124 738.78044 1076.145 739.11554 1080.9395 734.90234 C 1084.2007 732.03644 1082.7609 722.39237 1077.4531 711.54297 C 1075.0987 706.73047 1072.7818 701.14355 1072.3047 699.12695 C 1071.8274 697.11015 1070.6826 694.01645 1069.7617 692.25195 C 1068.8409 690.48725 1068.0801 687.88987 1068.0801 686.48047 C 1068.0801 685.07107 1067.5844 683.38357 1066.9883 682.73047 C 1065.2563 680.83287 1061.8223 669.54645 1061.8223 665.75195 C 1061.8223 662.71435 1062.4073 662.18379 1066.5098 661.49609 C 1069.0879 661.06399 1074.5723 659.8425 1078.6973 658.7832 C 1082.8223 657.7239 1089.1264 656.41771 1092.7051 655.87891 C 1100.1773 654.75421 1107.9869 652.40556 1110.2598 650.60156 C 1112.5378 648.79356 1112.2877 638.86329 1109.9414 637.96289 C 1109.424 637.76439 1107.7949 637.65095 1105.5859 637.62695 z M 1154.9668 650.95117 C 1157.4173 650.97017 1160.2637 652.02277 1164.0586 654.04297 C 1167.2874 655.76167 1170.9566 657.16797 1172.2148 657.16797 C 1175.0149 657.16797 1184.398 662.54767 1187.418 665.88477 C 1190.1925 668.95057 1191.9939 678.21107 1190.7383 682.95117 C 1190.1973 684.99367 1188.3733 687.22917 1186.5098 688.13477 C 1181.0067 690.80917 1156.8223 690.97469 1156.8223 688.33789 C 1156.8223 687.69409 1155.5266 687.16797 1153.9414 687.16797 C 1149.1222 687.16797 1142.6986 681.45518 1140.9824 675.64258 C 1139.9545 672.16158 1139.8506 669.91356 1140.6738 668.92188 C 1141.3539 668.10217 1141.8238 666.94933 1141.7188 666.36133 C 1141.1652 663.27743 1142.2374 660.88298 1146.2949 656.14258 C 1149.318 652.61088 1151.8161 650.92687 1154.9668 650.95117 z M 1572.6973 805.52148 C 1570.042 805.57248 1567.2151 806.45391 1564.6348 808.12891 C 1560.3776 810.89221 1560.6828 819.02228 1565.1777 822.61328 C 1567.0227 824.08718 1569.4133 825.67538 1570.4902 826.14258 C 1573.8102 827.58318 1578.7294 827.25358 1581.2344 825.42188 C 1583.0677 824.08146 1583.5431 822.41007 1583.2793 818.23438 C 1582.7888 810.46636 1582.2427 809.20563 1578.3867 806.92773 C 1576.7244 805.94573 1574.7625 805.48178 1572.6973 805.52148 z M 1487.3789 824.51953 C 1482.844 824.40153 1479.5485 827.13514 1478.6797 832.27734 C 1477.8722 837.05754 1478.1454 837.76157 1482.5703 842.29297 C 1485.1882 844.97397 1487.8852 847.16797 1488.5625 847.16797 C 1489.2398 847.16797 1491.6473 845.90237 1493.9141 844.35547 C 1497.7463 841.74017 1498.0256 841.07963 1497.8887 834.92773 C 1497.757 829.00393 1497.3726 828.12093 1494.2188 826.49023 C 1491.7565 825.21693 1489.4402 824.57313 1487.3789 824.51953 z M 1584.3652 887.8125 C 1580.6499 887.9983 1577.7231 890.43983 1575.4961 895.17773 C 1573.6441 899.11773 1570.7212 901.87955 1562.9824 906.99805 C 1554.2471 912.77555 1551.759 913.80132 1544.541 914.60352 C 1535.3175 915.62852 1524.7178 915.492 1521.8223 914.3125 C 1520.791 913.8925 1517.0662 912.72881 1513.5449 911.72461 C 1510.0237 910.72051 1505.4114 909.0026 1503.2949 907.9082 C 1501.1785 906.8137 1498.5672 905.91797 1497.4922 905.91797 C 1495.4202 905.91797 1488.1714 898.66625 1488.1094 896.53125 C 1488.0414 894.18405 1483.124 892.10872 1479.6211 892.94922 C 1473.5421 894.40782 1469.8283 900.06579 1471.7168 904.99219 C 1474.8349 913.12599 1496.971 928.08927 1509.373 930.44727 C 1511.7513 930.89937 1514.8223 931.84939 1516.1973 932.55859 C 1517.5723 933.26769 1522.0723 934.23799 1526.1973 934.71289 C 1537.5396 936.01859 1539.3768 935.96819 1546.8223 934.15039 C 1556.7215 931.73319 1563.3663 928.80517 1572.248 922.94727 C 1586.7059 913.41137 1591.5 908.79429 1592.25 903.68359 C 1592.6247 901.13109 1593.3084 897.21336 1593.7695 894.97656 C 1594.5539 891.17146 1594.3064 890.78458 1589.9277 888.95508 C 1587.9056 888.11018 1586.054 887.7281 1584.3652 887.8125 z "
     id="path3340" />
</svg>
