<svg width="150" height="170">
  <defs>
    <g id="grouped-triangle">
      <polygon id="background-triangle" fill-opacity="0" stroke="black" stroke-width="1" points="75,0
                     0,130
                     150,130"></polygon>
    <path class="symbol" d="M-18.083141320025124,-18.083141320025124h36.16628264005025v36.16628264005025h-36.16628264005025Z" fill="#B82A39" stroke="black" stroke-width="1" opacity="0.8" transform="translate(38.42533033189521,126.868058942199) rotate(175)"></path><path class="symbol" d="M0,-24.707320466274044L21.397167183236505,12.353660233137022L-21.397167183236505,12.353660233137022Z" fill="#ed6409" stroke="black" stroke-width="1" opacity="0.8" transform="translate(41.27926200302278,63.63614186457297) rotate(278)"></path><path class="symbol" d="M0,-29.087915351523502L16.79391575836714,0L0,29.087915351523502L-16.79391575836714,0Z" fill="#1F6B63" stroke="black" stroke-width="1" opacity="0.8" transform="translate(62.91189902908456,23.082231128355687) rotate(133)"></path><path class="symbol" d="M-17.727097901235837,-17.727097901235837h35.45419580247167v35.45419580247167h-35.45419580247167Z" fill="#1F6B63" stroke="black" stroke-width="1" opacity="0.8" transform="translate(131.23869063855216,115.16259048160421) rotate(2)"></path><path class="symbol" d="M-16.948451256678293,-16.948451256678293h33.896902513356586v33.896902513356586h-33.896902513356586Z" fill="#8A9663" stroke="black" stroke-width="1" opacity="0.8" transform="translate(0.04282145179222656,129.99329293030763) rotate(249)"></path><path class="symbol" d="M-14.756354563373707,-14.756354563373707h29.512709126747414v29.512709126747414h-29.512709126747414Z" fill="#8A9663" stroke="black" stroke-width="1" opacity="0.8" transform="translate(67.98993093474849,56.72733868949831) rotate(126)"></path><path class="symbol" d="M-13.546217184144066,-13.546217184144066h27.09243436828813v27.09243436828813h-27.09243436828813Z" fill="#B82A39" stroke="black" stroke-width="1" opacity="0.8" transform="translate(60.35771114333616,86.9928161675806) rotate(14)"></path><path class="symbol" d="M9.624448541915239,5.556677956476465L9.624448541915239,24.80557504030694L-9.624448541915239,24.80557504030694L-9.624448541915239,5.556677956476464L-26.29448241134463,-4.067770585438774L-16.67003386942939,-20.73780445486817L0,-11.11335591295293L16.67003386942939,-20.73780445486817L26.29448241134463,-4.067770585438774Z" fill="#ed6409" stroke="black" stroke-width="1" opacity="0.8" transform="translate(48.81467447803273,106.58034552298902) rotate(293)"></path></g>
  </defs>

  <use xmlns:xlink="http://www.w3.org/1999/xlink" xlink:href="#grouped-triangle" transform="translate(0)"></use>
  
<circle cx="42.08988572262401" cy="101.55855413099654" r="3" fill="black"></circle><circle cx="63.73483514309767" cy="130.5326143329278" r="3" fill="black"></circle><circle cx="34.76077494116641" cy="152.17756375340144" r="3" fill="black"></circle><circle cx="13.115825520692752" cy="123.2035035514702" r="3" fill="black"></circle></svg>
