<svg width="170" height="190">
  <defs>
    <g id="grouped-triangle">
      <polygon id="background-triangle" fill-opacity="0" stroke="black" stroke-width="1" points="75,0
                     0,130
                     150,130"></polygon>
    <path class="symbol" d="M0,-30.084316528612607L6.754349888811347,-9.296565071496419L28.611885272823013,-9.29656507149642L10.928767692005833,3.550971878686535L17.683117580817186,24.338723335802722L1.7763568394002505e-15,11.491186385619766L-17.68311758081718,24.338723335802726L-10.928767692005831,3.5509718786865365L-28.611885272823017,-9.296565071496413L-6.754349888811348,-9.296565071496417Z" fill="#1F6B63" stroke="black" stroke-width="1" opacity="0.2" transform="translate(114.86341939279947,97.65814270192607) rotate(265)"></path><path class="symbol" d="M0,-33.97663702082148L19.616420530129485,0L0,33.97663702082148L-19.616420530129485,0Z" fill="#ed6409" stroke="black" stroke-width="1" opacity="0.2" transform="translate(62.485580912002746,50.88979318795306) rotate(212)"></path><path class="symbol" d="M0,-32.64065651099906L7.328283973681587,-10.086517569453987L31.043109070937486,-10.086517569453989L11.857412548627948,3.8527068834084437L19.18569652230954,26.406845824953514L2.6645352591003757e-15,12.467621372091083L-19.185696522309534,26.406845824953518L-11.857412548627948,3.8527068834084464L-31.04310907093749,-10.08651756945398L-7.32828397368159,-10.086517569453985Z" fill="#ed6409" stroke="black" stroke-width="1" opacity="0.2" transform="translate(70.90507557195812,79.55926499618438) rotate(262)"></path><path class="symbol" d="M-14.422205101855956,-14.422205101855956h28.844410203711913v28.844410203711913h-28.844410203711913Z" fill="#8A9663" stroke="black" stroke-width="1" opacity="0.2" transform="translate(11.464564603544947,123.66404553471196) rotate(216)"></path><path class="symbol" d="M0,-25.28095623177485L14.595966885786357,0L0,25.28095623177485L-14.595966885786357,0Z" fill="#1F6B63" stroke="black" stroke-width="1" opacity="0.2" transform="translate(25.999372054791365,92.40980971120483) rotate(213)"></path><path class="symbol" d="M0,-25.92365162041653L14.96702724142556,0L0,25.92365162041653L-14.96702724142556,0Z" fill="#73343A" stroke="black" stroke-width="1" opacity="0.2" transform="translate(40.583083992736185,94.56960674875072) rotate(294)"></path><path class="symbol" d="M0,-30.974274803085223L6.954157970424696,-9.571577302593061L29.458285888990986,-9.571577302593063L11.252063959283145,3.6560172036435117L18.206221929707844,25.05871470413567L2.6645352591003757e-15,11.831120197899097L-18.206221929707837,25.058714704135674L-11.252063959283142,3.656017203643514L-29.45828588899099,-9.571577302593056L-6.954157970424697,-9.57157730259306Z" fill="#8A9663" stroke="black" stroke-width="1" opacity="0.2" transform="translate(19.186943026321174,129.09017536920987) rotate(357)"></path><path class="symbol" d="M0,-27.224189467316844L6.112211355264271,-8.412737203484351L25.891742793745568,-8.412737203484353L9.889765719240648,3.2133796733102815L16.001977074504925,22.02483193714277L8.881784197001252e-16,10.398715060348138L-16.001977074504918,22.024831937142775L-9.889765719240646,3.2133796733102824L-25.89174279374557,-8.412737203484348L-6.112211355264273,-8.412737203484351Z" fill="#ed6409" stroke="black" stroke-width="1" opacity="0.2" transform="translate(74.35248298007761,71.49124450533874) rotate(8)"></path><path class="symbol" d="M0,-28.65884977437163L6.434312662642199,-8.856071619519462L27.25618582744003,-8.856071619519463L10.410936582398914,3.3827183518531063L16.84524924504112,23.185496506705274L2.6645352591003757e-15,10.946706535332707L-16.845249245041114,23.185496506705277L-10.410936582398914,3.382718351853109L-27.256185827440035,-8.856071619519456L-6.434312662642203,-8.85607161951946Z" fill="#1F6B63" stroke="black" stroke-width="1" opacity="0.2" transform="translate(32.78105491699952,125.36054296514236) rotate(194)"></path><path class="symbol" d="M0,-30.45510150127781L17.583261049960118,0L0,30.45510150127781L-17.583261049960118,0Z" fill="#73343A" stroke="black" stroke-width="1" opacity="0.2" transform="translate(78.05687221856763,79.16771373926042) rotate(268)"></path><path class="symbol" d="M-18.57417562100671,-18.57417562100671h37.14835124201342v37.14835124201342h-37.14835124201342Z" fill="#73343A" stroke="black" stroke-width="1" opacity="0.2" transform="translate(39.92430687111554,80.42242030036049) rotate(312)"></path><path class="symbol" d="M0,-34.81948617615368L7.817461711609565,-10.75981296383504L33.11529922187998,-10.759812963835042L12.648918755135206,4.109882839593242L20.466380466744777,28.16955605191188L2.6645352591003757e-15,13.299860248483597L-20.46638046674477,28.169556051911883L-12.648918755135202,4.1098828395932445L-33.11529922187998,-10.759812963835035L-7.817461711609567,-10.759812963835039Z" fill="#ed6409" stroke="black" stroke-width="1" opacity="0.2" transform="translate(17.151480516971013,117.61376597419053) rotate(333)"></path><path class="symbol" d="M0,-34.121733699048406L7.660806520135577,-10.544195590542294L32.45169718176792,-10.544195590542296L12.39544533081617,4.027524331560386L20.056251850951753,27.605062440066494L2.6645352591003757e-15,13.033342517963813L-20.056251850951746,27.605062440066497L-12.39544533081617,4.027524331560389L-32.451697181767926,-10.544195590542289L-7.66080652013558,-10.544195590542293Z" fill="#73343A" stroke="black" stroke-width="1" opacity="0.2" transform="translate(32.063112564864966,87.65053120343559) rotate(247)"></path><path class="symbol" d="M0,-34.50775174078432L19.923059756670604,0L0,34.50775174078432L-19.923059756670604,0Z" fill="#ed6409" stroke="black" stroke-width="1" opacity="0.2" transform="translate(85.81512365187064,27.575563051366846) rotate(333)"></path><path class="symbol" d="M0,-25.570623949808017L5.740962766029889,-7.901757357261719L24.31910853319783,-7.901757357261721L9.28907288358397,3.0182027396194306L15.030035649613863,20.687069332165727L8.881784197001252e-16,9.767109235284575L-15.030035649613858,20.687069332165727L-9.28907288358397,3.018202739619431L-24.319108533197834,-7.901757357261714L-5.74096276602989,-7.901757357261719Z" fill="#B82A39" stroke="black" stroke-width="1" opacity="0.2" transform="translate(16.49921614786573,107.40298292850832) rotate(6)"></path><path class="symbol" d="M0,-33.085587653592164L19.101972938098392,0L0,33.085587653592164L-19.101972938098392,0Z" fill="#73343A" stroke="black" stroke-width="1" opacity="0.2" transform="translate(90.64736627371869,30.815085430459106) rotate(174)"></path><path class="symbol" d="M0,-30.183749349297702L17.426595811969218,0L0,30.183749349297702L-17.426595811969218,0Z" fill="#ed6409" stroke="black" stroke-width="1" opacity="0.2" transform="translate(96.9980898471896,79.45113996937857) rotate(272)"></path><path class="symbol" d="M0,-28.74349031016161L16.595061868021205,0L0,28.74349031016161L-16.595061868021205,0Z" fill="#73343A" stroke="black" stroke-width="1" opacity="0.2" transform="translate(111.15400564077272,114.30413678779794) rotate(42)"></path><path class="symbol" d="M0,-32.04851782116087L7.195340554805323,-9.90353665126707L30.4799517114164,-9.903536651267071L11.642305578305537,3.7828143919537065L18.83764613311087,25.927795561847503L1.7763568394002505e-15,12.241444518626729L-18.837646133110862,25.927795561847507L-11.642305578305537,3.782814391953706L-30.479951711416405,-9.903536651267064L-7.195340554805325,-9.90353665126707Z" fill="#B82A39" stroke="black" stroke-width="1" opacity="0.2" transform="translate(65.0279274198862,94.61906590879701) rotate(310)"></path><path class="symbol" d="M8.643825275897441,4.99051484986748L8.643825275897441,22.278165401662363L-8.643825275897441,22.278165401662363L-8.643825275897441,4.990514849867479L-23.61536982549988,-3.6533104260299636L-14.971544549602438,-18.6248549756324L0,-9.981029699734957L14.971544549602438,-18.6248549756324L23.61536982549988,-3.6533104260299636Z" fill="#1F6B63" stroke="black" stroke-width="1" opacity="0.2" transform="translate(36.0818773647197,109.19623015610654) rotate(59)"></path><path class="symbol" d="M-16.830032679706836,-16.830032679706836h33.66006535941367v33.66006535941367h-33.66006535941367Z" fill="#8A9663" stroke="black" stroke-width="1" opacity="0.2" transform="translate(14.658035941915411,127.63267758206035) rotate(126)"></path><path class="symbol" d="M0,-28.782914639109002L6.46216696023102,-8.894409771128137L27.374178525491782,-8.894409771128139L10.456005782630381,3.3973622227017746L16.918172742861405,23.285867090682636L1.7763568394002505e-15,10.994095096852725L-16.9181727428614,23.28586709068264L-10.45600578263038,3.397362222701776L-27.374178525491786,-8.894409771128133L-6.462166960231022,-8.894409771128135Z" fill="#1F6B63" stroke="black" stroke-width="1" opacity="0.2" transform="translate(40.06983995683518,119.72138063911221) rotate(81)"></path><path class="symbol" d="M9.688549397399074,5.5936866026453425L9.688549397399074,24.97078539744349L-9.688549397399074,24.97078539744349L-9.688549397399074,5.593686602645342L-26.469609205335097,-4.094862794753732L-16.781059807936025,-20.875922602689755L0,-11.187373205290683L16.781059807936025,-20.875922602689755L26.469609205335097,-4.094862794753732Z" fill="#8A9663" stroke="black" stroke-width="1" opacity="0.2" transform="translate(32.25327560706288,104.56414175158882) rotate(292)"></path><path class="symbol" d="M8.014318386719989,4.627068877944153L8.014318386719989,20.65570565138413L-8.014318386719989,20.65570565138413L-8.014318386719989,4.6270688779441524L-21.895525020552448,-3.387249508775837L-13.881206633832457,-17.268456142608294L0,-9.254137755888305L13.881206633832457,-17.268456142608294L21.895525020552448,-3.387249508775837Z" fill="#B82A39" stroke="black" stroke-width="1" opacity="0.2" transform="translate(44.80975838318841,121.88502858935169) rotate(200)"></path><path class="symbol" d="M0,-28.71334505770419L24.866486247600186,14.356672528852094L-24.866486247600186,14.356672528852094Z" fill="#73343A" stroke="black" stroke-width="1" opacity="0.2" transform="translate(87.93086381800225,55.610910803695305) rotate(345)"></path><path class="symbol" d="M-14.807092894960848,-14.807092894960848h29.614185789921695v29.614185789921695h-29.614185789921695Z" fill="#ed6409" stroke="black" stroke-width="1" opacity="0.2" transform="translate(80.49680006959458,102.3416203982735) rotate(337)"></path><path class="symbol" d="M8.000676983832294,4.619193010314818L8.000676983832294,20.62054697797941L-8.000676983832294,20.62054697797941L-8.000676983832294,4.6191930103148175L-21.85825601477675,-3.3814839735174775L-13.857579030944457,-17.239063004461933L0,-9.238386020629637L13.857579030944457,-17.239063004461933L21.85825601477675,-3.3814839735174775Z" fill="#ed6409" stroke="black" stroke-width="1" opacity="0.2" transform="translate(84.82025995110271,108.44027640139112) rotate(360)"></path><path class="symbol" d="M9.014972297410118,5.2047966826467515L9.014972297410118,23.234741277466988L-9.014972297410118,23.234741277466988L-9.014972297410118,5.20479668264675L-24.62936234535037,-3.8101756147633683L-15.614390047940251,-19.42456566270362L8.881784197001252e-16,-10.409593365293501L15.614390047940251,-19.42456566270362L24.62936234535037,-3.8101756147633683Z" fill="#ed6409" stroke="black" stroke-width="1" opacity="0.2" transform="translate(24.341669114342604,114.05975371037394) rotate(351)"></path><path class="symbol" d="M8.443522112805361,4.874869764736734L8.443522112805361,21.761913990347455L-8.443522112805361,21.761913990347455L-8.443522112805361,4.874869764736733L-23.06813140701556,-3.5686523480686283L-14.624609294210199,-18.193261642278827L8.881784197001252e-16,-9.749739529473466L14.624609294210199,-18.193261642278827L23.06813140701556,-3.5686523480686283Z" fill="#73343A" stroke="black" stroke-width="1" opacity="0.2" transform="translate(27.898840194506015,109.34863095526056) rotate(168)"></path><path class="symbol" d="M7.8675907680419614,4.542355647802841L7.8675907680419614,20.277537183886764L-7.8675907680419614,20.277537183886764L-7.8675907680419614,4.54235564780284L-21.494657711450486,-3.325235120239121L-13.627066943408524,-16.952302063647643L0,-9.084711295605683L13.627066943408524,-16.952302063647643L21.494657711450486,-3.325235120239121Z" fill="#73343A" stroke="black" stroke-width="1" opacity="0.2" transform="translate(106.02188634582288,127.33902574894492) rotate(309)"></path><path class="symbol" d="M7.449202577453973,4.300799113341106L7.449202577453973,19.19920426824905L-7.449202577453973,19.19920426824905L-7.449202577453973,4.300799113341105L-20.351599917477287,-3.148403464112868L-12.902397340023313,-16.050800804136184L0,-8.60159822668221L12.902397340023313,-16.050800804136184L20.351599917477287,-3.148403464112868Z" fill="#8A9663" stroke="black" stroke-width="1" opacity="0.2" transform="translate(2.2059021287108,129.89105789010276) rotate(282)"></path><path class="symbol" d="M0,-26.233595271598475L22.718959937803607,13.116797635799237L-22.718959937803607,13.116797635799237Z" fill="#73343A" stroke="black" stroke-width="1" opacity="0.2" transform="translate(25.184085292563665,110.44728366275312) rotate(328)"></path><path class="symbol" d="M8.656453223135776,4.997805598604844L8.656453223135776,22.310712044876396L-8.656453223135776,22.310712044876396L-8.656453223135776,4.9978055986048435L-23.649870018950306,-3.658647624530933L-14.993416795814529,-18.652064420345464L0,-9.995611197209687L14.993416795814529,-18.652064420345464L23.649870018950306,-3.658647624530933Z" fill="#1F6B63" stroke="black" stroke-width="1" opacity="0.2" transform="translate(23.57020978710906,120.19048516234547) rotate(25)"></path><path class="symbol" d="M0,-33.555740905141946L7.533733220632356,-10.36929419853144L31.91340604694708,-10.369294198531442L12.18983641315736,3.9607179444919103L19.723569633789722,27.14716465110241L1.7763568394002505e-15,12.817152508079062L-19.723569633789715,27.147164651102415L-12.18983641315736,3.9607179444919103L-31.913406046947085,-10.369294198531435L-7.5337332206323575,-10.36929419853144Z" fill="#B82A39" stroke="black" stroke-width="1" opacity="0.2" transform="translate(43.78414414434568,129.12106180043577) rotate(101)"></path><path class="symbol" d="M0,-30.440880112922976L17.575050327565204,0L0,30.440880112922976L-17.575050327565204,0Z" fill="#B82A39" stroke="black" stroke-width="1" opacity="0.2" transform="translate(22.19343308756709,115.71337801822328) rotate(63)"></path><path class="symbol" d="M-13.738631664034086,-13.738631664034086h27.477263328068172v27.477263328068172h-27.477263328068172Z" fill="#ed6409" stroke="black" stroke-width="1" opacity="0.2" transform="translate(47.03867913543988,78.9955209960672) rotate(309)"></path><path class="symbol" d="M0,-33.63528840729914L7.551592747600159,-10.393875728558093L31.989060217228687,-10.393875728558095L12.218733734814263,3.9701072534666144L19.77032648241443,27.21151993220766L2.6645352591003757e-15,12.847536950182954L-19.77032648241442,27.211519932207665L-12.218733734814261,3.970107253466617L-31.98906021722869,-10.393875728558086L-7.5515927476001625,-10.393875728558092Z" fill="#8A9663" stroke="black" stroke-width="1" opacity="0.2" transform="translate(28.77609749566755,119.86302737996164) rotate(217)"></path><path class="symbol" d="M9.785773864543998,5.649819174923282L9.785773864543998,25.221366904011276L-9.785773864543998,25.221366904011276L-9.785773864543998,5.649819174923281L-26.735231389313842,-4.135954689620716L-16.949457524769844,-21.08541221439056L0,-11.299638349846564L16.949457524769844,-21.08541221439056L26.735231389313842,-4.135954689620716Z" fill="#ed6409" stroke="black" stroke-width="1" opacity="0.2" transform="translate(62.90127608908155,99.18971850033667) rotate(259)"></path><path class="symbol" d="M0,-31.48813843796291L27.269527805157132,15.744069218981455L-27.269527805157132,15.744069218981455Z" fill="#73343A" stroke="black" stroke-width="1" opacity="0.2" transform="translate(19.32096319738106,104.99524554012132) rotate(81)"></path><path class="symbol" d="M-15.419143945109274,-15.419143945109274h30.83828789021855v30.83828789021855h-30.83828789021855Z" fill="#8A9663" stroke="black" stroke-width="1" opacity="0.2" transform="translate(33.66806941271035,118.68374126540888) rotate(353)"></path><path class="symbol" d="M0,-23.899620631262533L20.697678607484033,11.949810315631266L-20.697678607484033,11.949810315631266Z" fill="#1F6B63" stroke="black" stroke-width="1" opacity="0.2" transform="translate(16.18545760543551,122.27872717500853) rotate(309)"></path><path class="symbol" d="M0,-29.486159080703988L6.620055174556139,-9.11172425478071L28.04300373421904,-9.111724254780711L10.71147427983145,3.4803689692094233L17.331529454387596,23.8548037951327L1.7763568394002505e-15,11.26271057114257L-17.33152945438759,23.854803795132703L-10.71147427983145,3.480368969209425L-28.043003734219045,-9.111724254780704L-6.620055174556141,-9.111724254780707Z" fill="#73343A" stroke="black" stroke-width="1" opacity="0.2" transform="translate(72.88102753929377,85.56143366945881) rotate(208)"></path><path class="symbol" d="M0,-24.36218538487332L21.098271435006268,12.18109269243666L-21.098271435006268,12.18109269243666Z" fill="#1F6B63" stroke="black" stroke-width="1" opacity="0.2" transform="translate(1.8117122582514154,129.42899617719897) rotate(124)"></path><path class="symbol" d="M0,-32.58602775888629L7.316019054669455,-10.069636356669644L30.991154040263563,-10.069636356669646L11.837567492797053,3.8462588338961443L19.153586547466514,26.362650236112785L2.6645352591003757e-15,12.446755045546997L-19.153586547466507,26.36265023611279L-11.837567492797053,3.8462588338961465L-30.991154040263567,-10.069636356669639L-7.316019054669457,-10.069636356669642Z" fill="#73343A" stroke="black" stroke-width="1" opacity="0.2" transform="translate(46.86643391191279,86.53084286175631) rotate(169)"></path><path class="symbol" d="M0,-29.8519704625036L17.23504318236721,0L0,29.8519704625036L-17.23504318236721,0Z" fill="#ed6409" stroke="black" stroke-width="1" opacity="0.2" transform="translate(116.00484812075487,78.66000276293234) rotate(261)"></path><path class="symbol" d="M0,-34.21298587188029L7.681293909398174,-10.572394062720987L32.538483155365775,-10.572394062720988L12.4285946229838,4.038295189501829L20.10988853238198,27.67888699866113L1.7763568394002505e-15,13.068197746438315L-20.109888532381973,27.678886998661135L-12.4285946229838,4.038295189501831L-32.53848315536578,-10.572394062720981L-7.6812939093981765,-10.572394062720985Z" fill="#1F6B63" stroke="black" stroke-width="1" opacity="0.2" transform="translate(30.343944063498228,106.07957711295487) rotate(110)"></path><path class="symbol" d="M8.304381431454972,4.794536854903859L8.304381431454972,21.403299717813802L-8.304381431454972,21.403299717813802L-8.304381431454972,4.794536854903857L-22.687991996166545,-3.5098445765511146L-14.383610564711574,-17.893455141262688L0,-9.589073709807716L14.383610564711574,-17.893455141262688L22.687991996166545,-3.5098445765511146Z" fill="#73343A" stroke="black" stroke-width="1" opacity="0.2" transform="translate(13.867089906163597,128.6247226518527) rotate(294)"></path><path class="symbol" d="M10.060966416321513,5.808701668771011L10.060966416321513,25.930634501414037L-10.060966416321513,25.930634501414037L-10.060966416321513,5.808701668771009L-27.487071422634543,-4.2522647475505035L-17.42610500631303,-21.678369753863535L8.881784197001252e-16,-11.61740333754202L17.42610500631303,-21.678369753863535L27.487071422634543,-4.2522647475505035Z" fill="#B82A39" stroke="black" stroke-width="1" opacity="0.2" transform="translate(42.33547605677546,104.65882566574537) rotate(110)"></path><path class="symbol" d="M0,-29.07544709649865L6.5278445889437835,-8.984807271867803L27.652393425320042,-8.984807271867805L10.562274418188128,3.4318909954862833L17.090119007131918,23.522530820117126L1.7763568394002505e-15,11.105832552763038L-17.09011900713191,23.52253082011713L-10.562274418188128,3.4318909954862846L-27.652393425320046,-8.9848072718678L-6.527844588943784,-8.984807271867801Z" fill="#ed6409" stroke="black" stroke-width="1" opacity="0.2" transform="translate(86.45455355724862,45.28715217622556) rotate(301)"></path><path class="symbol" d="M-15.182226450688976,-15.182226450688976h30.364452901377952v30.364452901377952h-30.364452901377952Z" fill="#B82A39" stroke="black" stroke-width="1" opacity="0.2" transform="translate(33.63956031241213,113.08930092946551) rotate(24)"></path><path class="symbol" d="M0,-30.062362205447098L26.03476936768637,15.031181102723549L-26.03476936768637,15.031181102723549Z" fill="#B82A39" stroke="black" stroke-width="1" opacity="0.2" transform="translate(69.67519488860785,49.54929256343971) rotate(56)"></path><path class="symbol" d="M0,-26.57846462049159L5.967237094565718,-8.213197252125187L25.277621970438723,-8.21319725212519L9.6551924379365,3.137162194004582L15.622429532502224,21.50242956237098L8.881784197001252e-16,10.152070116241212L-15.622429532502219,21.502429562370985L-9.6551924379365,3.1371621940045826L-25.277621970438727,-8.213197252125184L-5.967237094565719,-8.213197252125187Z" fill="#ed6409" stroke="black" stroke-width="1" opacity="0.2" transform="translate(130.51326073920575,122.44253435637903) rotate(342)"></path><path class="symbol" d="M0,-25.231426769535393L21.851056556144382,12.615713384767696L-21.851056556144382,12.615713384767696Z" fill="#1F6B63" stroke="black" stroke-width="1" opacity="0.2" transform="translate(16.276861170327226,107.36791738233538) rotate(342)"></path><path class="symbol" d="M8.901162853893037,5.139088769795843L8.901162853893037,22.94141447758192L-8.901162853893037,22.94141447758192L-8.901162853893037,5.139088769795842L-24.318429163280562,-3.762074084097196L-15.417266309387527,-19.179340393484722L0,-10.278177539591685L15.417266309387527,-19.179340393484722L24.318429163280562,-3.762074084097196Z" fill="#8A9663" stroke="black" stroke-width="1" opacity="0.2" transform="translate(39.20707442771314,80.28370046500177) rotate(273)"></path><path class="symbol" d="M0,-28.443983146254247L24.6332119894726,14.221991573127124L-24.6332119894726,14.221991573127124Z" fill="#1F6B63" stroke="black" stroke-width="1" opacity="0.2" transform="translate(92.37724738060662,119.56975205600038) rotate(357)"></path><path class="symbol" d="M0,-32.91500843284614L19.003488979082523,0L0,32.91500843284614L-19.003488979082523,0Z" fill="#1F6B63" stroke="black" stroke-width="1" opacity="0.2" transform="translate(81.50882397880345,84.57824420821805) rotate(127)"></path><path class="symbol" d="M0,-30.620529668246306L26.51815657003639,15.310264834123153L-26.51815657003639,15.310264834123153Z" fill="#1F6B63" stroke="black" stroke-width="1" opacity="0.2" transform="translate(56.19098257327883,91.37179579902298) rotate(65)"></path><path class="symbol" d="M-15.483862567202022,-15.483862567202022h30.967725134404045v30.967725134404045h-30.967725134404045Z" fill="#B82A39" stroke="black" stroke-width="1" opacity="0.2" transform="translate(20.197352970747406,100.5327524899243) rotate(105)"></path><path class="symbol" d="M0,-24.639070762772114L14.225374137468718,0L0,24.639070762772114L-14.225374137468718,0Z" fill="#73343A" stroke="black" stroke-width="1" opacity="0.2" transform="translate(45.58320584465705,96.36350105569596) rotate(241)"></path><path class="symbol" d="M0,-32.39410165171274L7.2729289588909865,-10.01032792788879L30.808621465388995,-10.010327927888792L11.767846253249004,3.82360502992121L19.040775212139994,26.207378753745157L2.6645352591003757e-15,12.373445795935156L-19.040775212139987,26.20737875374516L-11.767846253249003,3.8236050299212128L-30.808621465389,-10.010327927888785L-7.27292895889099,-10.010327927888788Z" fill="#B82A39" stroke="black" stroke-width="1" opacity="0.2" transform="translate(7.944240633547128,116.68465252873835) rotate(207)"></path><path class="symbol" d="M0,-26.46912449745195L15.281956153817601,0L0,26.46912449745195L-15.281956153817601,0Z" fill="#73343A" stroke="black" stroke-width="1" opacity="0.2" transform="translate(89.36750663153532,34.35501132514282) rotate(290)"></path><path class="symbol" d="M-14.508618128546908,-14.508618128546908h29.017236257093817v29.017236257093817h-29.017236257093817Z" fill="#73343A" stroke="black" stroke-width="1" opacity="0.2" transform="translate(19.596541630497192,116.56697474848896) rotate(11)"></path><path class="symbol" d="M8.664861630385909,5.0026601947941645L8.664861630385909,22.33238345556598L-8.664861630385909,22.33238345556598L-8.664861630385909,5.002660194794164L-23.672842214768398,-3.6622014355917454L-15.00798058438249,-18.670182019974234L0,-10.005320389588327L15.00798058438249,-18.670182019974234L23.672842214768398,-3.6622014355917454Z" fill="#8A9663" stroke="black" stroke-width="1" opacity="0.2" transform="translate(67.9880228106156,93.86781308581283) rotate(253)"></path><path class="symbol" d="M0,-28.780291628080892L24.924463678242653,14.390145814040446L-24.924463678242653,14.390145814040446Z" fill="#B82A39" stroke="black" stroke-width="1" opacity="0.2" transform="translate(116.02257775532557,94.63257500620001) rotate(117)"></path><path class="symbol" d="M9.808073416129231,5.6626938270338245L9.808073416129231,25.278840659292285L-9.808073416129231,25.278840659292285L-9.808073416129231,5.662693827033824L-26.796154897230704,-4.145379589095407L-16.98808148110147,-21.13346107019688L0,-11.325387654067647L16.98808148110147,-21.13346107019688L26.796154897230704,-4.145379589095407Z" fill="#B82A39" stroke="black" stroke-width="1" opacity="0.2" transform="translate(30.917573944741875,109.71595834769302) rotate(156)"></path></g>
  </defs>

  <use xmlns:xlink="http://www.w3.org/1999/xlink" xlink:href="#grouped-triangle" transform="translate(0)"></use>
  
</svg>
