<svg width="150" height="170">
  <defs>
    <g id="grouped-triangle">
      <polygon id="background-triangle" fill-opacity="0" stroke="black" stroke-width="1" points="75,0
                     0,130
                     150,130"></polygon>
    <path class="symbol" d="M8.095684111196766,4.67404540087363L8.095684111196766,20.865413623267163L-8.095684111196766,20.865413623267163L-8.095684111196768,4.674045400873629L-22.117820313817653,-3.421638710323138L-14.022136202620885,-17.443774912944026L8.881784197001252e-16,-9.348090801747258L14.022136202620885,-17.443774912944026L22.117820313817653,-3.421638710323138Z" fill="#73343A" stroke="black" stroke-width="1" opacity="0.8" transform="translate(101.46831665684098,60.257336924926534) rotate(185)"></path><path class="symbol" d="M0,-33.29433160230254L19.222491313078034,0L0,33.29433160230254L-19.222491313078034,0Z" fill="#73343A" stroke="black" stroke-width="1" opacity="0.8" transform="translate(2.675146441791108,127.04270850641353) rotate(15)"></path><path class="symbol" d="M0,-28.632802556670356L24.79673439562055,14.316401278335178L-24.79673439562055,14.316401278335178Z" fill="#1F6B63" stroke="black" stroke-width="1" opacity="0.8" transform="translate(69.0549796262102,81.20428654157618) rotate(151)"></path><path class="symbol" d="M0,-25.579880865273314L22.152826655106157,12.789940432636657L-22.152826655106157,12.789940432636657Z" fill="#1F6B63" stroke="black" stroke-width="1" opacity="0.8" transform="translate(33.11377851922392,104.2987903784053) rotate(8)"></path><path class="symbol" d="M8.356830677683451,4.824818441332664L8.356830677683451,21.538479796699566L-8.356830677683451,21.538479796699566L-8.356830677683451,4.824818441332662L-22.83128600168144,-3.5320122363507886L-14.474455323997988,-18.006467560348778L8.881784197001252e-16,-9.649636882665327L14.474455323997988,-18.006467560348778L22.83128600168144,-3.5320122363507886Z" fill="#B82A39" stroke="black" stroke-width="1" opacity="0.8" transform="translate(31.536535466355414,129.95310353508654) rotate(182)"></path><path class="symbol" d="M0,-32.54457049691037L18.789616537051952,0L0,32.54457049691037L-18.789616537051952,0Z" fill="#ed6409" stroke="black" stroke-width="1" opacity="0.8" transform="translate(34.09549981278847,124.15287814361749) rotate(207)"></path><path class="symbol" d="M-16.30950643030009,-16.30950643030009h32.61901286060018v32.61901286060018h-32.61901286060018Z" fill="#73343A" stroke="black" stroke-width="1" opacity="0.8" transform="translate(67.41255985119345,107.01556533694296) rotate(226)"></path><path class="symbol" d="M-17.175564037317667,-17.175564037317667h34.351128074635334v34.351128074635334h-34.351128074635334Z" fill="#B82A39" stroke="black" stroke-width="1" opacity="0.8" transform="translate(118.47356767980824,114.54306669110406) rotate(280)"></path><path class="symbol" d="M0,-31.91309879736689L18.425036181334896,0L0,31.91309879736689L-18.425036181334896,0Z" fill="#1F6B63" stroke="black" stroke-width="1" opacity="0.8" transform="translate(59.89032981750362,63.69598566346103) rotate(59)"></path></g>
  </defs>

  <use xmlns:xlink="http://www.w3.org/1999/xlink" xlink:href="#grouped-triangle" transform="translate(0)"></use>
  
<circle cx="93.8108089663906" cy="54.89549231617435" r="3" style="fill: red;"></circle><circle cx="95.22197968991414" cy="38.76573713817474" r="3" style="fill: red;"></circle><circle cx="111.35173486791373" cy="40.176907861698275" r="3" style="fill: black;"></circle><circle cx="109.94056414439021" cy="56.30666303969788" r="3" style="fill: black;"></circle><circle cx="123.20375652359968" cy="65.59365032434593" r="3" style="fill: black;"></circle><circle cx="113.91676923895163" cy="78.85684270355542" r="3" style="fill: red;"></circle><circle cx="100.65357685974215" cy="69.56985541890737" r="3" style="fill: red;"></circle><circle cx="85.97921375700913" cy="76.41262331225893" r="3" style="fill: red;"></circle><circle cx="79.13644586365757" cy="61.738260209525905" r="3" style="fill: red;"></circle></svg>
