<svg width="1100" height="1000">
  <defs>
    <g id="grouped-triangle">
      <polygon id="background-triangle" fill="white" stroke="black" stroke-width="1" points="75,0
                     0,130
                     150,130"></polygon>
    <polygon points="86.53566085523025,118.29791055129078 130.71856557606787,128.242978749591 123.86679345045745,104.23830980157562 " fill="#8A9663" opacity="0.8"></polygon><polygon points="64.44391008278501,43.57434997300012 77.59858055808404,87.52299055672928 15.06098467461905,129.75181548161999 " fill="#B82A39" opacity="0.8"></polygon><polygon points="16.06253568371534,116.06911771381898 53.00888963710346,105.936157667454 118.29048619841248,98.2523741813849 " fill="#B82A39" opacity="0.8"></polygon><polygon points="91.1133092162523,39.37303606320566 67.06427771730387,56.64927627068431 75.99856265410506,14.74068140169198 " fill="#ed6409" opacity="0.8"></polygon><polygon points="81.01306938790837,81.77471867466144 87.59156139762841,50.604218828833645 107.11271899224315,95.27383748800997 " fill="#8A9663" opacity="0.8"></polygon><polygon points="50.12423960295885,65.8703324718191 35.42154713674954,116.90862487676677 0.8793707519586169,128.651713169905 " fill="#ed6409" opacity="0.8"></polygon><polygon points="6.711791891332829,119.60126428805485 49.19963030825022,105.19982795575388 69.40301313892796,128.31540058580222 " fill="#B82A39" opacity="0.8"></polygon><polygon points="51.97229420781658,72.088343646006 16.399138257537846,105.37429480138502 15.792478858662333,113.1986024060003 " fill="#8A9663" opacity="0.8"></polygon></g>

  <g id="hexagon">
    <g id="half-hexagon-1">
      <use xmlns:xlink="http://www.w3.org/1999/xlink" xlink:href="#grouped-triangle" transform="translate(-75)"></use>
      <use xmlns:xlink="http://www.w3.org/1999/xlink" xlink:href="#grouped-triangle" transform="rotate(120) translate(-75)"></use> 
      <use xmlns:xlink="http://www.w3.org/1999/xlink" xlink:href="#grouped-triangle" transform="rotate(240) translate(-75)"></use> 
    </g>
    <g id="half-hexagon-2">
      <use xmlns:xlink="http://www.w3.org/1999/xlink" xlink:href="#half-hexagon-1" transform="rotate(60) scale(-1,1)"></use> 
    </g>
  </g>
  </defs>

  <g id="kaleidoscope">
    <use xmlns:xlink="http://www.w3.org/1999/xlink" xlink:href="#hexagon" transform="translate(225, 130)"></use>
    <use xmlns:xlink="http://www.w3.org/1999/xlink" xlink:href="#hexagon" transform="translate(450, 260)"></use>
    <use xmlns:xlink="http://www.w3.org/1999/xlink" xlink:href="#hexagon" transform="translate(225, 390)"></use>
    <use xmlns:xlink="http://www.w3.org/1999/xlink" xlink:href="#hexagon" transform="translate(450, 520)"></use>
    <use xmlns:xlink="http://www.w3.org/1999/xlink" xlink:href="#hexagon" transform="translate(675, 130)"></use>
    <use xmlns:xlink="http://www.w3.org/1999/xlink" xlink:href="#hexagon" transform="translate(675, 390)"></use>
    <use xmlns:xlink="http://www.w3.org/1999/xlink" xlink:href="#hexagon" transform="translate(900, 260)"></use>
    <use xmlns:xlink="http://www.w3.org/1999/xlink" xlink:href="#hexagon" transform="translate(900, 520)"></use>
  </g>

</svg>
