<?xml version="1.0" encoding="UTF-8" standalone="no"?>
<svg
   xmlns:dc="http://purl.org/dc/elements/1.1/"
   xmlns:cc="http://creativecommons.org/ns#"
   xmlns:rdf="http://www.w3.org/1999/02/22-rdf-syntax-ns#"
   xmlns:svg="http://www.w3.org/2000/svg"
   xmlns="http://www.w3.org/2000/svg"
   xmlns:xlink="http://www.w3.org/1999/xlink"
   xmlns:sodipodi="http://sodipodi.sourceforge.net/DTD/sodipodi-0.dtd"
   xmlns:inkscape="http://www.inkscape.org/namespaces/inkscape"
   viewBox="0 75 320 568"
   id="svg2"
   version="1.1"
   inkscape:version="0.91 r13725"
   sodipodi:docname="website_background_10_lighter_mobile.svg"
   width="320"
   height="568">
  <metadata
     id="metadata103">
    <rdf:RDF>
      <cc:Work
         rdf:about="">
        <dc:format>image/svg+xml</dc:format>
        <dc:type
           rdf:resource="http://purl.org/dc/dcmitype/StillImage" />
        <dc:title></dc:title>
      </cc:Work>
    </rdf:RDF>
  </metadata>
  <sodipodi:namedview
     pagecolor="#e1d4d4"
     bordercolor="#666666"
     borderopacity="1"
     objecttolerance="10"
     gridtolerance="10"
     guidetolerance="10"
     inkscape:pageopacity="0"
     inkscape:pageshadow="2"
     inkscape:window-width="3062"
     inkscape:window-height="1752"
     id="namedview101"
     showgrid="false"
     inkscape:zoom="0.7599041"
     inkscape:cx="610.13102"
     inkscape:cy="421.78502"
     inkscape:window-x="138"
     inkscape:window-y="48"
     inkscape:window-maximized="1"
     inkscape:current-layer="svg2" />
  <defs
     id="defs4">
    <g
       id="grouped-triangle">
      <polygon
         class="background-triangle"
         points="0,130 150,130 75,0 "
         id="polygon7"
         style="fill:#2c2335;stroke:#000000;stroke-width:1" />
      <path
         class="symbol"
         d="m -13.518506,-13.518506 27.037012,0 0,27.037012 -27.037012,0 z"
         transform="matrix(0.34202014,-0.93969262,0.93969262,0.34202014,82.160195,55.285379)"
         id="path9"
         inkscape:connector-curvature="0"
         style="opacity:0.8;fill:#b82a39;stroke:#000000;stroke-width:1" />
      <path
         class="symbol"
         d="m -14.637281,-14.637281 29.274562,0 0,29.274562 -29.274562,0 z"
         transform="matrix(-0.9612617,0.27563736,-0.27563736,-0.9612617,42.697609,100.7344)"
         id="path11"
         inkscape:connector-curvature="0"
         style="opacity:0.8;fill:#87984d;stroke:#000000;stroke-width:1" />
      <path
         class="symbol"
         d="m 8.690038,5.0171958 0,17.3800762 -17.380076,0 0,-17.3800762 -15.051587,-8.690038 L -15.051587,-18.72443 0,-10.034392 15.051587,-18.72443 23.741625,-3.6728422 Z"
         transform="matrix(-0.80901699,0.58778525,-0.58778525,-0.80901699,68.062297,70.762236)"
         id="path13"
         inkscape:connector-curvature="0"
         style="opacity:0.8;fill:#b82a39;stroke:#000000;stroke-width:1" />
      <path
         class="symbol"
         d="m -14.688431,-14.688431 29.376862,0 0,29.376862 -29.376862,0 z"
         transform="matrix(0.95630476,0.2923717,-0.2923717,0.95630476,58.99675,72.589928)"
         id="path15"
         inkscape:connector-curvature="0"
         style="opacity:0.8;fill:#b82a39;stroke:#000000;stroke-width:1" />
      <path
         class="symbol"
         d="m 0,-29.060124 6.5244044,20.0800518 21.1134156,0 L 10.556708,3.4300824 17.081112,23.510134 0,11.09998 -17.081112,23.510134 -10.556708,3.4300824 -27.63782,-8.9800722 l 21.1134156,0 z"
         transform="matrix(-0.1391731,0.99026807,-0.99026807,-0.1391731,59.233486,95.655656)"
         id="path17"
         inkscape:connector-curvature="0"
         style="opacity:0.8;fill:#b82a39;stroke:#000000;stroke-width:1" />
      <path
         class="symbol"
         d="m -14.044572,-14.044572 28.089144,0 0,28.089144 -28.089144,0 z"
         transform="matrix(0.87461971,-0.48480962,0.48480962,0.87461971,56.097901,108.71617)"
         id="path19"
         inkscape:connector-curvature="0"
         style="opacity:0.8;fill:#87984d;stroke:#000000;stroke-width:1" />
      <path
         class="symbol"
         d="m 9.3830807,5.4173241 0,18.7661609 -18.7661614,0 0,-18.7661609 L -25.635053,-3.9657565 -16.251972,-20.217729 0,-10.834648 l 16.251972,-9.383081 9.383081,16.2519725 z"
         transform="matrix(0.43837115,-0.89879405,0.89879405,0.43837115,76.60277,102.36851)"
         id="path21"
         inkscape:connector-curvature="0"
         style="opacity:0.8;fill:#1f6b63;stroke:#000000;stroke-width:1" />
      <path
         class="symbol"
         d="m 0,-31.622313 27.385726,47.433469 -54.771452,0 z"
         transform="matrix(-0.68199836,-0.7313537,0.7313537,-0.68199836,65.876332,90.096455)"
         id="path23"
         inkscape:connector-curvature="0"
         style="opacity:0.8;fill:#73343a;stroke:#000000;stroke-width:1" />
      <path
         class="symbol"
         d="m -15.724185,-15.724185 31.44837,0 0,31.44837 -31.44837,0 z"
         transform="matrix(0.99254615,0.12186934,-0.12186934,0.99254615,46.42495,91.340149)"
         id="path25"
         inkscape:connector-curvature="0"
         style="opacity:0.8;fill:#f2692d;stroke:#000000;stroke-width:1" />
    </g>
    <g
       id="unrotated-hexagon">
      <g
         id="half-hexagon-1">
        <use
           xlink:href="#grouped-triangle"
           transform="translate(-75,0)"
           id="use29"
           x="0"
           y="0"
           width="100%"
           height="100%" />
        <use
           xlink:href="#grouped-triangle"
           transform="matrix(-0.5,0.8660254,-0.8660254,-0.5,37.5,-64.951905)"
           id="use31"
           x="0"
           y="0"
           width="100%"
           height="100%" />
        <use
           xlink:href="#grouped-triangle"
           transform="matrix(-0.5,-0.8660254,0.8660254,-0.5,37.5,64.951905)"
           id="use33"
           x="0"
           y="0"
           width="100%"
           height="100%" />
      </g>
      <g
         id="half-hexagon-2">
        <use
           xlink:href="#half-hexagon-1"
           transform="matrix(-0.5,-0.8660254,-0.8660254,0.5,0,0)"
           id="use36"
           x="0"
           y="0"
           width="100%"
           height="100%" />
      </g>
    </g>
    <g
       id="hexagon">
      <use
         xlink:href="#unrotated-hexagon"
         transform="matrix(0.8660254,0.5,-0.5,0.8660254,0,0)"
         id="use39"
         x="0"
         y="0"
         width="100%"
         height="100%" />
    </g>
  </defs>
  <g
     id="kaleidoscope"
     transform="translate(-848.79132,-439.17849)">
    <g
       id="centre"
       style="fill-opacity:0.7">
      <use
         xlink:href="#hexagon"
         transform="translate(391,375)"
         id="use43"
         x="0"
         y="0"
         width="100%"
         height="100%" />
    </g>
    <g
       id="ring1"
       style="fill-opacity:0.6;stroke-opacity:0.8">
      <use
         xlink:href="#hexagon"
         transform="translate(261,150)"
         id="use46"
         x="0"
         y="0"
         width="100%"
         height="100%" />
      <use
         xlink:href="#hexagon"
         transform="translate(521,150)"
         id="use48"
         x="0"
         y="0"
         width="100%"
         height="100%" />
      <use
         xlink:href="#hexagon"
         transform="translate(131,375)"
         id="use50"
         x="0"
         y="0"
         width="100%"
         height="100%" />
      <use
         xlink:href="#hexagon"
         transform="translate(651,375)"
         id="use52"
         x="0"
         y="0"
         width="100%"
         height="100%" />
      <use
         xlink:href="#hexagon"
         transform="translate(261,600)"
         id="use54"
         x="0"
         y="0"
         width="100%"
         height="100%" />
      <use
         xlink:href="#hexagon"
         transform="translate(521,600)"
         id="use56"
         x="0"
         y="0"
         width="100%"
         height="100%" />
    </g>
    <g
       id="ring2"
       style="fill-opacity:0.5;stroke-opacity:0.7">
      <use
         xlink:href="#hexagon"
         transform="translate(131,-75)"
         id="use59"
         x="0"
         y="0"
         width="100%"
         height="100%" />
      <use
         xlink:href="#hexagon"
         transform="translate(391,-75)"
         id="use61"
         x="0"
         y="0"
         width="100%"
         height="100%" />
      <use
         xlink:href="#hexagon"
         transform="translate(651,-75)"
         id="use63"
         x="0"
         y="0"
         width="100%"
         height="100%" />
      <use
         xlink:href="#hexagon"
         transform="translate(781,150)"
         id="use65"
         x="0"
         y="0"
         width="100%"
         height="100%" />
      <use
         xlink:href="#hexagon"
         transform="translate(1,150)"
         id="use67"
         x="0"
         y="0"
         width="100%"
         height="100%" />
      <use
         xlink:href="#hexagon"
         transform="translate(911,375)"
         id="use69"
         x="0"
         y="0"
         width="100%"
         height="100%" />
      <use
         xlink:href="#hexagon"
         transform="translate(1,600)"
         id="use71"
         x="0"
         y="0"
         width="100%"
         height="100%" />
      <use
         xlink:href="#hexagon"
         transform="translate(781,600)"
         id="use73"
         x="0"
         y="0"
         width="100%"
         height="100%" />
      <use
         xlink:href="#hexagon"
         transform="translate(131,825)"
         id="use75"
         x="0"
         y="0"
         width="100%"
         height="100%" />
      <use
         xlink:href="#hexagon"
         transform="translate(391,825)"
         id="use77"
         x="0"
         y="0"
         width="100%"
         height="100%" />
      <use
         xlink:href="#hexagon"
         transform="translate(651,825)"
         id="use79"
         x="0"
         y="0"
         width="100%"
         height="100%" />
    </g>
    <g
       id="ring3"
       style="fill-opacity:0.4;stroke-opacity:0.6">
      <use
         xlink:href="#hexagon"
         transform="translate(911,-75)"
         id="use82"
         x="0"
         y="0"
         width="100%"
         height="100%" />
      <use
         xlink:href="#hexagon"
         transform="translate(1041,150)"
         id="use84"
         x="0"
         y="0"
         width="100%"
         height="100%" />
      <use
         xlink:href="#hexagon"
         transform="translate(1171,375)"
         id="use86"
         x="0"
         y="0"
         width="100%"
         height="100%" />
      <use
         xlink:href="#hexagon"
         transform="translate(1041,600)"
         id="use88"
         x="0"
         y="0"
         width="100%"
         height="100%" />
      <use
         xlink:href="#hexagon"
         transform="translate(911,825)"
         id="use90"
         x="0"
         y="0"
         width="100%"
         height="100%" />
      <use
         xlink:href="#hexagon"
         transform="translate(1,1050)"
         id="use92"
         x="0"
         y="0"
         width="100%"
         height="100%" />
      <use
         xlink:href="#hexagon"
         transform="translate(261,1050)"
         id="use94"
         x="0"
         y="0"
         width="100%"
         height="100%" />
      <use
         xlink:href="#hexagon"
         transform="translate(521,1050)"
         id="use96"
         x="0"
         y="0"
         width="100%"
         height="100%" />
      <use
         xlink:href="#hexagon"
         transform="translate(781,1050)"
         id="use98"
         x="0"
         y="0"
         width="100%"
         height="100%" />
    </g>
  </g>
  <path
     id="kaleidoscope-cover"
     d="m 1,644 1006,0 34,-20 0,-150 130,-75 0,-150 130,-75 0,-150 -130,-75 0,-150 -1171,0 z"
     inkscape:connector-curvature="0"
     style="fill:#ffffff;fill-opacity:0;stroke:#000000;stroke-width:3" />
  <flowRoot
     xml:space="preserve"
     id="flowRoot4249"
     style="font-style:normal;font-weight:normal;font-size:40px;line-height:125%;font-family:sans-serif;letter-spacing:0px;word-spacing:0px;fill:#000000;fill-opacity:1;stroke:none;stroke-width:1px;stroke-linecap:butt;stroke-linejoin:miter;stroke-opacity:1"
     transform="translate(0,-276)"><flowRegion
       id="flowRegion4251"><rect
         id="rect4253"
         width="399.39252"
         height="76.983398"
         x="928.40662"
         y="402.49692" /></flowRegion><flowPara
       id="flowPara4255" /></flowRoot>  <flowRoot
     xml:space="preserve"
     id="flowRoot4261"
     style="font-style:normal;font-weight:normal;font-size:40px;line-height:125%;font-family:sans-serif;letter-spacing:0px;word-spacing:0px;fill:#000000;fill-opacity:1;stroke:none;stroke-width:1px;stroke-linecap:butt;stroke-linejoin:miter;stroke-opacity:1"
     transform="translate(0,-276)"><flowRegion
       id="flowRegion4263"><rect
         id="rect4265"
         width="429.65948"
         height="111.85622"
         x="926.43268"
         y="395.25916" /></flowRegion><flowPara
       id="flowPara4267" /></flowRoot>  <g
     id="g4285"
     transform="translate(-869.18863,-141.11456)">
    <rect
       y="306.44724"
       x="896.19025"
       height="195.37041"
       width="265.77405"
       id="rect4231"
       style="opacity:1;fill:#e1d4d4;fill-opacity:1;stroke:#000000;stroke-width:1.88666737;stroke-miterlimit:4;stroke-dasharray:none;stroke-dashoffset:0;stroke-opacity:1" />
    <flowRoot
       transform="translate(3.9478592,5.9123339)"
       style="font-style:normal;font-weight:normal;font-size:40px;line-height:125%;font-family:sans-serif;letter-spacing:0px;word-spacing:0px;fill:#000000;fill-opacity:1;stroke:none;stroke-width:1px;stroke-linecap:butt;stroke-linejoin:miter;stroke-opacity:1"
       id="flowRoot4241"
       xml:space="preserve"><flowRegion
         id="flowRegion4243"><rect
           y="321.56564"
           x="925.11676"
           height="57.244068"
           width="319.77719"
           id="rect4245" /></flowRegion><flowPara
         id="flowPara4247">Hello!</flowPara></flowRoot>    <flowRoot
       transform="translate(1093.559,380.95966)"
       style="font-style:normal;font-variant:normal;font-weight:normal;font-stretch:normal;font-size:30px;line-height:125%;font-family:serif;-inkscape-font-specification:serif;letter-spacing:0px;word-spacing:0px;fill:#000000;fill-opacity:1;stroke:none;stroke-width:1px;stroke-linecap:butt;stroke-linejoin:miter;stroke-opacity:1"
       id="flowRoot4269"
       xml:space="preserve"><flowRegion
         id="flowRegion4271"><rect
           style="font-style:normal;font-variant:normal;font-weight:normal;font-stretch:normal;font-size:30px;font-family:serif;-inkscape-font-specification:serif"
           y="380.78366"
           x="917.22101"
           height="122.38387"
           width="440.18707"
           id="rect4273" /></flowRegion><flowPara
         style="font-size:25px"
         id="flowPara4275">This is my site for notes and thoughts on physics, maths, programming and anything else that interests me.</flowPara></flowRoot>    <rect
       style="opacity:0.8;fill:#000000;fill-opacity:1;stroke:none;stroke-width:4;stroke-miterlimit:4;stroke-dasharray:none;stroke-dashoffset:0;stroke-opacity:1"
       id="rect4204"
       width="323.06708"
       height="26.319111"
       x="864.58282"
       y="215.62177" />
  </g>
  <path
     inkscape:connector-curvature="0"
     style="opacity:0.8;fill:#0b0505;fill-opacity:0.88364778"
     d="m 77.14158,486.74122 c -0.073,0 -0.14291,0.006 -0.20804,0.0133 -0.54773,0.0799 -2.21527,0.82735 -2.53125,1.13467 -0.36328,0.35335 -0.98309,0.73597 -1.06283,0.65624 -0.0449,-0.0449 -0.082,-0.0272 -0.082,0.0392 0,0.1326 -0.71246,0.94958 -0.82805,0.94958 -0.11844,0 -0.58554,0.5053 -0.58554,0.63335 0,0.0656 -0.14456,0.23289 -0.3213,0.37188 -0.17667,0.13899 -0.32129,0.34823 -0.32129,0.46502 0,0.11679 -0.16137,0.30517 -0.35878,0.41848 -0.19742,0.11332 -0.63873,0.57322 -0.98051,1.02205 -0.34178,0.44883 -0.67173,0.81603 -0.73332,0.81603 -0.0613,0 -0.11414,0.0723 -0.11686,0.16068 0,0.0883 -0.34038,0.44978 -0.75039,0.80319 -0.40994,0.35335 -0.87111,0.83045 -1.02445,1.06018 -0.15341,0.22973 -0.361,0.41766 -0.46167,0.41766 -0.10061,0 -0.22005,0.11648 -0.2652,0.25882 -0.0455,0.1424 -0.13166,0.22833 -0.19236,0.19077 -0.0607,-0.0373 -0.15227,0 -0.20342,0.0821 -0.0582,0.094 -0.0373,0.1161 0.0556,0.0588 0.37371,-0.23093 0.0938,0.20197 -0.36587,0.56607 -0.28272,0.22391 -0.51403,0.47514 -0.51403,0.55823 0,0.0831 -0.11565,0.22315 -0.25698,0.31142 -0.14139,0.0883 -0.25704,0.24807 -0.25704,0.355 0,0.10693 -0.14455,0.26027 -0.32129,0.34076 -0.17668,0.0805 -0.32148,0.20956 -0.32186,0.28652 -3.2e-4,0.077 -0.23574,0.33962 -0.52307,0.58352 -0.72175,0.61273 -0.95047,1.19101 -0.75198,1.90175 0.13987,0.50094 0.18749,0.54622 0.57505,0.54622 0.23245,0 0.50726,0.0329 0.61084,0.0723 0.11515,0.0443 0.43283,-0.16788 0.81786,-0.54615 0.9948,-0.9774 1.68158,-1.58217 1.79856,-1.5835 0.0594,0 0.32098,-0.20304 0.58131,-0.44978 0.26033,-0.2468 0.52484,-0.44858 0.58788,-0.44858 0.0632,0 0.25047,-0.14462 0.41646,-0.32129 0.16605,-0.17674 0.37858,-0.32129 0.47229,-0.32129 0.0937,0 0.17029,-0.0443 0.17029,-0.0988 0,-0.0544 0.14025,-0.18446 0.31143,-0.28917 0.17117,-0.10472 0.59048,-0.45212 0.93169,-0.77208 0.34127,-0.3199 0.90822,-0.81148 1.25999,-1.0923 0.35183,-0.28083 0.77626,-0.66971 0.9432,-0.86403 0.16687,-0.19438 0.38085,-0.35341 0.47545,-0.35341 0.0946,0 0.28569,-0.14462 0.42468,-0.3213 0.4157,-0.52844 0.58946,-0.40722 0.78296,0.54615 0.0968,0.4771 0.18932,0.9831 0.20557,1.12449 0.0164,0.14139 0.0653,0.34374 0.10883,0.44978 0.0436,0.10605 0.0978,0.32129 0.12033,0.47849 0.0228,0.15726 0.0809,0.32597 0.12988,0.37492 0.0487,0.0487 0.089,0.21429 0.089,0.36745 0,0.15315 0.0436,0.32173 0.0964,0.37466 0.0531,0.0531 0.10592,0.39521 0.11749,0.76045 0.0114,0.36523 0.087,1.21339 0.16744,1.88487 0.0806,0.67148 0.17902,1.5823 0.21886,2.02405 0.0398,0.44175 0.12457,0.80319 0.18837,0.80319 0.0638,0 0.0828,0.13242 0.0424,0.29417 -0.0405,0.16181 -0.006,0.4654 0.0765,0.6747 0.15973,0.40419 0.95944,3.37207 1.1413,4.23584 0.0594,0.28272 0.23106,0.94775 0.38111,1.47784 0.15006,0.53009 0.30833,1.12404 0.35184,1.31988 0.0436,0.19583 0.12937,0.38724 0.19096,0.42524 0.0613,0.0379 0.1118,0.20697 0.1118,0.3753 0,0.16839 0.0575,0.34184 0.12855,0.38553 0.0706,0.0436 0.1285,0.16846 0.1285,0.27735 0,0.18533 0.25793,0.85334 0.5249,1.3594 0.0647,0.12273 0.11761,0.32875 0.11761,0.45781 0,0.12906 0.10984,0.46243 0.24402,0.74072 0.13412,0.27835 0.31244,0.76627 0.39616,1.08433 0.20026,0.76077 1.17489,3.00923 1.72685,3.98379 0.1001,0.17674 0.30846,0.61046 0.46288,0.96387 0.15435,0.35335 0.36713,0.74016 0.47286,0.85941 0.10572,0.1192 0.15833,0.27159 0.11685,0.33875 -0.0417,0.0671 0.0202,0.20083 0.13671,0.29713 0.11673,0.0964 0.32022,0.41861 0.452,0.71587 0.13184,0.29727 0.31035,0.61533 0.39679,0.70683 0.0864,0.0914 0.258,0.36865 0.3813,0.61602 0.27241,0.54647 0.58928,1.09275 0.93232,1.60741 0.42531,0.63802 0.57328,0.88559 0.6938,1.16078 0.0632,0.1443 0.20766,0.33944 0.32104,0.43353 0.11338,0.0941 0.20601,0.22916 0.20601,0.30023 0,0.071 0.27811,0.5122 0.61786,0.98025 0.33976,0.46812 0.71701,0.99556 0.83835,1.17229 0.32661,0.47565 1.0782,1.5431 1.44774,2.05618 0.17819,0.24737 0.42183,0.58668 0.54135,0.754 0.11957,0.16725 0.39078,0.52294 0.6028,0.79054 0.88648,1.11855 1.57933,2.02747 1.99712,2.61997 0.24452,0.34677 0.74818,0.93567 1.11923,1.30881 0.37112,0.37314 0.67471,0.72928 0.67471,0.79137 0,0.062 0.89634,0.97387 1.99193,2.02627 1.09552,1.05233 1.99192,1.98358 1.99192,2.06938 0,0.0858 0.0582,0.1756 0.12969,0.19938 0.0713,0.024 0.95325,0.85916 1.95981,1.85661 1.00655,0.99738 2.03442,1.9519 2.28407,2.12098 0.24964,0.16915 0.6255,0.47008 0.83531,0.6687 0.20981,0.19862 0.59257,0.47116 0.85056,0.60559 0.25806,0.13444 0.84873,0.5354 1.31261,0.89096 0.46394,0.35557 0.93611,0.64638 1.04943,0.64638 0.11325,0 0.39002,0.13886 0.61501,0.30858 0.22498,0.16978 0.6114,0.3997 0.85884,0.51106 0.24737,0.11135 0.82564,0.43195 1.2851,0.71245 0.45939,0.28051 1.20239,0.73004 1.65091,0.99897 0.44858,0.26887 0.96905,0.58801 1.1566,0.70917 0.35765,0.23111 1.44243,0.77126 2.51981,1.25481 0.35012,0.15713 1.41997,0.54589 2.37746,0.86402 0.95749,0.31813 1.84036,0.63164 1.96202,0.69659 0.66326,0.35385 4.59317,1.20669 6.14,1.33246 0.53009,0.043 1.22408,0.10629 1.54214,0.14038 0.318,0.0341 1.18007,0.11736 1.91561,0.18496 0.73547,0.0676 1.36344,0.14904 1.39531,0.18091 0.0316,0.0316 1.02041,0.0537 2.19674,0.048 3.14158,-0.0145 5.45841,-0.36372 7.79319,-1.17469 1.89081,-0.65674 2.13426,-0.7602 2.69647,-1.14693 0.28146,-0.19362 0.614,-0.35203 0.73895,-0.35203 0.12495,0 0.22708,-0.0575 0.22708,-0.12849 0,-0.0707 0.0959,-0.12849 0.21284,-0.12849 0.11705,0 0.40229,-0.14461 0.63392,-0.32129 0.23169,-0.17674 0.45351,-0.32129 0.49297,-0.32129 0.10724,0 1.28036,-0.90848 1.38931,-1.07586 0.1983,-0.3046 0.0889,-0.71252 -0.25698,-0.95881 l -0.35544,-0.253 -1.00478,0.54615 c -0.5526,0.30042 -1.11633,0.64176 -1.2526,0.75843 -0.13621,0.11666 -0.31073,0.21202 -0.38794,0.21202 -0.0771,0 -0.84284,0.28101 -1.70137,0.62449 -1.99951,0.80004 -2.85886,1.03691 -5.15924,1.42163 -0.82982,0.13879 -3.81837,0.35094 -4.2409,0.30105 -0.51586,-0.0607 -2.21622,-0.16738 -3.46976,-0.21708 -1.65287,-0.0656 -4.16686,-0.32344 -4.49789,-0.46142 -0.14132,-0.0588 -0.40159,-0.13582 -0.57827,-0.17092 -0.17674,-0.0348 -0.69721,-0.15947 -1.15661,-0.27645 -0.45945,-0.11705 -0.95097,-0.23618 -1.09236,-0.2647 -0.14133,-0.0285 -0.37264,-0.10775 -0.51403,-0.1763 -0.14133,-0.0685 -0.86421,-0.27329 -1.60639,-0.45477 -0.74211,-0.18155 -1.63851,-0.46566 -1.99193,-0.63152 -0.35335,-0.16593 -0.87382,-0.37428 -1.15654,-0.46306 -0.5447,-0.17099 -1.84282,-0.7884 -2.69876,-1.28352 -1.08844,-0.62962 -1.65274,-0.90317 -1.86261,-0.90317 -0.11983,0 -0.32799,-0.12185 -0.46262,-0.27089 -0.13462,-0.14898 -0.50524,-0.40976 -0.82324,-0.57948 -0.31806,-0.16972 -0.66509,-0.3627 -0.77107,-0.42891 -0.10604,-0.0662 -0.62652,-0.36214 -1.15661,-0.65763 -0.53009,-0.29543 -1.29149,-0.79017 -1.69195,-1.09932 -0.40046,-0.30915 -0.78024,-0.56209 -0.8441,-0.56209 -0.12635,0 -1.03558,-0.66344 -2.02526,-1.47783 -0.71182,-0.58567 -3.53489,-3.34216 -3.53489,-3.45149 0,-0.0398 -0.8159,-0.89855 -1.81316,-1.90859 -0.99726,-1.01009 -1.98738,-2.03891 -2.20035,-2.28634 -0.21303,-0.24737 -0.94402,-1.0395 -1.62448,-1.76036 -1.61081,-1.70656 -1.94412,-2.08444 -1.94412,-2.20459 0,-0.0544 -0.17351,-0.26552 -0.38553,-0.46862 -0.21203,-0.20317 -0.38554,-0.42013 -0.38554,-0.48235 0,-0.062 -0.14455,-0.30264 -0.32129,-0.53432 -0.17668,-0.23163 -0.32123,-0.45845 -0.32123,-0.50398 0,-0.15005 -0.43979,-0.59977 -0.58656,-0.59977 -0.0791,0 -0.20987,-0.22024 -0.29055,-0.48956 -0.0807,-0.26931 -0.29727,-0.63075 -0.48128,-0.80319 -0.18407,-0.17244 -0.4169,-0.48715 -0.51731,-0.69918 -0.18578,-0.39243 -0.59958,-1.00111 -1.115,-1.64015 -0.3323,-0.41204 -1.53184,-2.29324 -1.82227,-2.85773 -0.10908,-0.21202 -0.31282,-0.55905 -0.45276,-0.77107 -0.14,-0.21202 -0.57353,-1.03248 -0.96343,-1.82322 -0.38996,-0.7908 -0.76709,-1.47373 -0.83816,-1.51767 -0.071,-0.0436 -0.12931,-0.19318 -0.12931,-0.33167 0,-0.13854 -0.37327,-0.98309 -0.82969,-1.8769 -0.45643,-0.89375 -0.79789,-1.67696 -0.75862,-1.74051 0.0392,-0.0636 -0.0101,-0.2131 -0.1106,-0.33229 -0.10022,-0.11926 -0.28828,-0.56386 -0.41791,-0.98797 -0.12963,-0.42404 -0.37143,-1.07611 -0.5373,-1.44913 -0.16586,-0.37301 -0.30162,-0.76152 -0.30162,-0.8632 0,-0.10174 -0.0946,-0.40362 -0.21044,-0.6711 -0.42538,-0.98227 -0.57821,-1.52545 -0.75116,-2.67099 -0.0215,-0.1414 -0.13178,-0.50998 -0.24541,-0.81926 -0.11363,-0.30928 -0.20658,-0.67161 -0.20658,-0.80503 0,-0.13342 -0.0537,-0.34311 -0.11907,-0.46584 -0.13285,-0.24895 -0.78657,-2.87012 -0.84095,-3.37156 -0.019,-0.17674 -0.0499,-0.3213 -0.0679,-0.3213 -0.0398,0 -0.062,-0.13886 -0.30194,-1.86343 -0.1032,-0.74211 -0.22644,-1.81197 -0.27393,-2.3774 -0.0474,-0.5655 -0.14506,-1.21871 -0.21683,-1.4516 -0.0718,-0.23289 -0.18072,-0.7244 -0.2418,-1.09236 -0.0613,-0.36789 -0.19552,-1.01579 -0.29897,-1.4399 -0.52402,-2.149 -0.7332,-3.28594 -0.73592,-4.00111 0,-0.66718 -0.0512,-0.83361 -0.31623,-1.08269 -0.30441,-0.28594 -0.31326,-0.2867 -0.31326,-0.0322 0,0.21006 -0.0635,0.24939 -0.32312,0.19976 -0.17775,-0.0341 -0.3526,-0.10965 -0.3887,-0.16808 -0.11901,-0.19248 1.01218,-1.27821 1.67139,-1.60418 0.35576,-0.17585 0.74926,-0.39104 0.87427,-0.47805 0.19527,-0.13595 0.2917,-0.0902 0.68274,0.32364 0.25047,0.26507 0.50258,0.48196 0.56025,0.48196 0.0575,0 0.39572,0.27469 0.75134,0.6104 0.88528,0.83576 1.16433,1.06024 1.31805,1.06024 0.0723,0 0.30093,0.17345 0.50821,0.38554 0.20728,0.21202 0.42234,0.38793 0.47773,0.39072 0.0556,0 0.30086,0.17636 0.54558,0.38553 0.24471,0.20918 0.51055,0.38029 0.59073,0.38029 0.19944,0 0.9339,0.3739 1.02546,0.52212 0.0411,0.0662 0.43246,0.11635 0.8701,0.11123 0.7435,-0.009 0.81951,-0.0379 1.15977,-0.44757 0.29239,-0.35196 0.34728,-0.51472 0.27892,-0.82608 -0.0468,-0.21329 -0.16466,-0.38775 -0.26185,-0.38775 -0.0972,0 -0.32129,-0.14462 -0.49796,-0.32129 -0.17674,-0.17668 -0.43651,-0.32129 -0.57733,-0.32129 -0.37245,0 -2.57229,-1.28915 -3.12482,-1.83125 -0.12603,-0.12369 -0.27267,-0.22518 -0.32566,-0.22651 -0.0531,0 -0.3383,-0.22638 -0.63391,-0.501 -0.29569,-0.27462 -0.7583,-0.66086 -1.02812,-0.8584 -0.26976,-0.19754 -0.54837,-0.42272 -0.61906,-0.50037 -0.27418,-0.30137 -0.93833,-0.54172 -1.44913,-0.54621 z m 137.83729,32.69793 c -0.0278,0 -0.0556,0.006 -0.0832,0.008 -0.2227,0.0329 -0.40501,0.13684 -0.40501,0.23131 0,0.0945 -0.0723,0.21796 -0.16061,0.27449 -0.0883,0.0563 -0.42803,0.42089 -0.75482,0.80965 -0.32679,0.3887 -1.16534,1.31849 -1.86338,2.06616 -0.6981,0.74774 -1.51704,1.64414 -1.81986,1.99193 l -0.55058,0.63253 -0.25161,-0.32129 c -0.13842,-0.17668 -0.34924,-0.62437 -0.46843,-0.99473 -0.42904,-1.33291 -1.24368,-1.91611 -1.84131,-1.31843 -0.32243,0.32243 -0.32477,0.6754 -0.009,1.34094 0.27203,0.57334 0.58504,1.61315 0.53995,1.79312 -0.0158,0.0626 0.0846,0.23618 0.2229,0.38553 0.13836,0.1493 0.46332,0.70519 0.72207,1.23528 0.80244,1.64388 0.92378,1.84497 1.17349,1.9445 0.39837,0.15897 0.59294,0.0704 0.84733,-0.3851 0.1837,-0.32887 0.2212,-0.56714 0.15701,-0.99498 -0.0722,-0.48152 -0.0405,-0.6085 0.2193,-0.88249 0.38086,-0.40147 0.54507,-0.40179 1.37166,0 0.36644,0.17674 0.70961,0.31231 0.76286,0.30137 0.0531,-0.0107 0.32597,0.0815 0.60597,0.20564 0.64334,0.28518 3.75551,1.09673 3.84872,1.00358 0.0386,-0.0379 0.14556,-0.006 0.23852,0.0706 0.21063,0.17485 1.3384,0.44979 1.75195,0.42715 0.66718,-0.0367 0.83444,-0.58479 0.45541,-1.49194 -0.15973,-0.38237 -0.25293,-0.46477 -0.46363,-0.40963 -0.17187,0.0449 -0.35955,-0.0322 -0.53894,-0.22151 -0.25439,-0.26842 -0.97582,-0.52926 -1.75316,-0.6341 -0.17673,-0.024 -0.46584,-0.10447 -0.64258,-0.17908 -0.17667,-0.0747 -0.63929,-0.20627 -1.02805,-0.29258 -0.8529,-0.18933 -2.59176,-0.76096 -2.74372,-0.90178 -0.11363,-0.10541 -0.0209,-0.21127 0.98955,-1.1305 0.78448,-0.71384 2.01115,-2.31258 2.01115,-2.62103 0,-0.13134 0.0742,-0.26723 0.16491,-0.30201 0.0906,-0.0348 0.15309,-0.22094 0.13893,-0.41361 -0.0146,-0.19274 -0.0303,-0.45162 -0.036,-0.5753 -0.0171,-0.37359 -0.39395,-0.66712 -0.80737,-0.64859 z m 74.64234,2.35799 c -0.24528,0 -0.50612,0.062 -0.6785,0.18249 -0.46306,0.32439 -0.45136,0.79093 0.0361,1.42908 0.2387,0.31276 0.43391,0.61938 0.43391,0.68135 0,0.062 0.0864,0.27842 0.19197,0.48089 0.1056,0.20247 0.19274,0.46578 0.19274,0.58535 0,0.11952 0.0512,0.24832 0.11205,0.28614 0.10415,0.0644 0.45029,1.44925 0.46844,1.87425 0.006,0.1061 0.055,0.26855 0.11205,0.361 0.0569,0.0925 0.0635,0.57037 0.0139,1.0622 -0.0722,0.71878 -0.0487,0.95685 0.11926,1.21327 0.24515,0.37415 0.2191,0.36947 0.77082,0.13892 0.48671,-0.20336 0.52971,-0.36132 0.66686,-2.45436 0.0646,-0.9853 0.0278,-1.33739 -0.24819,-2.37746 -0.5158,-1.94387 -0.67793,-2.27547 -1.60595,-3.28499 -0.11009,-0.11977 -0.34001,-0.17902 -0.58536,-0.17813 z m -90.67564,1.73248 c -0.66997,0.006 -0.80567,0.0537 -1.34214,0.49335 -1.07169,0.87819 -2.55104,3.52465 -2.70337,4.83643 -0.0859,0.74034 0.12179,2.05535 0.3247,2.05535 0.0648,0 0.11787,0.0798 0.11787,0.17731 0,0.20115 0.89786,0.9707 1.4779,1.26663 0.33305,0.16998 1.16666,0.38143 2.05611,0.52168 1.05101,0.16568 4.20087,-0.1479 4.50111,-0.4482 0.0474,-0.0474 0.39837,-0.23864 0.7803,-0.4255 0.38193,-0.18685 0.69437,-0.41519 0.69437,-0.50739 0,-0.0922 0.0794,-0.23339 0.1763,-0.31382 0.0969,-0.0805 0.21101,-0.36025 0.25338,-0.62172 0.0613,-0.37757 0.0202,-0.53584 -0.19856,-0.76905 -0.34178,-0.36378 -0.57378,-0.37409 -0.68292,-0.0303 -0.10295,0.32439 -1.12816,0.79339 -2.1877,1.00074 -1.09104,0.21354 -2.95125,0.22593 -3.77803,0.0253 -1.37407,-0.33368 -1.91244,-0.87585 -1.74835,-1.76081 0.11344,-0.61159 0.6747,-1.66475 1.04057,-1.95253 0.15094,-0.11875 0.37555,-0.42904 0.49917,-0.68956 0.26843,-0.56557 0.79782,-1.12183 1.08573,-1.14068 0.11401,-0.008 0.36226,-0.006 0.55158,0.009 0.684,0.0443 0.77569,-0.83969 0.14816,-1.42865 -0.26204,-0.24597 -0.45781,-0.30067 -1.06618,-0.29719 z m -12.08101,2.93664 c -0.20892,-0.006 -0.32729,0.0694 -0.51946,0.27392 -0.3421,0.3641 -0.31762,0.55437 0.25679,1.98991 0.15556,0.38876 0.37371,1.04848 0.48475,1.4662 0.28544,1.07415 1.46184,3.31566 1.84308,3.51175 0.44952,0.23125 0.8515,0.19792 1.14396,-0.0945 0.30219,-0.3022 0.32666,-0.66415 0.0767,-1.13676 -0.35695,-0.67496 -0.9406,-2.02196 -1.09432,-2.52581 -0.18926,-0.62007 -0.27602,-0.84486 -0.63411,-1.64193 -0.1517,-0.3376 -0.27589,-0.73054 -0.27589,-0.87306 0,-0.3827 -0.51378,-0.84917 -1.03653,-0.94118 -0.0958,-0.0171 -0.17535,-0.0272 -0.24497,-0.0285 z m 87.42999,2.00678 c -0.3992,0 -0.57499,0.12015 -1.37648,0.94098 -0.50536,0.51751 -1.07522,1.25482 -1.26644,1.63845 -0.58169,1.16724 -0.79346,3.29094 -0.43752,4.38786 0.0983,0.30289 0.21222,0.69519 0.25319,0.87187 0.0968,0.41721 1.04899,1.44413 1.62422,1.75157 0.24744,0.13222 0.47925,0.27918 0.5153,0.32648 0.13007,0.17105 1.4306,0.6207 1.79514,0.6207 0.20526,0 0.40887,0.0575 0.45256,0.12849 0.22195,0.35911 2.82244,0 3.46781,-0.48254 0.70044,-0.52073 0.9031,-1.44685 0.50157,-2.2931 -0.17345,-0.36543 -0.27621,-0.43714 -0.6269,-0.43714 -0.46603,0 -0.65466,0.17275 -0.67787,0.6207 -0.0247,0.4795 -0.24958,0.63481 -1.05322,0.72808 -0.74622,0.0866 -1.86729,-0.062 -2.63944,-0.35057 -0.48374,-0.18066 -1.34296,-0.76766 -1.34656,-0.91986 -0.006,-0.1646 0.41064,-0.4551 0.65643,-0.45984 0.11514,0 0.60672,-0.20538 1.0923,-0.45143 0.48563,-0.24604 0.9425,-0.44851 1.01521,-0.44978 0.19717,-0.006 1.06499,-0.88211 1.15661,-1.17083 0.0436,-0.13792 0,-0.42746 -0.0906,-0.64353 l -0.17029,-0.393 -0.83531,0.0869 c -0.4594,0.0481 -0.89312,0.13039 -0.96381,0.18332 -0.19691,0.14752 -1.36237,0.49955 -1.98169,0.59857 -0.54071,0.0865 -0.55108,0.0814 -0.45161,-0.21942 0.0563,-0.1694 0.10579,-0.4477 0.11085,-0.61849 0.006,-0.17079 0.0815,-0.33463 0.16991,-0.36404 0.0883,-0.0297 0.16061,-0.13393 0.16061,-0.23232 0,-0.0984 0.35234,-0.51289 0.78271,-0.92106 1.16268,-1.10267 1.38526,-1.65654 0.88293,-2.19573 -0.17484,-0.18761 -0.41437,-0.28133 -0.71966,-0.28133 z m -100.05979,0.6534 c -0.19413,0.006 -0.38307,0.0932 -0.56987,0.26868 -0.38623,0.36283 -0.37744,0.79453 0.0367,1.80033 0.18382,0.44643 0.42297,1.04297 0.53129,1.32569 0.10838,0.28272 0.33381,0.81913 0.501,1.19215 0.16725,0.37301 0.30403,0.70879 0.30403,0.74616 0,0.0373 0.17301,0.41645 0.38433,0.84233 0.41558,0.83766 0.68514,1.11576 1.47904,1.52609 0.34248,0.17693 0.64277,0.24111 0.89963,0.19217 0.21202,-0.0405 0.87376,-0.15897 1.47044,-0.2635 0.59661,-0.10446 1.20511,-0.26887 1.35212,-0.36524 0.14709,-0.0963 0.51998,-0.21771 0.82875,-0.26988 0.66256,-0.11192 1.78369,-0.6472 2.09367,-0.99954 0.12046,-0.1369 0.25869,-0.51383 0.30725,-0.83772 0.0816,-0.54438 0.0601,-0.61134 -0.28316,-0.88616 -0.43132,-0.34513 -0.72517,-0.37636 -0.99574,-0.10579 -0.10598,0.10598 -0.31263,0.19274 -0.45902,0.19274 -0.14638,0 -0.26628,0.0493 -0.26628,0.10883 0,0.11059 -2.08266,0.91448 -3.01998,1.16565 -1.36762,0.36656 -1.95506,0.0379 -2.19611,-1.22724 -0.0285,-0.15075 -0.13867,-0.43986 -0.24439,-0.64258 -0.10573,-0.20273 -0.19318,-0.43796 -0.19318,-0.52288 0,-0.0849 -0.20754,-0.62501 -0.46041,-1.20018 -0.25287,-0.57511 -0.42537,-1.08016 -0.38332,-1.12227 0.0424,-0.0417 -0.1094,-0.26824 -0.33653,-0.50259 -0.27273,-0.28132 -0.53072,-0.41962 -0.78031,-0.41525 z m -8.91603,1.8124 0,4.5e-4 c -0.11983,0.006 -0.27431,0.0196 -0.48273,0.0436 -0.80351,0.0909 -1.98408,0.55924 -2.26598,0.89893 -0.0866,0.10433 -0.23074,0.18976 -0.32028,0.18976 -0.0895,0 -0.32831,0.21146 -0.53053,0.46989 -0.20222,0.25844 -0.48981,0.61982 -0.6391,0.8032 -0.84019,1.03109 -1.47227,3.08992 -1.20682,3.9308 0.58706,1.85964 0.65599,2.00508 1.17324,2.47484 0.2917,0.26489 0.65308,0.52067 0.8032,0.56847 0.38376,0.12205 3.17029,0.0971 3.50859,-0.0316 0.15384,-0.0588 0.58756,-0.13969 0.9638,-0.18072 0.856,-0.0933 2.61776,-0.51017 3.66699,-0.86764 0.65808,-0.22422 0.82584,-0.34152 0.95515,-0.66768 0.0863,-0.21759 0.22549,-0.56904 0.30928,-0.78106 0.15543,-0.39344 0.0556,-0.78948 -0.2506,-0.99398 -0.25641,-0.17117 -0.93681,-0.10231 -1.24956,0.12654 -0.55013,0.40241 -0.81894,0.51364 -1.79034,0.7397 -0.52629,0.12249 -1.40195,0.33185 -1.9457,0.46528 -0.54381,0.13342 -1.49801,0.27709 -2.12048,0.31945 -1.0488,0.0714 -1.16464,0.0544 -1.58148,-0.22953 -0.38876,-0.26495 -0.46559,-0.40571 -0.56626,-1.0371 -0.0989,-0.62045 -0.0699,-0.88603 0.1928,-1.76258 0.1701,-0.56765 0.37675,-1.03273 0.45921,-1.03273 0.0824,0 0.16921,-0.0506 0.19279,-0.11161 0.0888,-0.23049 2.02791,-1.43117 2.31417,-1.43294 0.50638,0 0.89811,-0.29739 1.06947,-0.80275 0.1474,-0.4348 0.13773,-0.51624 -0.0962,-0.81363 -0.15328,-0.19489 -0.23378,-0.27343 -0.45364,-0.28436 -0.0329,0 -0.069,0 -0.10902,0 z m 93.95976,1.28453 c -0.0411,0 -0.0866,-6e-5 -0.13678,0 -0.38225,0.0146 -0.60502,0.17263 -1.47486,1.04595 -0.56348,0.56582 -1.02464,1.09262 -1.02464,1.17109 0,0.0784 -0.10838,0.23542 -0.24099,0.34899 -0.34279,0.29347 -0.80212,1.815 -0.8558,2.83483 -0.0653,1.24021 0.21221,1.94552 1.19815,3.0461 0.62032,0.69247 0.93042,0.93498 1.3343,1.04374 0.28942,0.078 0.61962,0.19432 0.73395,0.25862 0.11433,0.0643 0.4102,0.17048 0.65763,0.23593 0.70936,0.18768 2.14375,0.16276 2.6433,-0.0462 0.29606,-0.12369 0.5108,-0.33274 0.62709,-0.6104 0.0973,-0.23225 0.2229,-0.46805 0.2793,-0.52408 0.15113,-0.15024 0.0525,-1.15262 -0.13557,-1.37609 -0.50593,-0.60148 -0.14993,-0.99429 0.9468,-1.04431 0.36555,-0.0164 0.68969,-0.071 0.72042,-0.12071 0.031,-0.05 0.3254,-0.13071 0.65485,-0.18009 0.48235,-0.0723 0.73408,-0.2179 1.2937,-0.74717 0.63917,-0.60445 0.68969,-0.69368 0.62854,-1.11367 -0.0367,-0.25111 -0.0686,-0.49999 -0.0713,-0.55298 -0.008,-0.1598 -0.83779,-0.10858 -1.38849,0.0857 -0.28392,0.10016 -1.14434,0.24491 -1.91219,0.32167 -0.76791,0.0768 -1.82967,0.22998 -2.35938,0.34039 -0.52977,0.11041 -1.16363,0.24092 -1.40859,0.29012 -0.35961,0.0722 -0.46825,0.16946 -0.56424,0.50422 -0.10035,0.34987 -0.0668,0.49335 0.21544,0.91986 0.18395,0.27798 0.56815,0.7437 0.85359,1.03489 0.28544,0.29125 0.51883,0.63942 0.51883,0.77347 0,0.20735 -0.072,0.23409 -0.4819,0.1799 -2.51209,-0.33204 -3.63126,-1.60797 -3.06962,-3.49929 0.20595,-0.69355 0.31067,-0.8608 0.89862,-1.4337 0.57985,-0.56499 0.80939,-0.73882 1.09495,-0.8295 0.3457,-0.10971 0.78688,-0.67439 0.78688,-1.007 0,-0.14329 -0.14588,-0.5096 -0.32426,-0.81401 -0.25325,-0.43207 -0.34867,-0.53021 -0.63771,-0.53793 z m 33.19387,2.82744 c -0.0784,0 -0.16934,0.0139 -0.27892,0.031 -0.64328,0.1 -0.85341,0.34792 -0.85341,1.00738 0,0.50619 0.11951,0.70582 0.57454,0.95938 0.3796,0.21165 1.00087,-0.0847 1.1594,-0.55279 0.0701,-0.2069 0.22909,-0.45155 0.35341,-0.54393 0.27671,-0.20564 0.29321,-0.41045 0.0329,-0.41045 -0.10604,0 -0.31471,-0.12211 -0.46388,-0.27128 -0.16751,-0.1675 -0.28911,-0.22795 -0.52427,-0.21904 z m -45.5827,0.13349 c -0.15808,0.006 -0.31225,0.0525 -0.45825,0.14841 -0.37574,0.24623 -0.44947,0.88818 -0.14114,1.22888 0.10225,0.113 0.37441,0.63816 0.60477,1.16685 0.38263,0.878 0.42095,1.08611 0.44301,2.40251 0.0272,1.62725 -0.0537,1.81563 -0.67192,1.56004 -0.20298,-0.084 -0.39793,-0.16226 -0.43328,-0.17409 -0.21467,-0.072 -0.90911,-0.3696 -1.3494,-0.57833 -0.28272,-0.13399 -0.65858,-0.30466 -0.83532,-0.37909 -0.30441,-0.12817 -1.29307,-0.76386 -2.85811,-1.8377 -0.38635,-0.26507 -0.76879,-0.4819 -0.84979,-0.4819 -0.0811,0 -0.1474,-0.0481 -0.1474,-0.10725 0,-0.0588 -0.32117,-0.32831 -0.71385,-0.59876 -0.87901,-0.60546 -1.50186,-0.64511 -1.95455,-0.12431 -0.16005,0.18413 -0.26091,0.38332 -0.22429,0.44257 0.0367,0.0594 0.0749,0.35872 0.0852,0.66541 0.0101,0.30674 0.066,0.68691 0.12407,0.84499 0.0582,0.15808 0.14265,0.56284 0.18793,0.89956 0.0455,0.33672 0.19096,1.03811 0.32369,1.55859 0.13273,0.52054 0.2081,1.00017 0.16744,1.06587 -0.0405,0.0657 -0.006,0.20273 0.0799,0.3046 0.0994,0.1197 0.14734,0.63379 0.13576,1.45418 -0.0177,1.24552 0.11224,1.90467 0.41526,2.11018 0.14386,0.0976 1.04652,0.0247 1.24994,-0.10124 0.0519,-0.0316 0.16504,-0.43524 0.25199,-0.89634 0.1706,-0.90393 0.10573,-1.94526 -0.21601,-3.46995 -0.10446,-0.49481 -0.20405,-1.07668 -0.22132,-1.29294 -0.0171,-0.21633 -0.0739,-0.46212 -0.12589,-0.54622 -0.1106,-0.17895 0.043,-0.48974 0.16162,-0.32711 0.14253,0.1954 2.64147,1.81899 2.92823,1.90258 0.15265,0.0443 0.34766,0.16536 0.43334,0.26868 0.0857,0.10326 0.31737,0.18774 0.51485,0.18774 0.19748,0 0.37845,0.0449 0.40198,0.10042 0.12843,0.30106 2.39972,1.18013 3.54691,1.37287 l 0.54817,0.0921 0.25344,-0.5729 c 0.13937,-0.31509 0.34987,-0.65282 0.46768,-0.75058 0.39413,-0.32686 0.56455,-0.98575 0.57125,-2.20756 0.009,-1.77225 -0.32154,-2.80296 -1.42649,-4.43863 -0.37972,-0.56215 -0.80155,-0.8682 -1.20157,-0.89096 -0.0228,0 -0.0455,0 -0.0679,0 z m -18.2222,3.6981 c -0.22865,1.2e-4 -0.67875,0.2344 -0.92669,0.48234 -0.2425,0.24244 -0.64922,2.80847 -0.7251,4.57459 -0.0329,0.76683 -0.0888,1.44091 -0.12407,1.49794 -0.0752,0.1216 0,1.508 0.12666,2.24815 0.12906,0.77177 0.33413,1.26 0.63316,1.50718 0.34444,0.28468 0.43587,0.28139 0.95274,-0.0335 0.35639,-0.21721 0.42279,-0.32926 0.3992,-0.67427 -0.0158,-0.22751 -0.0202,-0.68754 -0.0101,-1.02223 l 0.019,-0.60863 0.76747,-0.38737 c 0.42209,-0.21303 0.84303,-0.38731 0.93535,-0.38731 0.0923,0 0.26685,-0.11565 0.38794,-0.25704 0.33268,-0.38857 0.87914,-0.32622 1.4074,0.16061 0.2492,0.22973 0.68849,0.63455 0.97607,0.89963 0.28759,0.26501 0.57303,0.4819 0.63449,0.4819 0.0613,0 0.22745,0.10757 0.36865,0.23915 0.14127,0.13153 0.51365,0.38048 0.82754,0.55317 0.76399,0.42038 1.18962,0.28114 1.48227,-0.48513 l 0.20759,-0.54374 -0.43106,-0.39193 c -0.23719,-0.21569 -0.48374,-0.39375 -0.54798,-0.39578 -0.36467,-0.012 -2.89883,-2.31966 -3.60256,-3.28088 -0.20696,-0.28272 -0.51807,-0.65858 -0.69133,-0.83532 -0.1732,-0.17667 -0.53066,-0.61039 -0.79435,-0.96381 -0.26368,-0.35341 -0.6028,-0.75267 -0.75362,-0.88729 -0.15075,-0.13469 -0.27424,-0.28696 -0.27424,-0.33837 0,-0.17364 -1.05613,-1.1513 -1.24419,-1.1518 l 0,0 z m 0.72207,3.77063 c 0.10086,0.006 0.25755,0.15176 0.53009,0.44693 0.50441,0.54628 0.59332,0.7277 0.41,0.83614 -0.0531,0.0316 -0.33615,0.0967 -0.6293,0.14519 -0.56986,0.0942 -0.75393,-0.0253 -0.63689,-0.41305 0.0373,-0.12305 0.096,-0.3899 0.13108,-0.59294 0.0487,-0.2843 0.0942,-0.42569 0.19502,-0.42227 z m -10.60861,0.50637 c -0.57637,0.0266 -0.80148,0.46407 -0.8381,1.49934 -0.0152,0.42765 -0.1092,0.73496 -0.29157,0.95325 -0.24876,0.29776 -0.36511,0.32508 -1.54069,0.36239 l -1.27169,0.0405 -0.2076,-0.38554 c -0.11414,-0.21208 -0.20949,-0.44339 -0.21183,-0.51409 -0.0101,-0.30706 -0.36796,-0.81951 -0.61906,-0.88691 -1.11095,-0.29815 -1.55302,0.48443 -0.9831,1.74032 0.13981,0.30813 0.25547,0.80193 0.25699,1.09716 0,0.41001 0.0751,0.59345 0.30826,0.77689 0.29929,0.23549 0.85119,1.17514 0.85119,1.44939 0,0.0764 0.11958,0.26678 0.26565,0.42284 0.146,0.15612 0.35727,0.47647 0.46944,0.71201 0.26065,0.54729 0.76292,0.76469 1.02104,0.44201 0.21164,-0.26451 0.14442,-1.74968 -0.0919,-2.03449 -0.078,-0.094 -0.12293,-0.30434 -0.0998,-0.46729 0.0367,-0.25812 0.14114,-0.3089 0.813,-0.39578 1.38684,-0.17921 2.14002,-0.37005 2.31764,-0.58688 0.096,-0.11723 0.28683,-0.35575 0.42386,-0.53015 0.21297,-0.27096 0.27892,-0.29239 0.4544,-0.14676 0.28708,0.23826 2.00881,2.66644 2.00881,2.83306 0,0.0752 0.0474,0.13671 0.10598,0.13671 0.0582,0 0.27241,0.36144 0.4759,0.80319 0.20355,0.44176 0.43068,0.87339 0.5046,0.95901 0.14835,0.1718 0.49474,0.20317 0.93656,0.0847 0.58409,-0.1565 0.64125,-1.48833 0.0957,-2.23247 -0.0777,-0.10598 -0.21101,-0.33729 -0.29612,-0.51402 -0.0851,-0.17668 -0.25521,-0.47129 -0.37814,-0.6546 -0.74021,-1.10381 -1.01136,-1.47992 -1.14953,-1.59431 -0.0854,-0.0707 -0.23592,-0.28715 -0.33457,-0.48096 -0.0986,-0.19375 -0.36302,-0.56967 -0.58731,-0.83532 -0.22435,-0.26558 -0.62652,-0.80098 -0.89375,-1.18968 -0.43062,-0.62645 -0.55361,-0.7201 -1.08313,-0.82368 -0.11243,-0.0221 -0.21594,-0.0354 -0.31104,-0.0398 -0.0417,0 -0.0816,0 -0.12009,0 l 0,-1.9e-4 z m -13.46607,2.0343 c -0.0398,0 -0.0794,0 -0.11844,0 -0.68709,0.0228 -1.24924,0.345 -2.26965,1.14137 -0.76316,0.59559 -1.5441,1.40587 -1.5441,1.60215 0,0.0866 -0.0829,0.32546 -0.18439,0.53072 -0.21588,0.43669 -0.45946,2.0919 -0.32047,2.17783 0.0525,0.0322 0.0684,0.16157 0.0354,0.28696 -0.12881,0.49253 0.86415,1.7885 1.69916,2.21799 0.31313,0.16105 0.56929,0.34165 0.56929,0.40122 0,0.0594 0.10408,0.10819 0.23131,0.10819 0.12722,0 0.28626,0.0525 0.35341,0.11666 0.18698,0.17858 1.06498,0.42102 1.92123,0.53054 0.91044,0.11641 4.49466,0.0259 5.34262,-0.13494 0.95553,-0.18123 1.69176,-0.51795 2.21502,-1.01301 0.43682,-0.41336 0.48064,-0.51068 0.40697,-0.90639 -0.13842,-0.74445 -0.82419,-1.02641 -1.27764,-0.52535 -0.45218,0.49967 -1.80355,0.69817 -4.64527,0.68255 -1.84023,-0.0101 -3.50606,-0.30814 -3.97621,-0.71145 -1.21914,-1.04582 -1.33145,-1.36736 -0.81122,-2.32403 0.0711,-0.13058 0.10104,-0.26564 0.0667,-0.29998 -0.12211,-0.1221 1.16192,-1.45456 1.40176,-1.45456 0.0826,0 0.30239,-0.11958 0.48811,-0.26565 0.297,-0.23365 0.38901,-0.24712 0.76367,-0.11167 0.36625,0.13241 0.51074,0.11667 1.02907,-0.11262 0.49575,-0.21929 0.6028,-0.32629 0.6028,-0.60161 0,-0.66604 -0.31509,-1.03267 -1.02868,-1.19739 -0.36632,-0.0845 -0.67098,-0.13437 -0.9506,-0.13855 z m -23.87005,7.07067 c -0.2511,0.006 -0.39572,0.0777 -0.64113,0.25243 -0.23403,0.16662 -0.56044,0.28544 -0.72529,0.26381 -0.62519,-0.0819 -1.50787,0.91651 -1.81962,2.0582 -0.17168,0.62854 -0.0828,1.90656 0.13254,1.90656 0.0641,0 0.11642,0.0898 0.11642,0.19963 0,0.67255 1.92268,2.33946 2.72341,2.36115 0.19021,0.006 0.37466,0.0563 0.41007,0.11344 0.0354,0.0575 0.34102,0.1185 0.67907,0.13595 0.33805,0.0177 0.64302,0.0607 0.67793,0.0954 0.0348,0.0348 0.29669,0.0228 0.58169,-0.0266 0.28499,-0.0493 0.60483,-0.0876 0.71081,-0.0844 0.30769,0.009 1.43262,-0.33577 1.72489,-0.52895 0.32597,-0.21544 1.02736,-1.60235 1.21339,-2.39928 0.15802,-0.67705 0.09,-1.03179 -0.32508,-1.69517 -0.16498,-0.26362 -0.29999,-0.53047 -0.29999,-0.59295 0,-0.0626 -0.24579,-0.2774 -0.54615,-0.47766 -0.30042,-0.20027 -0.69076,-0.49348 -0.8675,-0.65163 -0.36277,-0.32464 -1.29003,-0.66945 -2.01817,-0.75039 -0.26824,-0.0297 -0.81508,-0.0938 -1.21523,-0.14215 -0.15991,-0.0196 -0.28853,-0.0322 -0.39742,-0.0367 -0.0405,0 -0.0788,0 -0.11464,0 z m -4.9918,0.0303 c -0.22714,0 -0.51384,0.006 -0.80522,0.0209 -0.95338,0.0544 -1.33759,0.0957 -2.40896,0.25825 -0.17673,0.0265 -0.61153,0.0766 -0.96646,0.11059 -1.11235,0.10661 -4.33202,0.71726 -5.13781,0.9745 -0.42411,0.13538 -1.08914,0.30561 -1.4779,0.37832 -0.38876,0.0727 -1.34289,0.29259 -2.12042,0.48855 l -1.41359,0.35619 -0.0405,0.49658 c -0.0841,1.02477 0.65365,1.31115 2.4911,0.96703 0.41943,-0.0785 0.90702,-0.14215 1.0837,-0.14215 0.17674,0 0.40805,-0.0716 0.51409,-0.15985 0.10598,-0.0882 0.5397,-0.23232 0.96381,-0.32028 0.42411,-0.088 1.00238,-0.21696 1.2851,-0.2867 0.28272,-0.0698 0.68754,-0.13646 0.89956,-0.14803 0.33356,-0.0183 0.39502,0.031 0.45585,0.36448 0.0648,0.35531 0.20589,0.71663 0.71379,1.82884 0.10433,0.2284 0.18761,0.44536 0.18515,0.48191 0,0.0367 0.10888,0.3646 0.24737,0.72908 0.13854,0.36455 0.22473,0.70658 0.19159,0.76026 -0.0329,0.0537 -0.009,0.11686 0.0531,0.14057 0.14145,0.0538 0.91645,1.58262 0.91645,1.80773 0,0.0911 0.2394,0.41235 0.53192,0.71366 0.56196,0.57903 0.81205,0.61349 1.30496,0.18034 0.33526,-0.29467 0.18729,-1.28618 -0.35841,-2.40156 -0.24206,-0.49474 -0.48026,-1.06915 -0.52933,-1.2765 -0.0493,-0.20734 -0.16675,-0.52534 -0.26141,-0.70676 -0.0947,-0.18142 -0.17288,-0.44845 -0.17288,-0.59339 0,-0.14487 -0.0512,-0.31838 -0.11224,-0.38553 -0.17807,-0.19508 -0.5311,-1.35542 -0.5311,-1.74551 0,-0.31231 0.0601,-0.36688 0.4819,-0.43758 0.26501,-0.0443 0.82887,-0.16997 1.25298,-0.27886 0.42404,-0.10895 1.07219,-0.24319 1.44008,-0.29859 0.76823,-0.11565 1.57111,-0.35708 1.80482,-0.54254 0.23416,-0.18591 0.20848,-1.20682 -0.0329,-1.29939 -0.0531,-0.0202 -0.22068,-0.0322 -0.44776,-0.0348 z m 5.07672,1.36983 c 0.25192,0 0.54457,0.11016 0.93472,0.31788 0.33198,0.17668 0.70917,0.32129 0.83854,0.32129 0.28791,0 1.25254,0.55304 1.56302,0.89615 0.28524,0.31516 0.47046,1.26721 0.34133,1.75455 -0.0556,0.21 -0.24313,0.43979 -0.43473,0.53293 -0.56575,0.27494 -3.0521,0.29195 -3.0521,0.0209 0,-0.0662 -0.13317,-0.12027 -0.29619,-0.12027 -0.49544,0 -1.15585,-0.58732 -1.33227,-1.18494 -0.10567,-0.35784 -0.11635,-0.58896 -0.0316,-0.69089 0.0699,-0.0843 0.11825,-0.20285 0.10743,-0.26331 -0.0569,-0.31705 0.0531,-0.56316 0.47046,-1.05056 0.3108,-0.36309 0.56765,-0.53622 0.89154,-0.5337 z m 42.94629,15.89116 c -0.27298,0.006 -0.56367,0.0959 -0.82893,0.26805 -0.43764,0.2841 -0.40628,1.11993 0.0556,1.48909 0.18971,0.15157 0.43543,0.31484 0.54615,0.3629 0.34134,0.14809 0.84708,0.1142 1.10464,-0.0741 0.18843,-0.13779 0.23731,-0.30966 0.21018,-0.73895 -0.0506,-0.79865 -0.10654,-0.92821 -0.50296,-1.16243 -0.17092,-0.10098 -0.37263,-0.14866 -0.58491,-0.14455 z m -8.77147,1.95316 c -0.46622,-0.012 -0.80503,0.26887 -0.89438,0.79757 -0.083,0.49145 -0.055,0.56379 0.40002,1.0297 0.26912,0.27563 0.5464,0.50119 0.61602,0.50119 0.0696,0 0.31718,-0.13014 0.5502,-0.28917 0.39401,-0.26887 0.42271,-0.33678 0.40861,-0.96925 -0.0133,-0.609 -0.0531,-0.6998 -0.37725,-0.86744 -0.25319,-0.13095 -0.49133,-0.1971 -0.70322,-0.2026 z m 9.97102,6.50701 c -0.382,0.019 -0.68287,0.27013 -0.91184,0.75722 -0.19039,0.40508 -0.49088,0.689 -1.28649,1.21523 -0.89811,0.59402 -1.15389,0.69943 -1.89593,0.78195 -0.94826,0.10535 -2.03803,0.0913 -2.33567,-0.0297 -0.10604,-0.043 -0.48899,-0.16276 -0.851,-0.26602 -0.36201,-0.10327 -0.8362,-0.27988 -1.05379,-0.39237 -0.21759,-0.11256 -0.48608,-0.20462 -0.59655,-0.20462 -0.21303,0 -0.95831,-0.74553 -0.96463,-0.96502 -0.007,-0.2413 -0.51257,-0.45471 -0.87269,-0.36827 -0.625,0.14993 -1.00681,0.73162 -0.81262,1.23812 0.32054,0.8362 2.59632,2.37455 3.87136,2.61699 0.24453,0.0462 0.56026,0.14417 0.70158,0.21708 0.14139,0.0729 0.60401,0.17263 1.02812,0.22145 1.1661,0.13424 1.35497,0.12906 2.12042,-0.0575 1.01768,-0.2485 1.70086,-0.54956 2.61396,-1.1518 1.48637,-0.98037 1.97928,-1.45501 2.05636,-1.98048 0.0386,-0.26242 0.10882,-0.66516 0.15625,-0.89514 0.0806,-0.39116 0.055,-0.43094 -0.39496,-0.61906 -0.20791,-0.0869 -0.39824,-0.12615 -0.57188,-0.11748 z"
     id="path3340" />
</svg>
