<svg width="1432" height="1000">
  <defs>
    <g id="grouped-triangle">
      <polygon id="background-triangle" fill="white" stroke="black" stroke-width="1" points="75,0
                     0,130
                     150,130"></polygon>
    <path class="symbol" d="M0,-25.813333617801195L5.795454481587528,-7.976758769370712L24.549939144510578,-7.976758769370714L9.377242331461522,3.046850729840828L15.172696813049058,20.883425578271307L1.7763568394002505e-15,9.859816079059767L-15.17269681304905,20.88342557827131L-9.377242331461522,3.046850729840829L-24.54993914451058,-7.976758769370708L-5.79545448158753,-7.9767587693707105Z" fill="#1F6B63" stroke="black" stroke-width="1" opacity="0" transform="translate(40.359562193309145,126.37103631340065) rotate(325)"></path><path class="symbol" d="M-15.676415406590882,-15.676415406590882h31.352830813181765v31.352830813181765h-31.352830813181765Z" fill="#B82A39" stroke="black" stroke-width="1" opacity="0" transform="translate(58.156523719359654,47.72099099193834) rotate(49)"></path><path class="symbol" d="M8.12710634673685,4.692187037021237L8.12710634673685,20.94639973049494L-8.12710634673685,20.94639973049494L-8.12710634673685,4.692187037021236L-22.20366745780056,-3.4349193097156148L-14.076561111063707,-17.511480420779325L0,-9.384374074042473L14.076561111063707,-17.511480420779325L22.20366745780056,-3.4349193097156148Z" fill="#1F6B63" stroke="black" stroke-width="1" opacity="0" transform="translate(45.787414867588794,120.73670552232909) rotate(36)"></path><path class="symbol" d="M9.722314047495319,5.613180632467503L9.722314047495319,25.05780872745814L-9.722314047495319,25.05780872745814L-9.72231404749532,5.6131806324675L-26.561855944897825,-4.109133415027818L-16.83954189740251,-20.948675312430325L8.881784197001252e-16,-11.226361264935004L16.83954189740251,-20.948675312430325L26.561855944897825,-4.109133415027818Z" fill="#73343A" stroke="black" stroke-width="1" opacity="0" transform="translate(38.67061178268233,125.58515662251764) rotate(300)"></path><path class="symbol" d="M0,-30.099118161256538L6.757673062389436,-9.301139027527888L28.62596246200083,-9.30113902752789L10.934144699805696,3.5527189744275094L17.691817762195136,24.350698108156156L8.881784197001252e-16,11.496840106200757L-17.691817762195132,24.35069810815616L-10.934144699805696,3.55271897442751L-28.62596246200083,-9.301139027527883L-6.757673062389437,-9.301139027527888Z" fill="#ed6409" stroke="black" stroke-width="1" opacity="0" transform="translate(94.42326776709312,78.9246780008495) rotate(226)"></path><path class="symbol" d="M-15.644487847162015,-15.644487847162015h31.28897569432403v31.28897569432403h-31.28897569432403Z" fill="#ed6409" stroke="black" stroke-width="1" opacity="0.8" transform="translate(100.67635296748871,109.20462218689535) rotate(271)"></path><path class="symbol" d="M7.551151439920065,4.359659316529481L7.551151439920065,19.461962196369612L-7.551151439920065,19.461962196369612L-7.551151439920066,4.359659316529479L-20.630129389508504,-3.191492123390587L-13.07897794958844,-16.270470072979023L4.440892098500626e-16,-8.71931863305896L13.07897794958844,-16.270470072979023L20.630129389508504,-3.191492123390587Z" fill="#B82A39" stroke="black" stroke-width="1" opacity="0" transform="translate(6.947410596896654,126.85562207954777) rotate(138)"></path><path class="symbol" d="M0,-28.98338740230541L6.507175899839721,-8.956359261865133L27.564839453269425,-8.956359261865133L10.528831776714851,3.42102482257756L17.036007676554576,23.448052963017837L1.7763568394002505e-15,11.070668878575145L-17.036007676554572,23.44805296301784L-10.52883177671485,3.421024822577562L-27.56483945326943,-8.956359261865128L-6.507175899839725,-8.956359261865131Z" fill="#B82A39" stroke="black" stroke-width="1" opacity="0" transform="translate(106.52340369013014,129.2503904293085) rotate(218)"></path><path class="symbol" d="M0,-33.24226850305111L19.192432668710374,0L0,33.24226850305111L-19.192432668710374,0Z" fill="#1F6B63" stroke="black" stroke-width="1" opacity="0.8" transform="translate(100.49100887432813,92.02633866647466) rotate(12)"></path><path class="symbol" d="M7.68024030258529,4.43418880613863L7.68024030258529,19.794669411309208L-7.68024030258529,19.794669411309208L-7.68024030258529,4.434188806138629L-20.982806721001175,-3.2460514964466594L-13.302566418415886,-16.548617914862547L0,-8.86837761227726L13.302566418415886,-16.548617914862547L20.982806721001175,-3.2460514964466594Z" fill="#B82A39" stroke="black" stroke-width="1" opacity="0.8" transform="translate(70.23393066209103,88.32556158154674) rotate(14)"></path><path class="symbol" d="M-15.98436736314578,-15.98436736314578h31.96873472629156v31.96873472629156h-31.96873472629156Z" fill="#B82A39" stroke="black" stroke-width="1" opacity="0.8" transform="translate(78.24461398517101,89.42976471637121) rotate(184)"></path><path class="symbol" d="M0,-31.189227241949734L7.002417799766785,-9.638001259184536L29.662717806666613,-9.638001259184538L11.330150003449914,3.6813888973942084L18.332567803216705,25.232614880159403L1.7763568394002505e-15,11.913224723580655L-18.332567803216698,25.232614880159407L-11.330150003449912,3.681388897394209L-29.662717806666617,-9.638001259184533L-7.002417799766786,-9.638001259184536Z" fill="#B82A39" stroke="black" stroke-width="1" opacity="0" transform="translate(125.9969129147373,116.77268669054715) rotate(254)"></path><path class="symbol" d="M0,-34.532839168118976L19.937543989595543,0L0,34.532839168118976L-19.937543989595543,0Z" fill="#8A9663" stroke="black" stroke-width="1" opacity="0" transform="translate(47.52556650695034,109.20578517917836) rotate(226)"></path><path class="symbol" d="M-13.738631664034086,-13.738631664034086h27.477263328068172v27.477263328068172h-27.477263328068172Z" fill="#1F6B63" stroke="black" stroke-width="1" opacity="0.8" transform="translate(105.46284158165662,110.24687332175378) rotate(209)"></path><path class="symbol" d="M-17.613914953808536,-17.613914953808536h35.22782990761707v35.22782990761707h-35.22782990761707Z" fill="#1F6B63" stroke="black" stroke-width="1" opacity="0" transform="translate(35.726129855696215,129.94341314750446) rotate(193)"></path><path class="symbol" d="M7.67549794936832,4.4314508072322205L7.67549794936832,19.78244670596886L-7.67549794936832,19.78244670596886L-7.67549794936832,4.43145080723222L-20.96985037106498,-3.2440471421360995L-13.294352421696658,-16.53839956383276L0,-8.862901614464441L13.294352421696658,-16.53839956383276L20.96985037106498,-3.2440471421360995Z" fill="#8A9663" stroke="black" stroke-width="1" opacity="0" transform="translate(56.64993230699263,121.88268271825928) rotate(246)"></path><path class="symbol" d="M0,-32.8623443856216L18.973083377240815,0L0,32.8623443856216L-18.973083377240815,0Z" fill="#ed6409" stroke="black" stroke-width="1" opacity="0" transform="translate(54.66120541392233,112.97522662613865) rotate(324)"></path><path class="symbol" d="M-16.0312195418814,-16.0312195418814h32.0624390837628v32.0624390837628h-32.0624390837628Z" fill="#73343A" stroke="black" stroke-width="1" opacity="0" transform="translate(79.66755956580745,117.09797957265405) rotate(202)"></path><path class="symbol" d="M-16.80029761641144,-16.80029761641144h33.60059523282288v33.60059523282288h-33.60059523282288Z" fill="#73343A" stroke="black" stroke-width="1" opacity="0" transform="translate(41.68787707302623,77.83531555439484) rotate(24)"></path><path class="symbol" d="M0,-28.578981451647127L24.750123951410686,14.289490725823564L-24.750123951410686,14.289490725823564Z" fill="#ed6409" stroke="black" stroke-width="1" opacity="0" transform="translate(5.240284225492033,121.87962783548619) rotate(266)"></path><path class="symbol" d="M0,-31.549197518842135L27.32240652033027,15.774598759421067L-27.32240652033027,15.774598759421067Z" fill="#ed6409" stroke="black" stroke-width="1" opacity="0" transform="translate(48.9724954806877,104.05892706334461) rotate(152)"></path><path class="symbol" d="M0,-26.087951278863848L5.85710998792752,-8.061620293594572L24.811116060553946,-8.061620293594572L9.477003036313214,3.079264947757219L15.334113024240738,21.105595933026493L1.7763568394002505e-15,9.964710691674703L-15.33411302424073,21.105595933026496L-9.477003036313214,3.0792649477572214L-24.81111606055395,-8.061620293594567L-5.857109987927522,-8.06162029359457Z" fill="#ed6409" stroke="black" stroke-width="1" opacity="0" transform="translate(102.73586499879407,65.47609452391464) rotate(306)"></path><path class="symbol" d="M0,-24.98808348250382L14.426876725156422,0L0,24.98808348250382L-14.426876725156422,0Z" fill="#B82A39" stroke="black" stroke-width="1" opacity="0" transform="translate(47.76477512421765,77.86444487023537) rotate(273)"></path><path class="symbol" d="M-14.966629547095765,-14.966629547095765h29.93325909419153v29.93325909419153h-29.93325909419153Z" fill="#B82A39" stroke="black" stroke-width="1" opacity="0" transform="translate(45.78088644978367,123.18113679304687) rotate(11)"></path><path class="symbol" d="M-16.859715300087366,-16.859715300087366h33.71943060017473v33.71943060017473h-33.71943060017473Z" fill="#73343A" stroke="black" stroke-width="1" opacity="0" transform="translate(85.50931410397044,127.83835013906553) rotate(88)"></path><path class="symbol" d="M0,-32.59774793514893L18.8203185453338,0L0,32.59774793514893L-18.8203185453338,0Z" fill="#8A9663" stroke="black" stroke-width="1" opacity="0" transform="translate(115.40316039131318,89.48812205859045) rotate(346)"></path><path class="symbol" d="M0,-28.968579811014575L16.725017351930422,0L0,28.968579811014575L-16.725017351930422,0Z" fill="#73343A" stroke="black" stroke-width="1" opacity="0" transform="translate(56.76686589900065,118.15020181879609) rotate(316)"></path><path class="symbol" d="M9.977380995646763,5.760443603644116L9.977380995646763,25.715205594937643L-9.977380995646763,25.715205594937643L-9.977380995646763,5.760443603644115L-27.258711806579107,-4.216937392002649L-17.281330810932346,-21.498268202934995L0,-11.520887207288231L17.281330810932346,-21.498268202934995L27.258711806579107,-4.216937392002649Z" fill="#8A9663" stroke="black" stroke-width="1" opacity="0" transform="translate(69.23209885696069,12.162600145442784) rotate(360)"></path><path class="symbol" d="M-15.604486534327235,-15.604486534327235h31.20897306865447v31.20897306865447h-31.20897306865447Z" fill="#73343A" stroke="black" stroke-width="1" opacity="0.8" transform="translate(47.024563603386966,107.80603769628571) rotate(213)"></path><path class="symbol" d="M-14.33527118683145,-14.33527118683145h28.6705423736629v28.6705423736629h-28.6705423736629Z" fill="#ed6409" stroke="black" stroke-width="1" opacity="0.8" transform="translate(73.179184358351,72.78290122656952) rotate(215)"></path><path class="symbol" d="M0,-32.183324609589185L18.581051126763423,0L0,32.183324609589185L-18.581051126763423,0Z" fill="#73343A" stroke="black" stroke-width="1" opacity="0.8" transform="translate(84.14025616335974,84.3860044638096) rotate(69)"></path><path class="symbol" d="M0,-25.968155776132484L22.489082591562337,12.984077888066242L-22.489082591562337,12.984077888066242Z" fill="#8A9663" stroke="black" stroke-width="1" opacity="0" transform="translate(11.992863848884976,124.37195313300933) rotate(301)"></path><path class="symbol" d="M0,-26.632213683797584L15.37611573945617,0L0,26.632213683797584L-15.37611573945617,0Z" fill="#8A9663" stroke="black" stroke-width="1" opacity="0" transform="translate(33.58780979174091,101.70980549559103) rotate(264)"></path><path class="symbol" d="M0,-28.240275704047278L24.456796169581416,14.120137852023639L-24.456796169581416,14.120137852023639Z" fill="#ed6409" stroke="black" stroke-width="1" opacity="0" transform="translate(87.79814017832567,24.682997589777187) rotate(335)"></path><path class="symbol" d="M0,-30.50718987277715L26.420001427900367,15.253594936388575L-26.420001427900367,15.253594936388575Z" fill="#73343A" stroke="black" stroke-width="1" opacity="0" transform="translate(69.94031752083922,129.1983883836941) rotate(360)"></path><path class="symbol" d="M0,-25.579880865273314L22.152826655106157,12.789940432636657L-22.152826655106157,12.789940432636657Z" fill="#ed6409" stroke="black" stroke-width="1" opacity="0" transform="translate(16.096025300574674,105.95253780252521) rotate(144)"></path><path class="symbol" d="M0,-31.26054960181644L7.018430667234699,-9.660041080462275L29.73054940177539,-9.660041080462276L11.356059367270346,3.689807360016331L18.37449003450505,25.290315881370493L1.7763568394002505e-15,11.940467440891886L-18.374490034505044,25.290315881370496L-11.356059367270344,3.6898073600163315L-29.730549401775395,-9.66004108046227L-7.018430667234702,-9.660041080462275Z" fill="#73343A" stroke="black" stroke-width="1" opacity="0" transform="translate(65.43212195021111,122.06582188565957) rotate(5)"></path><path class="symbol" d="M0,-32.81692706711556L28.420292514263224,16.40846353355778L-28.420292514263224,16.40846353355778Z" fill="#1F6B63" stroke="black" stroke-width="1" opacity="0" transform="translate(73.33700219316668,120.89385407326955) rotate(38)"></path><path class="symbol" d="M0,-26.756575524441388L23.171874122443178,13.378287762220694L-23.171874122443178,13.378287762220694Z" fill="#1F6B63" stroke="black" stroke-width="1" opacity="0.8" transform="translate(71.16161083344937,101.97128933291214) rotate(59)"></path><path class="symbol" d="M-16.926310879810757,-16.926310879810757h33.85262175962151v33.85262175962151h-33.85262175962151Z" fill="#B82A39" stroke="black" stroke-width="1" opacity="0" transform="translate(43.15723160509761,90.18988913175625) rotate(195)"></path><path class="symbol" d="M7.200659852058161,4.15730290392871L7.200659852058161,18.55862260804503L-7.200659852058161,18.55862260804503L-7.200659852058161,4.157302903928709L-19.672568563844287,-3.0433569481294507L-12.471908711786128,-15.515265659915581L0,-8.31460580785742L12.471908711786128,-15.515265659915581L19.672568563844287,-3.0433569481294507Z" fill="#ed6409" stroke="black" stroke-width="1" opacity="0" transform="translate(23.67968736709122,103.53200961135896) rotate(210)"></path><path class="symbol" d="M9.055271882724051,5.228063659075981L9.055271882724051,23.338607424524085L-9.055271882724051,23.338607424524085L-9.055271882724051,5.22806365907598L-24.739462859951992,-3.8272082236480722L-15.684190977227942,-19.511399200876014L0,-10.45612731815196L15.684190977227942,-19.511399200876014L24.739462859951992,-3.8272082236480722Z" fill="#73343A" stroke="black" stroke-width="1" opacity="0.8" transform="translate(98.08671300751405,102.68521308209797) rotate(222)"></path><path class="symbol" d="M0,-24.866486247600186L14.356672528852094,0L0,24.866486247600186L-14.356672528852094,0Z" fill="#1F6B63" stroke="black" stroke-width="1" opacity="0" transform="translate(44.9396782472959,122.73756158852485) rotate(64)"></path><path class="symbol" d="M0,-30.582796407248207L17.65698573829627,0L0,30.582796407248207L-17.65698573829627,0Z" fill="#1F6B63" stroke="black" stroke-width="1" opacity="0" transform="translate(99.45872407274979,50.41753840894453) rotate(225)"></path><path class="symbol" d="M9.222607382263039,5.324674854779796L9.222607382263039,23.769889619305875L-9.222607382263039,23.769889619305875L-9.222607382263039,5.324674854779795L-25.196631946602423,-3.8979325274832446L-15.974024564339386,-19.87195709182263L0,-10.64934970955959L15.974024564339386,-19.87195709182263L25.196631946602423,-3.8979325274832446Z" fill="#1F6B63" stroke="black" stroke-width="1" opacity="0" transform="translate(13.047065366891495,108.1412402538224) rotate(308)"></path><path class="symbol" d="M-16.140012391568973,-16.140012391568973h32.28002478313795v32.28002478313795h-32.28002478313795Z" fill="#B82A39" stroke="black" stroke-width="1" opacity="0.8" transform="translate(40.02176982058381,96.56264105251043) rotate(210)"></path><path class="symbol" d="M0,-29.621797635463416L6.6505079274510415,-9.15363887329383L28.17200366558385,-9.153638873293831L10.760747869066407,3.4963789288559495L17.41125579651745,23.964537691025534L2.6645352591003757e-15,11.314519888875758L-17.411255796517445,23.964537691025537L-10.760747869066403,3.4963789288559517L-28.172003665583855,-9.153638873293824L-6.650507927451043,-9.153638873293827Z" fill="#73343A" stroke="black" stroke-width="1" opacity="0" transform="translate(17.923968036766937,114.25684046528974) rotate(199)"></path><path class="symbol" d="M0,-33.46297725985061L19.319858928861073,0L0,33.46297725985061L-19.319858928861073,0Z" fill="#B82A39" stroke="black" stroke-width="1" opacity="0" transform="translate(90.4572514853831,124.99061751502123) rotate(291)"></path><path class="symbol" d="M8.426255178348253,4.864900695479842L8.426255178348253,21.71741105217635L-8.426255178348253,21.71741105217635L-8.426255178348253,4.864900695479841L-23.020957264787775,-3.5613544828684116L-14.594702086439524,-18.156056569307935L0,-9.729801390959684L14.594702086439524,-18.156056569307935L23.020957264787775,-3.5613544828684116Z" fill="#73343A" stroke="black" stroke-width="1" opacity="0" transform="translate(86.63084734890305,47.490399762803655) rotate(316)"></path><path class="symbol" d="M0,-27.322177268686715L6.134210987353568,-8.443017099349078L25.98493473075582,-8.44301709934908L9.925361871701124,3.2249455643547993L16.0595728590547,22.104105733692435L8.881784197001252e-16,10.436143069988557L-16.059572859054693,22.10410573369244L-9.925361871701124,3.224945564354801L-25.984934730755825,-8.443017099349074L-6.134210987353569,-8.443017099349078Z" fill="#8A9663" stroke="black" stroke-width="1" opacity="0.8" transform="translate(87.86440440621809,80.95429487217822) rotate(300)"></path><path class="symbol" d="M7.661253276498761,4.423226641516463L7.661253276498761,19.745733194513985L-7.661253276498761,19.745733194513985L-7.661253276498762,4.423226641516462L-20.93093320104815,-3.2380266349822993L-13.269679924549386,-16.507706559531684L4.440892098500626e-16,-8.846453283032925L13.269679924549386,-16.507706559531684L20.93093320104815,-3.2380266349822993Z" fill="#B82A39" stroke="black" stroke-width="1" opacity="0" transform="translate(33.12655449221714,126.1058446217114) rotate(138)"></path><path class="symbol" d="M10.093485336722503,5.827476476218279L10.093485336722503,26.014447149663287L-10.093485336722503,26.014447149663287L-10.093485336722505,5.827476476218276L-27.575914765377338,-4.266008860504227L-17.482429428654836,-21.74843828915906L8.881784197001252e-16,-11.654952952436556L17.482429428654836,-21.74843828915906L27.575914765377338,-4.266008860504227Z" fill="#B82A39" stroke="black" stroke-width="1" opacity="0" transform="translate(68.31333677082903,18.30135808227067) rotate(119)"></path></g>

  <g id="unrotated-hexagon"> 
    <g id="half-hexagon-1">
      <use xmlns:xlink="http://www.w3.org/1999/xlink" xlink:href="#grouped-triangle" transform="translate(-75)"></use>
      <use xmlns:xlink="http://www.w3.org/1999/xlink" xlink:href="#grouped-triangle" transform="rotate(120) translate(-75)"></use> 
      <use xmlns:xlink="http://www.w3.org/1999/xlink" xlink:href="#grouped-triangle" transform="rotate(240) translate(-75)"></use> 
    </g>
    <g id="half-hexagon-2">
      <use xmlns:xlink="http://www.w3.org/1999/xlink" xlink:href="#half-hexagon-1" transform="rotate(60) scale(-1,1)"></use> 
    </g>
  </g>

  <g id="hexagon">
    <use xmlns:xlink="http://www.w3.org/1999/xlink" xlink:href="#unrotated-hexagon" transform="rotate(30)">
  </use></g>
  </defs>

<!--  <g id="kaleidoscope">-->
<!--    <use xlink:href="#hexagon" transform="translate(131, 150)"/>-->
<!--    <use xlink:href="#hexagon" transform="translate(391, 150)"/>-->
<!--    <use xlink:href="#hexagon" transform="translate(651, 150)"/>-->
<!--    <use xlink:href="#hexagon" transform="translate(911, 150)"/>-->
<!--    <use xlink:href="#hexagon" transform="translate(261, 375)"/>-->
<!--    <use xlink:href="#hexagon" transform="translate(521, 375)"/>-->
<!--    <use xlink:href="#hexagon" transform="translate(781, 375)"/>-->
<!--    <use xlink:href="#hexagon" transform="translate(1041, 375)"/>-->
<!--  </g>-->

  <g id="kaleidoscope">
    <use xmlns:xlink="http://www.w3.org/1999/xlink" xlink:href="#hexagon" transform="translate(390, 150)"></use>
    <use xmlns:xlink="http://www.w3.org/1999/xlink" xlink:href="#hexagon" transform="translate(910, 150)"></use>
    <use xmlns:xlink="http://www.w3.org/1999/xlink" xlink:href="#hexagon" transform="translate(260, 375)"></use>
    <use xmlns:xlink="http://www.w3.org/1999/xlink" xlink:href="#hexagon" transform="translate(520, 375)"></use>
    <use xmlns:xlink="http://www.w3.org/1999/xlink" xlink:href="#hexagon" transform="translate(780, 375)"></use>
    <use xmlns:xlink="http://www.w3.org/1999/xlink" xlink:href="#hexagon" transform="translate(1040, 375)"></use>
    <use xmlns:xlink="http://www.w3.org/1999/xlink" xlink:href="#hexagon" transform="translate(1300, 375)"></use>
    <use xmlns:xlink="http://www.w3.org/1999/xlink" xlink:href="#hexagon" transform="translate(1170, 600)"></use>
    <use xmlns:xlink="http://www.w3.org/1999/xlink" xlink:href="#hexagon" transform="translate(650, 600)"></use>
  </g>


</svg>
