<?xml version="1.0" encoding="UTF-8" standalone="no"?>
<svg
   xmlns:dc="http://purl.org/dc/elements/1.1/"
   xmlns:cc="http://creativecommons.org/ns#"
   xmlns:rdf="http://www.w3.org/1999/02/22-rdf-syntax-ns#"
   xmlns:svg="http://www.w3.org/2000/svg"
   xmlns="http://www.w3.org/2000/svg"
   xmlns:xlink="http://www.w3.org/1999/xlink"
   xmlns:sodipodi="http://sodipodi.sourceforge.net/DTD/sodipodi-0.dtd"
   xmlns:inkscape="http://www.inkscape.org/namespaces/inkscape"
   width="260"
   height="301"
   id="svg2"
   version="1.1"
   inkscape:version="0.91 r13725"
   sodipodi:docname="website_background_5.svg">
  <metadata
     id="metadata153">
    <rdf:RDF>
      <cc:Work
         rdf:about="">
        <dc:format>image/svg+xml</dc:format>
        <dc:type
           rdf:resource="http://purl.org/dc/dcmitype/StillImage" />
        <dc:title></dc:title>
      </cc:Work>
    </rdf:RDF>
  </metadata>
  <sodipodi:namedview
     pagecolor="#ffffff"
     bordercolor="#666666"
     borderopacity="1"
     objecttolerance="10"
     gridtolerance="10"
     guidetolerance="10"
     inkscape:pageopacity="0"
     inkscape:pageshadow="2"
     inkscape:window-width="3062"
     inkscape:window-height="1752"
     id="namedview151"
     showgrid="false"
     inkscape:zoom="1.7509311"
     inkscape:cx="651"
     inkscape:cy="376"
     inkscape:window-x="138"
     inkscape:window-y="48"
     inkscape:window-maximized="1"
     inkscape:current-layer="kaleidoscope" />
  <defs
     id="defs4">
    <g
       id="grouped-triangle">
      <polygon
         id="background-triangle"
         fill="#695e53"
         stroke="black"
         stroke-width="1"
         points="75,0                      0,130                      150,130" />
      <path
         class="symbol"
         
         d="M0,-30.75223147891234L17.75480912253172,0L0,30.75223147891234L-17.75480912253172,0Z"
         fill="#ed6409"
         stroke="black"
         stroke-width="1"
         opacity="0.8"
         transform="translate(56.83358286220708,112.48425377050653) rotate(80)"
         id="path20" />
      <path
         class="symbol"
                  
         d="M9.782052330328963,5.647670546142433L9.782052330328963,25.211775206800358L-9.782052330328963,25.211775206800358L-9.782052330328963,5.647670546142432L-26.72506396875626,-4.13438178418653L-16.943011638427294,-21.077393422613827L0,-11.295341092284865L16.943011638427294,-21.077393422613827L26.72506396875626,-4.13438178418653Z"
         fill="#B82A39"
         stroke="black"
         stroke-width="1"
         opacity="0.8"
         transform="translate(77.86025408274769,62.110498293606355) rotate(25)"
         id="path36" />
      <path
         class="symbol"
         d="M0,-33.887308618687406L19.564846753111098,0L0,33.887308618687406L-19.564846753111098,0Z"
         fill="#ed6409"
         stroke="black"
         stroke-width="1"
         opacity="0.8"
         transform="translate(74.4456937324025,90.25780684661676) rotate(136)"
         id="path38" />
      <path
         class="symbol"
         
         d="M9.309058936902845,5.37458768312295L9.309058936902845,23.99270555692864L-9.309058936902845,23.99270555692864L-9.309058936902847,5.374587683122948L-25.43282198627169,-3.934471253779897L-16.123763049368847,-20.058234303148744L8.881784197001252e-16,-10.749175366245899L16.123763049368847,-20.058234303148744L25.43282198627169,-3.934471253779897Z"
         fill="#8A9663"
         stroke="black"
         stroke-width="1"
         opacity="0.8"
         transform="translate(60.22045586186779,87.39131448732627) rotate(131)"
         id="path62" />
      <path
         class="symbol"
         
         d="M0,-27.774883208833856L6.235849803498483,-8.582910928309033L26.415483665098282,-8.582910928309033L10.0898169307999,3.2783802522011376L16.325666734298387,22.470352532725958L2.6645352591003757e-15,10.60906135221579L-16.32566673429838,22.47035253272596L-10.089816930799898,3.27838025220114L-26.415483665098286,-8.582910928309028L-6.2358498034984855,-8.582910928309031Z"
         fill="#1F6B63"
         stroke="black"
         stroke-width="1"
         opacity="0.8"
         transform="translate(84.59190418605446,82.8183141609841) rotate(226)"
         id="path66" />
      <path
         class="symbol"

         d="M0,-29.236399804614127L16.879643297329487,0L0,29.236399804614127L-16.879643297329487,0Z"
         fill="#1F6B63"
         stroke="black"
         stroke-width="1"
         opacity="0.8"
         transform="translate(73.72963975693449,62.96073882817669) rotate(343)"
         id="path74" />
      <path
         class="symbol"
         
         d="M0,-32.421589227003615L7.279100304047957,-10.018822055787831L30.83476370298654,-10.018822055787833L11.777831699469289,3.8268494980738557L19.056932003517254,26.229616669289637L2.6645352591003757e-15,12.383945115427949L-19.056932003517247,26.22961666928964L-11.777831699469289,3.826849498073858L-30.834763702986542,-10.018822055787826L-7.279100304047961,-10.01882205578783Z"
         fill="#73343A"
         stroke="black"
         stroke-width="1"
         opacity="0.8"
         transform="translate(61.72252451530908,93.47391818669453) rotate(214)"
         id="path90" />
      <path
         class="symbol"
         
         d="M9.8562160329031,5.690488979787712L9.8562160329031,25.402921045593914L-9.8562160329031,25.402921045593914L-9.856216032903102,5.690488979787709L-26.927682972266233,-4.165727053115392L-17.071466939363134,-21.237193992478524L8.881784197001252e-16,-11.380977959575421L17.071466939363134,-21.237193992478524L26.927682972266233,-4.165727053115392Z"
         fill="#73343A"
         stroke="black"
         stroke-width="1"
         opacity="0.8"
         transform="translate(80.47166617350857,75.89100515563753) rotate(222)"
         id="path108" />
      <path
         class="symbol"
         
         d="M0,-30.226756375644786L17.451425930207755,0L0,30.226756375644786L-17.451425930207755,0Z"
         fill="#1F6B63"
         stroke="black"
         stroke-width="1"
         opacity="0.8"
         transform="translate(32.570122370157094,108.60139331294488) rotate(49)"
         id="path112" />
      <path
         class="symbol"
         d="M8.610060204357385,4.971020576724621L8.610060204357385,22.19114098543939L-8.610060204357385,22.19114098543939L-8.610060204357385,4.971020576724619L-23.523121934531247,-3.639039627632765L-14.91306173017386,-18.552101357806624L0,-9.94204115344924L14.91306173017386,-18.552101357806624L23.523121934531247,-3.639039627632765Z"
         fill="#B82A39"
         stroke="black"
         stroke-width="1"
         opacity="0.8"
         transform="translate(87.04419391213196,86.34385133305665) rotate(269)"
         id="path116" />
    </g>
    <g
       id="unrotated-hexagon">
      <g
         id="half-hexagon-1">
        <use
           xlink:href="#grouped-triangle"
           transform="translate(-75)"
           id="use120" />
        <use
           xlink:href="#grouped-triangle"
           transform="rotate(120) translate(-75)"
           id="use122" />
        <use
           xlink:href="#grouped-triangle"
           transform="rotate(240) translate(-75)"
           id="use124" />
      </g>
      <g
         id="half-hexagon-2">
        <use
           xlink:href="#half-hexagon-1"
           transform="rotate(60) scale(-1,1)"
           id="use127" />
      </g>
    </g>
    <g
       id="hexagon">
      <use
         xlink:href="#unrotated-hexagon"
         transform="rotate(30)"
         id="use130" />
    </g>
  </defs>

  <g
     id="kaleidoscope">
    <use
       xlink:href="#hexagon"
       transform="translate(0, 0)"
       id="use133" />
    <use
       xlink:href="#hexagon"
       transform="translate(260, 0)"
       id="use133" />
    <use
       xlink:href="#hexagon"
       transform="translate(520, 0)"
       id="use149" />
    <use
       xlink:href="#hexagon"
       transform="translate(780, 0)"
       id="use135" />
    <use
       xlink:href="#hexagon"
       transform="translate(1040, 0)"
       id="use147" />
    <use
       xlink:href="#hexagon"
       transform="translate(130, 225)"
       id="use137" />
    <use
       xlink:href="#hexagon"
       transform="translate(390, 225)"
       id="use139" />
    <use
       xlink:href="#hexagon"
       transform="translate(650, 225)"
       id="use141" />
    <use
       xlink:href="#hexagon"
       transform="translate(910, 225)"
       id="use143" />
    <use
       xlink:href="#hexagon"
       transform="translate(1170, 225)"
       id="use145" />
  </g>
</svg>
