<svg width="1302" height="1000">
  <defs>
    <g id="grouped-triangle">
      <polygon id="background-triangle" fill="none" stroke="black" stroke-width="1" points="75,0
                     0,130
                     150,130"></polygon>
    <path class="symbol" d="M-14.465476141489432,-14.465476141489432h28.930952282978865v28.930952282978865h-28.930952282978865Z" fill="#ed6409" stroke="black" stroke-width="1" opacity="0" transform="translate(63.69922221787357,57.558344438242884) rotate(88)"></path><path class="symbol" d="M0,-25.368348390399856L21.969634158140348,12.684174195199928L-21.969634158140348,12.684174195199928Z" fill="#8A9663" stroke="black" stroke-width="1" opacity="0" transform="translate(84.03891041514864,26.796424724856035) rotate(127)"></path><path class="symbol" d="M0,-32.43795409081918L18.728061526295175,0L0,32.43795409081918L-18.728061526295175,0Z" fill="#ed6409" stroke="black" stroke-width="1" opacity="0.8" transform="translate(63.631583314827566,107.23888224695474) rotate(309)"></path><path class="symbol" d="M-17.874562931719478,-17.874562931719478h35.749125863438955v35.749125863438955h-35.749125863438955Z" fill="#8A9663" stroke="black" stroke-width="1" opacity="0.8" transform="translate(69.7235069428103,95.65649814715141) rotate(86)"></path><path class="symbol" d="M0,-30.596951833327747L17.665158377353787,0L0,30.596951833327747L-17.665158377353787,0Z" fill="#73343A" stroke="black" stroke-width="1" opacity="0.8" transform="translate(55.17651895128519,91.8527936086613) rotate(206)"></path><path class="symbol" d="M0,-34.52401941353561L7.751125290327109,-10.668508712913109L32.83429363194343,-10.66850871291311L12.541584170808159,4.075007719058412L20.292709461135274,27.93051841968091L2.6645352591003757e-15,13.18700198770939L-20.292709461135267,27.930518419680915L-12.541584170808157,4.075007719058415L-32.83429363194343,-10.668508712913104L-7.751125290327112,-10.668508712913107Z" fill="#8A9663" stroke="black" stroke-width="1" opacity="0" transform="translate(34.8254058042318,112.2856526499452) rotate(73)"></path><path class="symbol" d="M0,-25.64020400754667L5.756584462298228,-7.923258777572554L24.38528310051437,-7.9232587775725545L9.314349319108072,3.0264155513717723L15.070933781406303,20.74336078134589L1.7763568394002505e-15,9.793686452401563L-15.070933781406298,20.743360781345892L-9.314349319108072,3.0264155513717736L-24.385283100514375,-7.923258777572549L-5.75658446229823,-7.923258777572552Z" fill="#B82A39" stroke="black" stroke-width="1" opacity="0" transform="translate(54.714086437124706,43.97989341892385) rotate(90)"></path><path class="symbol" d="M0,-27.464670518618025L15.856734917128495,0L0,27.464670518618025L-15.856734917128495,0Z" fill="#8A9663" stroke="black" stroke-width="1" opacity="0.8" transform="translate(63.23126562123693,57.02331117899712) rotate(18)"></path><path class="symbol" d="M0,-30.023927462854285L26.001483904213078,15.011963731427143L-26.001483904213078,15.011963731427143Z" fill="#B82A39" stroke="black" stroke-width="1" opacity="0.8" transform="translate(60.12341582626112,95.11954869281792) rotate(305)"></path><path class="symbol" d="M7.7322142227911925,4.464195962960349L7.7322142227911925,19.928624408542735L-7.7322142227911925,19.928624408542735L-7.7322142227911925,4.464195962960346L-21.12480211167224,-3.2680182598308463L-13.392587888881046,-16.66060614871189L4.440892098500626e-16,-8.928391925920696L13.392587888881046,-16.66060614871189L21.12480211167224,-3.2680182598308463Z" fill="#1F6B63" stroke="black" stroke-width="1" opacity="0" transform="translate(32.43666750217113,115.70979485868475) rotate(172)"></path><path class="symbol" d="M8.413281721572531,4.8574104667180595L8.413281721572531,21.68397390986312L-8.413281721572531,21.68397390986312L-8.413281721572531,4.857410466718058L-22.985513121726704,-3.5558712548544724L-14.572231400154173,-18.128102655008647L0,-9.714820933436117L14.572231400154173,-18.128102655008647L22.985513121726704,-3.5558712548544724Z" fill="#1F6B63" stroke="black" stroke-width="1" opacity="0" transform="translate(87.04686284151595,122.32218139690815) rotate(227)"></path><path class="symbol" d="M8.67745896434136,5.009933268944416L8.67745896434136,22.364851197627136L-8.67745896434136,22.364851197627136L-8.67745896434136,5.009933268944415L-23.707258771174608,-3.667525695396945L-15.029799806833246,-18.697325502230193L0,-10.01986653788883L15.029799806833246,-18.697325502230193L23.707258771174608,-3.667525695396945Z" fill="#8A9663" stroke="black" stroke-width="1" opacity="0" transform="translate(1.5747228691414266,129.86988161745023) rotate(54)"></path><path class="symbol" d="M-14.361406616345072,-14.361406616345072h28.722813232690143v28.722813232690143h-28.722813232690143Z" fill="#73343A" stroke="black" stroke-width="1" opacity="0" transform="translate(95.33107911659897,50.48373966030498) rotate(307)"></path><path class="symbol" d="M9.556108397847353,5.517221755902414L9.556108397847353,24.62943855159712L-9.556108397847353,24.62943855159712L-9.556108397847353,5.517221755902411L-26.10777366555459,-4.038886641944941L-16.551665267707236,-20.590551909652177L8.881784197001252e-16,-11.034443511804824L16.551665267707236,-20.590551909652177L26.10777366555459,-4.038886641944941Z" fill="#1F6B63" stroke="black" stroke-width="1" opacity="0" transform="translate(33.61230947387717,104.55915855581208) rotate(93)"></path><path class="symbol" d="M-13.991068579633222,-13.991068579633222h27.982137159266443v27.982137159266443h-27.982137159266443Z" fill="#B82A39" stroke="black" stroke-width="1" opacity="0" transform="translate(47.03447555946839,121.03767813602371) rotate(238)"></path><path class="symbol" d="M8.55490773600648,4.939178284275754L8.55490773600648,22.048993756288716L-8.55490773600648,22.048993756288716L-8.55490773600648,4.939178284275753L-23.372442588833742,-3.6157294517307283L-14.81753485282726,-18.433264304557987L0,-9.878356568551506L14.81753485282726,-18.433264304557987L23.372442588833742,-3.6157294517307283Z" fill="#ed6409" stroke="black" stroke-width="1" opacity="0" transform="translate(22.737444614500845,101.02633710993054) rotate(209)"></path><path class="symbol" d="M0,-26.32148025904985L15.19671371303185,0L0,26.32148025904985L-15.19671371303185,0Z" fill="#73343A" stroke="black" stroke-width="1" opacity="0" transform="translate(46.554126325545596,119.60508339868258) rotate(308)"></path><path class="symbol" d="M0,-32.36659073239626L7.266752372673726,-10.00182658628912L30.782457026303792,-10.001826586289122L11.75785232681503,3.8203578063801102L19.024604699488762,26.18512195248725L1.7763568394002505e-15,12.362937559818018L-19.024604699488755,26.185121952487254L-11.75785232681503,3.8203578063801125L-30.782457026303796,-10.001826586289114L-7.266752372673729,-10.00182658628912Z" fill="#1F6B63" stroke="black" stroke-width="1" opacity="0" transform="translate(24.503185099502687,107.63888701266674) rotate(291)"></path><path class="symbol" d="M9.74849459050019,5.628295976018896L9.74849459050019,25.125285157019277L-9.74849459050019,25.125285157019277L-9.74849459050019,5.628295976018894L-26.63338251855688,-4.120198614481296L-16.884887928056685,-21.00508654253798L8.881784197001252e-16,-11.256591952037791L16.884887928056685,-21.00508654253798L26.63338251855688,-4.120198614481296Z" fill="#1F6B63" stroke="black" stroke-width="1" opacity="0" transform="translate(89.73507997233654,43.128525261137796) rotate(334)"></path><path class="symbol" d="M0,-30.887874984010544L6.934760002456723,-9.544878290188064L29.37611477805329,-9.544878290188066L11.22067738779828,3.6458190883708577L18.15543739025501,24.988815782193335L1.7763568394002505e-15,11.798118403634412L-18.155437390255003,24.98881578219334L-11.220677387798283,3.6458190883708594L-29.376114778053292,-9.544878290188059L-6.934760002456725,-9.544878290188063Z" fill="#B82A39" stroke="black" stroke-width="1" opacity="0" transform="translate(12.110966763282383,112.48904745564283) rotate(20)"></path><path class="symbol" d="M0,-34.595478144261776L19.97370861933335,0L0,34.595478144261776L-19.97370861933335,0Z" fill="#1F6B63" stroke="black" stroke-width="1" opacity="0" transform="translate(62.67310555945425,65.98092605617109) rotate(119)"></path><path class="symbol" d="M-16.3707055437449,-16.3707055437449h32.7414110874898v32.7414110874898h-32.7414110874898Z" fill="#ed6409" stroke="black" stroke-width="1" opacity="0" transform="translate(11.996149804650322,116.97010396499935) rotate(78)"></path><path class="symbol" d="M-14.508618128546908,-14.508618128546908h29.017236257093817v29.017236257093817h-29.017236257093817Z" fill="#ed6409" stroke="black" stroke-width="1" opacity="0" transform="translate(20.16973379517356,106.40980818710051) rotate(100)"></path><path class="symbol" d="M-14.177446878757825,-14.177446878757825h28.35489375751565v28.35489375751565h-28.35489375751565Z" fill="#1F6B63" stroke="black" stroke-width="1" opacity="0" transform="translate(64.50917038698002,117.51169761678159) rotate(4)"></path><path class="symbol" d="M7.75102742389206,4.4750577696802525L7.75102742389206,19.97711261746437L-7.75102742389206,19.97711261746437L-7.75102742389206,4.475057769680252L-21.176200732932816,-3.2759696542118073L-13.425173309040755,-16.701142963252565L0,-8.950115539360505L13.425173309040755,-16.701142963252565L21.176200732932816,-3.2759696542118073Z" fill="#8A9663" stroke="black" stroke-width="1" opacity="0" transform="translate(118.51395363941019,93.19914898312116) rotate(30)"></path><path class="symbol" d="M0,-34.532839168118976L19.937543989595543,0L0,34.532839168118976L-19.937543989595543,0Z" fill="#ed6409" stroke="black" stroke-width="1" opacity="0" transform="translate(38.25247704309032,92.22627874714534) rotate(119)"></path><path class="symbol" d="M-13.892443989449804,-13.892443989449804h27.784887978899608v27.784887978899608h-27.784887978899608Z" fill="#73343A" stroke="black" stroke-width="1" opacity="0" transform="translate(81.75353519404726,24.538217285385187) rotate(68)"></path><path class="symbol" d="M-16.09347693943108,-16.09347693943108h32.18695387886216v32.18695387886216h-32.18695387886216Z" fill="#8A9663" stroke="black" stroke-width="1" opacity="0" transform="translate(29.627074762177003,90.21226240975986) rotate(192)"></path><path class="symbol" d="M0,-26.26292294455956L22.74435844762179,13.13146147227978L-22.74435844762179,13.13146147227978Z" fill="#B82A39" stroke="black" stroke-width="1" opacity="0" transform="translate(119.08557643725507,95.97540716630546) rotate(328)"></path><path class="symbol" d="M0,-28.998750980061974L6.510625237956248,-8.961106868486311L27.57945108400841,-8.961106868486313L10.53441292302608,3.422838246941637L17.045038160982333,23.460482358517297L1.7763568394002505e-15,11.076537243089348L-17.045038160982326,23.4604823585173L-10.53441292302608,3.4228382469416383L-27.579451084008415,-8.961106868486306L-6.5106252379562495,-8.96110686848631Z" fill="#ed6409" stroke="black" stroke-width="1" opacity="0" transform="translate(46.92789751994815,126.63627157088887) rotate(63)"></path><path class="symbol" d="M9.506446095167925,5.488549212081869L9.506446095167925,24.50144140241772L-9.506446095167925,24.50144140241772L-9.506446095167925,5.488549212081868L-25.972093731413526,-4.017896883086056L-16.465647636245603,-20.483544519331662L0,-10.977098424163739L16.465647636245603,-20.483544519331662L25.972093731413526,-4.017896883086056Z" fill="#ed6409" stroke="black" stroke-width="1" opacity="0" transform="translate(11.214814732141656,124.74623730356777) rotate(4)"></path><path class="symbol" d="M-18.289341158171883,-18.289341158171883h36.578682316343766v36.578682316343766h-36.578682316343766Z" fill="#1F6B63" stroke="black" stroke-width="1" opacity="0" transform="translate(93.32540896970102,74.39885918095942) rotate(73)"></path><path class="symbol" d="M0,-32.43532427918805L7.282184015393254,-10.02306642033145L30.8478265138682,-10.023066420331451L11.782821249237474,3.8284707010688726L19.06500526463073,26.240728559925472L2.6645352591003757e-15,12.38919143852515L-19.065005264630724,26.240728559925476L-11.782821249237472,3.828470701068875L-30.847826513868203,-10.023066420331444L-7.282184015393257,-10.023066420331448Z" fill="#1F6B63" stroke="black" stroke-width="1" opacity="0" transform="translate(73.32336457630153,12.754061100956896) rotate(346)"></path><path class="symbol" d="M9.055271882724051,5.228063659075981L9.055271882724051,23.338607424524085L-9.055271882724051,23.338607424524085L-9.055271882724051,5.22806365907598L-24.739462859951992,-3.8272082236480722L-15.684190977227942,-19.511399200876014L0,-10.45612731815196L15.684190977227942,-19.511399200876014L24.739462859951992,-3.8272082236480722Z" fill="#73343A" stroke="black" stroke-width="1" opacity="0" transform="translate(57.5802509528975,114.610194562472) rotate(116)"></path><path class="symbol" d="M0,-33.0724974106847L19.09441528283201,0L0,33.0724974106847L-19.09441528283201,0Z" fill="#8A9663" stroke="black" stroke-width="1" opacity="0" transform="translate(29.134432521270632,121.94832434759485) rotate(264)"></path><path class="symbol" d="M-16.15549442140351,-16.15549442140351h32.31098884280702v32.31098884280702h-32.31098884280702Z" fill="#8A9663" stroke="black" stroke-width="1" opacity="0" transform="translate(100.4243866893969,51.69026561991001) rotate(338)"></path><path class="symbol" d="M-16.507574019219177,-16.507574019219177h33.015148038438355v33.015148038438355h-33.015148038438355Z" fill="#1F6B63" stroke="black" stroke-width="1" opacity="0" transform="translate(105.01917600486507,75.1282197060733) rotate(315)"></path><path class="symbol" d="M-13.45362404707371,-13.45362404707371h26.90724809414742v26.90724809414742h-26.90724809414742Z" fill="#B82A39" stroke="black" stroke-width="1" opacity="0" transform="translate(131.21402247132053,113.45700093298815) rotate(278)"></path><path class="symbol" d="M9.464220605979895,5.464170314532496L9.464220605979895,24.392611526492285L-9.464220605979895,24.392611526492285L-9.464220605979897,5.464170314532495L-25.85673154957738,-4.000050291447399L-16.392510943597483,-20.392561235044887L8.881784197001252e-16,-10.92834062906499L16.392510943597483,-20.392561235044887L25.85673154957738,-4.000050291447399Z" fill="#ed6409" stroke="black" stroke-width="1" opacity="0" transform="translate(0.6114057446635676,129.3505907903181) rotate(107)"></path><path class="symbol" d="M-18.096961070853858,-18.096961070853858h36.193922141707716v36.193922141707716h-36.193922141707716Z" fill="#1F6B63" stroke="black" stroke-width="1" opacity="0.8" transform="translate(105.67517074713727,107.37625282318156) rotate(360)"></path><path class="symbol" d="M0,-29.727610264526596L25.744865682883066,14.863805132263298L-25.744865682883066,14.863805132263298Z" fill="#B82A39" stroke="black" stroke-width="1" opacity="0" transform="translate(12.935941373256249,109.04268231423558) rotate(11)"></path><path class="symbol" d="M0,-32.2773691733493L18.635347780966146,0L0,32.2773691733493L-18.635347780966146,0Z" fill="#B82A39" stroke="black" stroke-width="1" opacity="0" transform="translate(29.900539672344415,107.06088848516129) rotate(211)"></path><path class="symbol" d="M-18.479718612576328,-18.479718612576328h36.959437225152655v36.959437225152655h-36.959437225152655Z" fill="#73343A" stroke="black" stroke-width="1" opacity="0.8" transform="translate(83.8927313691782,66.53273613298438) rotate(168)"></path><path class="symbol" d="M-13.397761006974262,-13.397761006974262h26.795522013948524v26.795522013948524h-26.795522013948524Z" fill="#ed6409" stroke="black" stroke-width="1" opacity="0" transform="translate(4.136415907224179,128.5687587579068) rotate(90)"></path><path class="symbol" d="M0,-29.106068955534862L6.534719624644851,-8.994269946709348L27.681516543897505,-8.99426994670935L10.573398459626326,3.4355054156512645L17.108118084271183,23.547304424476778L2.6645352591003757e-15,11.117529062116166L-17.108118084271176,23.54730442447678L-10.573398459626326,3.435505415651267L-27.68151654389751,-8.994269946709343L-6.534719624644854,-8.994269946709345Z" fill="#1F6B63" stroke="black" stroke-width="1" opacity="0" transform="translate(31.11072578788196,90.49897681936842) rotate(311)"></path><path class="symbol" d="M0,-31.626876882977662L18.259785882014306,0L0,31.626876882977662L-18.259785882014306,0Z" fill="#ed6409" stroke="black" stroke-width="1" opacity="0" transform="translate(87.58576459186813,41.174492975132736) rotate(323)"></path><path class="symbol" d="M-17.11724276862369,-17.11724276862369h34.23448553724738v34.23448553724738h-34.23448553724738Z" fill="#B82A39" stroke="black" stroke-width="1" opacity="0" transform="translate(87.04007643317186,35.11196307993161) rotate(179)"></path><path class="symbol" d="M-14.256577429383253,-14.256577429383253h28.513154858766505v28.513154858766505h-28.513154858766505Z" fill="#B82A39" stroke="black" stroke-width="1" opacity="0" transform="translate(40.09995651139782,89.30925291696018) rotate(297)"></path><path class="symbol" d="M0,-26.62869168504737L5.978513773149225,-8.228718268650493L25.325390747478874,-8.228718268650493L9.673438487164825,3.1430906947772996L15.651952260314054,21.543064111174175L1.7763568394002505e-15,10.171255147746386L-15.651952260314047,21.54306411117418L-9.673438487164823,3.143090694777301L-25.325390747478878,-8.228718268650487L-5.978513773149227,-8.228718268650491Z" fill="#B82A39" stroke="black" stroke-width="1" opacity="0" transform="translate(19.940947017654075,121.82861929092893) rotate(2)"></path><path class="symbol" d="M0,-29.334714016286057L6.586053639136864,-9.064925156161358L27.898970918843627,-9.06492515616136L10.65645863985338,3.4624933041796897L17.24251227899025,23.732282164304387L1.7763568394002505e-15,11.204863703963335L-17.242512278990244,23.73228216430439L-10.65645863985338,3.4624933041796915L-27.89897091884363,-9.064925156161355L-6.586053639136867,-9.064925156161356Z" fill="#1F6B63" stroke="black" stroke-width="1" opacity="0" transform="translate(37.78700426265563,99.79664181043333) rotate(3)"></path><path class="symbol" d="M0,-26.84274829350849L23.24650192956974,13.421374146754244L-23.24650192956974,13.421374146754244Z" fill="#B82A39" stroke="black" stroke-width="1" opacity="0" transform="translate(62.03919577092088,28.854330428257203) rotate(296)"></path><path class="symbol" d="M0,-29.073025196797325L25.17797838529156,14.536512598398662L-25.17797838529156,14.536512598398662Z" fill="#1F6B63" stroke="black" stroke-width="1" opacity="0" transform="translate(107.07871025383669,93.60852373754797) rotate(305)"></path><path class="symbol" d="M0,-26.762169672684337L6.008481448502495,-8.269965235205284L25.452335857402975,-8.269965235205285L9.721927204450239,3.158845634068399L15.73040865295274,21.651050071547452L1.7763568394002505e-15,10.222239202273768L-15.730408652952732,21.651050071547452L-9.721927204450239,3.1588456340684012L-25.45233585740298,-8.269965235205278L-6.008481448502497,-8.269965235205282Z" fill="#B82A39" stroke="black" stroke-width="1" opacity="0" transform="translate(68.037765487724,40.28537595757813) rotate(149)"></path><path class="symbol" d="M-17.96524422322168,-17.96524422322168h35.93048844644336v35.93048844644336h-35.93048844644336Z" fill="#1F6B63" stroke="black" stroke-width="1" opacity="0" transform="translate(46.17329195912603,111.19765901650734) rotate(66)"></path><path class="symbol" d="M9.62823099383643,5.558861756111362L9.62823099383643,24.815323743784223L-9.62823099383643,24.815323743784223L-9.628230993836432,5.5588617561113605L-26.304816262170515,-4.06936923772507L-16.676585268334083,-20.745954506059153L8.881784197001252e-16,-11.117723512222723L16.676585268334083,-20.745954506059153L26.304816262170515,-4.06936923772507Z" fill="#ed6409" stroke="black" stroke-width="1" opacity="0" transform="translate(41.034476439489,115.40531707136134) rotate(160)"></path></g>

  <g id="unrotated-hexagon"> 
    <g id="half-hexagon-1">
      <use xmlns:xlink="http://www.w3.org/1999/xlink" xlink:href="#grouped-triangle" transform="translate(-75)"></use>
      <use xmlns:xlink="http://www.w3.org/1999/xlink" xlink:href="#grouped-triangle" transform="rotate(120) translate(-75)"></use> 
      <use xmlns:xlink="http://www.w3.org/1999/xlink" xlink:href="#grouped-triangle" transform="rotate(240) translate(-75)"></use> 
    </g>
    <g id="half-hexagon-2">
      <use xmlns:xlink="http://www.w3.org/1999/xlink" xlink:href="#half-hexagon-1" transform="rotate(60) scale(-1,1)"></use> 
    </g>
  </g>

  <g id="hexagon">
    <use xmlns:xlink="http://www.w3.org/1999/xlink" xlink:href="#unrotated-hexagon" transform="rotate(30)">
  </use></g>
  </defs>

<!--  <g id="kaleidoscope">-->
<!--    <use xlink:href="#hexagon" transform="translate(131, 150)"/>-->
<!--    <use xlink:href="#hexagon" transform="translate(391, 150)"/>-->
<!--    <use xlink:href="#hexagon" transform="translate(651, 150)"/>-->
<!--    <use xlink:href="#hexagon" transform="translate(911, 150)"/>-->
<!--    <use xlink:href="#hexagon" transform="translate(261, 375)"/>-->
<!--    <use xlink:href="#hexagon" transform="translate(521, 375)"/>-->
<!--    <use xlink:href="#hexagon" transform="translate(781, 375)"/>-->
<!--    <use xlink:href="#hexagon" transform="translate(1041, 375)"/>-->
<!--  </g>-->

  <g id="kaleidoscope">
    <use xmlns:xlink="http://www.w3.org/1999/xlink" xlink:href="#hexagon" transform="translate(261, 150)"></use>
    <use xmlns:xlink="http://www.w3.org/1999/xlink" xlink:href="#hexagon" transform="translate(781, 150)"></use>
    <use xmlns:xlink="http://www.w3.org/1999/xlink" xlink:href="#hexagon" transform="translate(131, 375)"></use>
    <use xmlns:xlink="http://www.w3.org/1999/xlink" xlink:href="#hexagon" transform="translate(391, 375)"></use>
    <use xmlns:xlink="http://www.w3.org/1999/xlink" xlink:href="#hexagon" transform="translate(651, 375)"></use>
    <use xmlns:xlink="http://www.w3.org/1999/xlink" xlink:href="#hexagon" transform="translate(911, 375)"></use>
    <use xmlns:xlink="http://www.w3.org/1999/xlink" xlink:href="#hexagon" transform="translate(1171, 375)"></use>
    <use xmlns:xlink="http://www.w3.org/1999/xlink" xlink:href="#hexagon" transform="translate(1041, 600)"></use>
    <use xmlns:xlink="http://www.w3.org/1999/xlink" xlink:href="#hexagon" transform="translate(521, 600)"></use>
  </g>


</svg>
