<?xml version="1.0" encoding="UTF-8" standalone="no"?>
<svg
   xmlns:dc="http://purl.org/dc/elements/1.1/"
   xmlns:cc="http://creativecommons.org/ns#"
   xmlns:rdf="http://www.w3.org/1999/02/22-rdf-syntax-ns#"
   xmlns:svg="http://www.w3.org/2000/svg"
   xmlns="http://www.w3.org/2000/svg"
   xmlns:xlink="http://www.w3.org/1999/xlink"
   xmlns:sodipodi="http://sodipodi.sourceforge.net/DTD/sodipodi-0.dtd"
   xmlns:inkscape="http://www.inkscape.org/namespaces/inkscape"
   viewBox="0 75 1500 844"
   id="svg2"
   version="1.1"
   inkscape:version="0.91 r13725"
   sodipodi:docname="website_background_10_lighter.svg">
  <metadata
     id="metadata103">
    <rdf:RDF>
      <cc:Work
         rdf:about="">
        <dc:format>image/svg+xml</dc:format>
        <dc:type
           rdf:resource="http://purl.org/dc/dcmitype/StillImage" />
        <dc:title></dc:title>
      </cc:Work>
    </rdf:RDF>
  </metadata>
  <sodipodi:namedview
     pagecolor="#e1d4d4"
     bordercolor="#666666"
     borderopacity="1"
     objecttolerance="10"
     gridtolerance="10"
     guidetolerance="10"
     inkscape:pageopacity="0"
     inkscape:pageshadow="2"
     inkscape:window-width="3062"
     inkscape:window-height="1752"
     id="namedview101"
     showgrid="false"
     inkscape:zoom="1.5198082"
     inkscape:cx="770.34861"
     inkscape:cy="421.78502"
     inkscape:window-x="138"
     inkscape:window-y="48"
     inkscape:window-maximized="1"
     inkscape:current-layer="svg2" />
  <defs
     id="defs4">
    <g
       id="grouped-triangle">
      <polygon
         class="background-triangle"
         fill="#2c2335"
         stroke="black"
         stroke-width="1"
         points="75,0                          0,130                          150,130"
         id="polygon7" />
      <path
         class="symbol"
         d="M-13.518505834595775,-13.518505834595775h27.03701166919155v27.03701166919155h-27.03701166919155Z"
         fill="#B82A39"
         stroke="black"
         stroke-width="1"
         opacity="0.8"
         transform="translate(82.16019488298528,55.28537880795325) rotate(290)"
         id="path9" />
      <path
         class="symbol"
         d="M-14.637281168304447,-14.637281168304447h29.274562336608895v29.274562336608895h-29.274562336608895Z"
         fill="#87984d"
         stroke="black"
         stroke-width="1"
         opacity="0.8"
         transform="translate(42.69760871475134,100.73440461665439) rotate(164)"
         id="path11" />
      <path
         class="symbol"
         d="M8.690038036851307,5.01719579984419L8.690038036851307,22.397271873546806L-8.690038036851307,22.397271873546806L-8.690038036851307,5.017195799844188L-23.741625436383874,-3.67284223700712L-15.051587399532568,-18.724429636539686L0,-10.034391599688378L15.051587399532568,-18.724429636539686L23.741625436383874,-3.67284223700712Z"
         fill="#B82A39"
         stroke="black"
         stroke-width="1"
         opacity="0.8"
         transform="translate(68.062297371718,70.76223625015066) rotate(144)"
         id="path13" />
      <path
         class="symbol"
         d="M-14.688430821568382,-14.688430821568382h29.376861643136763v29.376861643136763h-29.376861643136763Z"
         fill="#B82A39"
         stroke="black"
         stroke-width="1"
         opacity="0.8"
         transform="translate(58.99675031977481,72.58992848799718) rotate(17)"
         id="path15" />
      <path
         class="symbol"
         d="M0,-29.06012406666156L6.5244043544023755,-8.98007219524283L27.637820357944094,-8.980072195242832L10.55670800177086,3.4300823571548777L17.08111235617324,23.51013422857361L1.7763568394002505e-15,11.0999796761759L-17.081112356173232,23.510134228573612L-10.556708001770858,3.4300823571548804L-27.637820357944097,-8.980072195242824L-6.524404354402378,-8.980072195242828Z"
         fill="#B82A39"
         stroke="black"
         stroke-width="1"
         opacity="0.8"
         transform="translate(59.2334857083153,95.6556561944281) rotate(98)"
         id="path17" />
      <path
         class="symbol"
         d="M-14.044571905188139,-14.044571905188139h28.089143810376278v28.089143810376278h-28.089143810376278Z"
         fill="#87984d"
         stroke="black"
         stroke-width="1"
         opacity="0.8"
         transform="translate(56.09790062044666,108.71617073551974) rotate(331)"
         id="path19" />
      <path
         class="symbol"
         d="M9.383080658823866,5.417324144199931L9.383080658823866,24.183485461847663L-9.383080658823866,24.183485461847663L-9.383080658823866,5.417324144199929L-25.635053091423654,-3.965756514623937L-16.25197243259979,-20.217728947223726L0,-10.83464828839986L16.25197243259979,-20.217728947223726L25.635053091423654,-3.965756514623937Z"
         fill="#1F6B63"
         stroke="black"
         stroke-width="1"
         opacity="0.8"
         transform="translate(76.60277023254763,102.36851047693807) rotate(296)"
         id="path21" />
      <path
         class="symbol"
         d="M0,-31.622312790756336L27.385726203212574,15.811156395378168L-27.385726203212574,15.811156395378168Z"
         fill="#73343A"
         stroke="black"
         stroke-width="1"
         opacity="0.8"
         transform="translate(65.87633150995383,90.0964554934342) rotate(227)"
         id="path23" />
      <path
         class="symbol"
         d="M-15.724185193516387,-15.724185193516387h31.448370387032774v31.448370387032774h-31.448370387032774Z"
         fill="#f2692d"
         stroke="black"
         stroke-width="1"
         opacity="0.8"
         transform="translate(46.424950299008955,91.34014922734937) rotate(7)"
         id="path25" />
    </g>
    <g
       id="unrotated-hexagon">
      <g
         id="half-hexagon-1">
        <use
           xlink:href="#grouped-triangle"
           transform="translate(-75)"
           id="use29" />
        <use
           xlink:href="#grouped-triangle"
           transform="rotate(120) translate(-75)"
           id="use31" />
        <use
           xlink:href="#grouped-triangle"
           transform="rotate(240) translate(-75)"
           id="use33" />
      </g>
      <g
         id="half-hexagon-2">
        <use
           xlink:href="#half-hexagon-1"
           transform="rotate(60) scale(-1,1)"
           id="use36" />
      </g>
    </g>
    <g
       id="hexagon">
      <use
         xlink:href="#unrotated-hexagon"
         transform="rotate(30)"
         id="use39" />
    </g>
  </defs>
  <g
     id="kaleidoscope">
    <g
       id="centre"
       fill-opacity="0.7">
      <use
         xlink:href="#hexagon"
         transform="translate(391, 375)"
         id="use43" />
    </g>
    <g
       id="ring1"
       fill-opacity="0.6"
       stroke-opacity="0.8">
      <use
         xlink:href="#hexagon"
         transform="translate(261, 150)"
         id="use46" />
      <use
         xlink:href="#hexagon"
         transform="translate(521, 150)"
         id="use48" />
      <use
         xlink:href="#hexagon"
         transform="translate(131, 375)"
         id="use50" />
      <use
         xlink:href="#hexagon"
         transform="translate(651, 375)"
         id="use52" />
      <use
         xlink:href="#hexagon"
         transform="translate(261, 600)"
         id="use54" />
      <use
         xlink:href="#hexagon"
         transform="translate(521, 600)"
         id="use56" />
    </g>
    <g
       id="ring2"
       fill-opacity="0.5"
       stroke-opacity="0.7">
      <use
         xlink:href="#hexagon"
         transform="translate(131, -75)"
         id="use59" />
      <use
         xlink:href="#hexagon"
         transform="translate(391, -75)"
         id="use61" />
      <use
         xlink:href="#hexagon"
         transform="translate(651, -75)"
         id="use63" />
      <use
         xlink:href="#hexagon"
         transform="translate(781, 150)"
         id="use65" />
      <use
         xlink:href="#hexagon"
         transform="translate(1, 150)"
         id="use67" />
      <use
         xlink:href="#hexagon"
         transform="translate(911, 375)"
         id="use69" />
      <use
         xlink:href="#hexagon"
         transform="translate(1, 600)"
         id="use71" />
      <use
         xlink:href="#hexagon"
         transform="translate(781, 600)"
         id="use73" />
      <use
         xlink:href="#hexagon"
         transform="translate(131, 825)"
         id="use75" />
      <use
         xlink:href="#hexagon"
         transform="translate(391, 825)"
         id="use77" />
      <use
         xlink:href="#hexagon"
         transform="translate(651, 825)"
         id="use79" />
    </g>
    <g
       id="ring3"
       fill-opacity="0.4"
       stroke-opacity="0.6">
      <use
         xlink:href="#hexagon"
         transform="translate(911, -75)"
         id="use82" />
      <use
         xlink:href="#hexagon"
         transform="translate(1041, 150)"
         id="use84" />
      <use
         xlink:href="#hexagon"
         transform="translate(1171, 375)"
         id="use86" />
      <use
         xlink:href="#hexagon"
         transform="translate(1041, 600)"
         id="use88" />
      <use
         xlink:href="#hexagon"
         transform="translate(911, 825)"
         id="use90" />
      <use
         xlink:href="#hexagon"
         transform="translate(1, 1050)"
         id="use92" />
      <use
         xlink:href="#hexagon"
         transform="translate(261, 1050)"
         id="use94" />
      <use
         xlink:href="#hexagon"
         transform="translate(521, 1050)"
         id="use96" />
      <use
         xlink:href="#hexagon"
         transform="translate(781, 1050)"
         id="use98" />
    </g>
  </g>
  <path
     id="kaleidoscope-cover"
     d="m 1,920 1006,0 34,-20 0,-150 130,-75 0,-150 130,-75 0,-150 -130,-75 0,-150 L 0,75 Z"
     fill="white"
     stroke="black"
     stroke-width="3"
     fill-opacity="0" />
  <flowRoot
     xml:space="preserve"
     id="flowRoot4249"
     style="fill:black;stroke:none;stroke-opacity:1;stroke-width:1px;stroke-linejoin:miter;stroke-linecap:butt;fill-opacity:1;font-family:sans-serif;font-style:normal;font-weight:normal;font-size:40px;line-height:125%;letter-spacing:0px;word-spacing:0px"><flowRegion
       id="flowRegion4251"><rect
         id="rect4253"
         width="399.39252"
         height="76.983398"
         x="928.40662"
         y="402.49692" /></flowRegion><flowPara
       id="flowPara4255"></flowPara></flowRoot>  <flowRoot
     xml:space="preserve"
     id="flowRoot4261"
     style="fill:black;stroke:none;stroke-opacity:1;stroke-width:1px;stroke-linejoin:miter;stroke-linecap:butt;fill-opacity:1;font-family:sans-serif;font-style:normal;font-weight:normal;font-size:40px;line-height:125%;letter-spacing:0px;word-spacing:0px"><flowRegion
       id="flowRegion4263"><rect
         id="rect4265"
         width="429.65948"
         height="111.85622"
         x="926.43268"
         y="395.25916" /></flowRegion><flowPara
       id="flowPara4267"></flowPara></flowRoot>  <g
     id="g4285"
     transform="translate(3.2898889,-21.055289)">
    <rect
       y="358.98413"
       x="873.71759"
       height="252.81709"
       width="519.2981"
       id="rect4231"
       style="opacity:1;fill:#e1d4d4;fill-opacity:1;stroke:#000000;stroke-width:3;stroke-miterlimit:4;stroke-dasharray:none;stroke-dashoffset:0;stroke-opacity:1" />
    <flowRoot
       transform="translate(-9.2116888,69.736178)"
       style="font-style:normal;font-weight:normal;font-size:40px;line-height:125%;font-family:sans-serif;letter-spacing:0px;word-spacing:0px;fill:#000000;fill-opacity:1;stroke:none;stroke-width:1px;stroke-linecap:butt;stroke-linejoin:miter;stroke-opacity:1"
       id="flowRoot4241"
       xml:space="preserve"><flowRegion
         id="flowRegion4243"><rect
           y="321.56564"
           x="925.11676"
           height="57.244068"
           width="319.77719"
           id="rect4245" /></flowRegion><flowPara
         id="flowPara4247">Hello!</flowPara></flowRoot>    <flowRoot
       transform="translate(0,71.052133)"
       style="font-style:normal;font-variant:normal;font-weight:normal;font-stretch:normal;font-size:30px;line-height:125%;font-family:serif;-inkscape-font-specification:serif;letter-spacing:0px;word-spacing:0px;fill:#000000;fill-opacity:1;stroke:none;stroke-width:1px;stroke-linecap:butt;stroke-linejoin:miter;stroke-opacity:1"
       id="flowRoot4269"
       xml:space="preserve"><flowRegion
         id="flowRegion4271"><rect
           style="font-style:normal;font-variant:normal;font-weight:normal;font-stretch:normal;font-size:30px;font-family:serif;-inkscape-font-specification:serif"
           y="380.78366"
           x="917.22101"
           height="122.38387"
           width="440.18707"
           id="rect4273" /></flowRegion><flowPara
         style="font-size:25px"
         id="flowPara4275">This is my site for notes and thoughts on physics, maths, programming and anything else that interests me.</flowPara></flowRoot>  </g>
  <path
     inkscape:connector-curvature="0"
     style="opacity:0.8;fill:#0b0505;fill-opacity:0.88364778"
     d="m 1063.2413,706.15513 c -0.1154,0 -0.226,0.01 -0.329,0.021 -0.8662,0.1263 -3.5033,1.3084 -4.003,1.7944 -0.5745,0.5588 -1.5547,1.1639 -1.6808,1.0378 -0.071,-0.071 -0.1296,-0.043 -0.1296,0.062 0,0.2097 -1.1267,1.5017 -1.3095,1.5017 -0.1873,0 -0.926,0.7991 -0.926,1.0016 0,0.1037 -0.2286,0.3683 -0.5081,0.5881 -0.2794,0.2198 -0.5081,0.5507 -0.5081,0.7354 0,0.1847 -0.2552,0.4826 -0.5674,0.6618 -0.3122,0.1792 -1.0101,0.9065 -1.5506,1.6163 -0.5405,0.7098 -1.0623,1.2905 -1.1597,1.2905 -0.097,0 -0.1805,0.1143 -0.1848,0.2541 0,0.1397 -0.5383,0.7113 -1.1867,1.2702 -0.6483,0.5588 -1.3776,1.3133 -1.6201,1.6766 -0.2426,0.3633 -0.5709,0.6605 -0.7301,0.6605 -0.1591,0 -0.348,0.1842 -0.4194,0.4093 -0.072,0.2252 -0.2082,0.3611 -0.3042,0.3017 -0.096,-0.059 -0.2408,0 -0.3217,0.1299 -0.092,0.1486 -0.059,0.1836 0.088,0.093 0.591,-0.3652 0.1484,0.3194 -0.5786,0.8952 -0.4471,0.3541 -0.8129,0.7514 -0.8129,0.8828 0,0.1314 -0.1829,0.3529 -0.4064,0.4925 -0.2236,0.1396 -0.4065,0.3923 -0.4065,0.5614 0,0.1691 -0.2286,0.4116 -0.5081,0.5389 -0.2794,0.1273 -0.5084,0.3314 -0.509,0.4531 -5e-4,0.1218 -0.3728,0.5371 -0.8272,0.9228 -1.1414,0.969 -1.5031,1.8835 -1.1892,3.0075 0.2212,0.7922 0.2965,0.8638 0.9094,0.8638 0.3676,0 0.8022,0.052 0.966,0.1143 0.1821,0.07 0.6845,-0.2655 1.2934,-0.8637 1.5732,-1.5457 2.6593,-2.5021 2.8443,-2.5042 0.094,0 0.5076,-0.3211 0.9193,-0.7113 0.4117,-0.3903 0.83,-0.7094 0.9297,-0.7094 0.1,0 0.3961,-0.2287 0.6586,-0.5081 0.2626,-0.2795 0.5987,-0.5081 0.7469,-0.5081 0.1482,0 0.2693,-0.07 0.2693,-0.1562 0,-0.086 0.2218,-0.2917 0.4925,-0.4573 0.2707,-0.1656 0.9338,-0.715 1.4734,-1.221 0.5397,-0.5059 1.4363,-1.2833 1.9926,-1.7274 0.5564,-0.4441 1.2276,-1.0591 1.4916,-1.3664 0.2639,-0.3074 0.6023,-0.5589 0.7519,-0.5589 0.1496,0 0.4518,-0.2287 0.6716,-0.5081 0.6574,-0.8357 0.9322,-0.644 1.2382,0.8637 0.1531,0.7545 0.2994,1.5547 0.3251,1.7783 0.026,0.2236 0.1032,0.5436 0.1721,0.7113 0.069,0.1677 0.1546,0.5081 0.1903,0.7567 0.036,0.2487 0.128,0.5155 0.2054,0.5929 0.077,0.077 0.1407,0.3389 0.1407,0.5811 0,0.2422 0.069,0.5088 0.1524,0.5925 0.084,0.084 0.1675,0.625 0.1858,1.2026 0.018,0.5776 0.1375,1.9189 0.2648,2.9808 0.1274,1.0619 0.2831,2.5023 0.3461,3.2009 0.063,0.6986 0.197,1.2702 0.2979,1.2702 0.1009,0 0.1309,0.2094 0.067,0.4652 -0.064,0.2559 -0.01,0.736 0.121,1.067 0.2526,0.6392 1.5173,5.3327 1.8049,6.6987 0.094,0.4471 0.3654,1.4988 0.6027,2.3371 0.2373,0.8383 0.4876,1.7776 0.5564,2.0873 0.069,0.3097 0.2046,0.6124 0.302,0.6725 0.097,0.06 0.1768,0.3273 0.1768,0.5935 0,0.2663 0.091,0.5406 0.2033,0.6097 0.1117,0.069 0.2032,0.2664 0.2032,0.4386 0,0.2931 0.4079,1.3495 0.8301,2.1498 0.1023,0.1941 0.186,0.5199 0.186,0.724 0,0.2041 0.1737,0.7313 0.3859,1.1714 0.2121,0.4402 0.4941,1.2118 0.6265,1.7148 0.3167,1.2031 1.858,4.7589 2.7309,6.3001 0.1583,0.2795 0.4878,0.9654 0.732,1.5243 0.2441,0.5588 0.5806,1.1705 0.7478,1.3591 0.1672,0.1885 0.2504,0.4295 0.1848,0.5357 -0.066,0.1061 0.032,0.3176 0.2162,0.4699 0.1846,0.1524 0.5064,0.662 0.7148,1.1321 0.2085,0.4701 0.4908,0.9731 0.6275,1.1178 0.1367,0.1446 0.408,0.583 0.603,0.9742 0.4308,0.8642 0.9319,1.7281 1.4744,2.542 0.6726,1.009 0.9066,1.4005 1.0972,1.8357 0.1,0.2282 0.3284,0.5368 0.5077,0.6856 0.1793,0.1488 0.3258,0.3624 0.3258,0.4748 0,0.1123 0.4398,0.81 0.9771,1.5502 0.5373,0.7403 1.1339,1.5744 1.3258,1.8539 0.5165,0.7522 1.7051,2.4403 2.2895,3.2517 0.2818,0.3912 0.6671,0.9278 0.8561,1.1924 0.1891,0.2645 0.618,0.827 0.9533,1.2502 1.4019,1.7689 2.4976,3.2063 3.1583,4.1433 0.3867,0.5484 1.1832,1.4797 1.77,2.0698 0.5869,0.5901 1.067,1.1533 1.067,1.2515 0,0.098 1.4175,1.5401 3.1501,3.2044 1.7325,1.6642 3.1501,3.1369 3.1501,3.2726 0,0.1357 0.092,0.2777 0.2051,0.3153 0.1128,0.038 1.5075,1.3587 3.0993,2.9361 1.5918,1.5773 3.2173,3.0868 3.6121,3.3542 0.3948,0.2675 0.9892,0.7434 1.321,1.0575 0.3318,0.3141 0.9371,0.7451 1.3451,0.9577 0.4081,0.2126 1.3422,0.8467 2.0758,1.409 0.7337,0.5623 1.4804,1.0222 1.6596,1.0222 0.1791,0 0.6168,0.2196 0.9726,0.488 0.3558,0.2685 0.9669,0.6321 1.3582,0.8082 0.3912,0.1761 1.3057,0.6831 2.0323,1.1267 0.7265,0.4436 1.9015,1.1545 2.6108,1.5798 0.7094,0.4252 1.5325,0.9299 1.8291,1.1215 0.5656,0.3655 2.2811,1.2197 3.9849,1.9844 0.5537,0.2485 2.2456,0.8633 3.7598,1.3664 1.5142,0.5031 2.9104,0.9989 3.1028,1.1016 1.0489,0.5596 7.2638,1.9083 9.71,2.1072 0.8383,0.068 1.9358,0.1681 2.4388,0.222 0.5029,0.054 1.8662,0.1856 3.0294,0.2925 1.1631,0.1069 2.1562,0.2357 2.2066,0.2861 0.05,0.05 1.6137,0.085 3.474,0.076 4.9682,-0.023 8.6321,-0.5752 12.3244,-1.8577 2.9902,-1.0386 3.3752,-1.2022 4.2643,-1.8138 0.4451,-0.3062 0.971,-0.5567 1.1686,-0.5567 0.1976,0 0.3591,-0.091 0.3591,-0.2032 0,-0.1118 0.1516,-0.2032 0.3366,-0.2032 0.1851,0 0.6362,-0.2287 1.0025,-0.5081 0.3664,-0.2795 0.7172,-0.5081 0.7796,-0.5081 0.1696,0 2.0248,-1.4367 2.1971,-1.7014 0.3136,-0.4817 0.1406,-1.1268 -0.4064,-1.5163 l -0.5621,-0.4001 -1.589,0.8637 c -0.8739,0.4751 -1.7654,1.0149 -1.9809,1.1994 -0.2154,0.1845 -0.4914,0.3353 -0.6135,0.3353 -0.122,0 -1.3329,0.4444 -2.6906,0.9876 -3.1621,1.2652 -4.5211,1.6398 -8.159,2.2482 -1.3123,0.2195 -6.0385,0.555 -6.7067,0.4761 -0.8158,-0.096 -3.5048,-0.2647 -5.4872,-0.3433 -2.6139,-0.1037 -6.5896,-0.5115 -7.1131,-0.7297 -0.2235,-0.093 -0.6351,-0.2148 -0.9145,-0.2703 -0.2795,-0.055 -1.1026,-0.2522 -1.8291,-0.4372 -0.7266,-0.1851 -1.5039,-0.3735 -1.7275,-0.4186 -0.2235,-0.045 -0.5893,-0.1704 -0.8129,-0.2788 -0.2235,-0.1084 -1.3667,-0.4322 -2.5404,-0.7192 -1.1736,-0.2871 -2.5912,-0.7364 -3.1501,-0.9987 -0.5588,-0.2624 -1.3819,-0.5919 -1.829,-0.7323 -0.8614,-0.2704 -2.9143,-1.2468 -4.2679,-2.0298 -1.7213,-0.9957 -2.6137,-1.4283 -2.9456,-1.4283 -0.1895,0 -0.5187,-0.1927 -0.7316,-0.4284 -0.2129,-0.2356 -0.799,-0.648 -1.3019,-0.9164 -0.503,-0.2684 -1.0518,-0.5736 -1.2194,-0.6783 -0.1677,-0.1047 -0.9908,-0.5727 -1.8291,-1.04 -0.8383,-0.4672 -2.0424,-1.2496 -2.6757,-1.7385 -0.6333,-0.4889 -1.2339,-0.8889 -1.3349,-0.8889 -0.1998,0 -1.6377,-1.0492 -3.2028,-2.3371 -1.1257,-0.9262 -5.5902,-5.2854 -5.5902,-5.4583 0,-0.063 -1.2903,-1.421 -2.8674,-3.0183 -1.5771,-1.5974 -3.1429,-3.2244 -3.4797,-3.6157 -0.3369,-0.3912 -1.4929,-1.6439 -2.569,-2.7839 -2.5474,-2.6988 -3.0745,-3.2964 -3.0745,-3.4864 0,-0.086 -0.2744,-0.4199 -0.6097,-0.7411 -0.3353,-0.3213 -0.6097,-0.6644 -0.6097,-0.7628 0,-0.098 -0.2286,-0.4786 -0.5081,-0.845 -0.2794,-0.3663 -0.508,-0.725 -0.508,-0.797 0,-0.2373 -0.6955,-0.9485 -0.9276,-0.9485 -0.1251,0 -0.3319,-0.3483 -0.4595,-0.7742 -0.1276,-0.4259 -0.4701,-0.9975 -0.7611,-1.2702 -0.2911,-0.2727 -0.6593,-0.7704 -0.8181,-1.1057 -0.2938,-0.6206 -0.9482,-1.5832 -1.7633,-2.5938 -0.5255,-0.6516 -2.4225,-3.6266 -2.8818,-4.5193 -0.1725,-0.3353 -0.4947,-0.8841 -0.716,-1.2194 -0.2214,-0.3353 -0.907,-1.6328 -1.5236,-2.8833 -0.6167,-1.2506 -1.2131,-2.3306 -1.3255,-2.4001 -0.1123,-0.069 -0.2045,-0.3055 -0.2045,-0.5245 0,-0.2191 -0.5903,-1.5547 -1.3121,-2.9682 -0.7218,-1.4134 -1.2618,-2.652 -1.1997,-2.7525 0.062,-0.1005 -0.016,-0.337 -0.1749,-0.5255 -0.1585,-0.1886 -0.4559,-0.8917 -0.6609,-1.5624 -0.205,-0.6706 -0.5874,-1.7018 -0.8497,-2.2917 -0.2623,-0.5899 -0.477,-1.2043 -0.477,-1.3651 0,-0.1609 -0.1496,-0.6383 -0.3328,-1.0613 -0.6727,-1.5534 -0.9144,-2.4124 -1.1879,-4.224 -0.034,-0.2236 -0.2084,-0.8065 -0.3881,-1.2956 -0.1797,-0.4891 -0.3267,-1.0621 -0.3267,-1.2731 0,-0.211 -0.085,-0.5426 -0.1883,-0.7367 -0.2101,-0.3937 -1.2439,-4.5389 -1.3299,-5.3319 -0.03,-0.2795 -0.079,-0.5081 -0.1074,-0.5081 -0.063,0 -0.098,-0.2196 -0.4775,-2.9469 -0.1632,-1.1736 -0.3581,-2.8655 -0.4332,-3.7597 -0.075,-0.8943 -0.2294,-1.9273 -0.3429,-2.2956 -0.1136,-0.3683 -0.2858,-1.1456 -0.3824,-1.7275 -0.097,-0.5818 -0.3092,-1.6064 -0.4728,-2.2771 -0.8287,-3.3985 -1.1595,-5.1965 -1.1638,-6.3275 0,-1.0551 -0.081,-1.3183 -0.5001,-1.7122 -0.4814,-0.4522 -0.4954,-0.4534 -0.4954,-0.051 0,0.3322 -0.1004,0.3944 -0.511,0.3159 -0.2811,-0.054 -0.5576,-0.1734 -0.6147,-0.2658 -0.1882,-0.3044 1.6007,-2.0214 2.6432,-2.5369 0.5626,-0.2781 1.1849,-0.6184 1.3826,-0.756 0.3088,-0.215 0.4613,-0.1426 1.0797,0.5118 0.3961,0.4192 0.7948,0.7622 0.886,0.7622 0.091,0 0.6258,0.4344 1.1882,0.9653 1.4,1.3217 1.8413,1.6767 2.0844,1.6767 0.1143,0 0.4759,0.2743 0.8037,0.6097 0.3278,0.3353 0.6679,0.6135 0.7555,0.6179 0.088,0 0.4758,0.2789 0.8628,0.6097 0.387,0.3308 0.8074,0.6014 0.9342,0.6014 0.3154,0 1.4769,0.5913 1.6217,0.8257 0.065,0.1047 0.6839,0.184 1.376,0.1759 1.1758,-0.014 1.296,-0.06 1.8341,-0.7078 0.4624,-0.5566 0.5492,-0.814 0.4411,-1.3064 -0.074,-0.3373 -0.2604,-0.6132 -0.4141,-0.6132 -0.1537,0 -0.5081,-0.2287 -0.7875,-0.5081 -0.2795,-0.2794 -0.6903,-0.5081 -0.913,-0.5081 -0.589,0 -4.0679,-2.0387 -4.9417,-2.896 -0.1993,-0.1956 -0.4312,-0.3561 -0.515,-0.3582 -0.084,0 -0.535,-0.358 -1.0025,-0.7923 -0.4676,-0.4343 -1.1992,-1.0451 -1.6259,-1.3575 -0.4266,-0.3124 -0.8672,-0.6685 -0.979,-0.7913 -0.4336,-0.4766 -1.4839,-0.8567 -2.2917,-0.8638 z m 217.9805,51.7096 c -0.044,0 -0.088,0.01 -0.1315,0.012 -0.3522,0.052 -0.6405,0.2164 -0.6405,0.3658 0,0.1495 -0.1143,0.3447 -0.254,0.4341 -0.1397,0.089 -0.6769,0.6656 -1.1937,1.2804 -0.5168,0.6147 -1.8429,2.0851 -2.9468,3.2675 -1.104,1.1825 -2.3991,2.6001 -2.878,3.1501 l -0.8707,1.0003 -0.3979,-0.5081 c -0.2189,-0.2794 -0.5523,-0.9874 -0.7408,-1.5731 -0.6785,-2.1079 -1.9668,-3.0302 -2.9119,-2.085 -0.5099,0.5099 -0.5136,1.0681 -0.014,2.1206 0.4302,0.9067 0.9252,2.5511 0.8539,2.8357 -0.025,0.099 0.1338,0.3735 0.3525,0.6097 0.2188,0.2361 0.7327,1.1152 1.1419,1.9535 1.269,2.5997 1.4609,2.9177 1.8558,3.0751 0.63,0.2514 0.9377,0.1113 1.34,-0.609 0.2905,-0.5201 0.3498,-0.8969 0.2483,-1.5735 -0.1142,-0.7615 -0.064,-0.9623 0.3468,-1.3956 0.6023,-0.6349 0.862,-0.6354 2.1692,0 0.5795,0.2795 1.1222,0.4939 1.2064,0.4766 0.084,-0.017 0.5155,0.1288 0.9583,0.3252 1.0174,0.451 5.9391,1.7344 6.0865,1.5871 0.061,-0.06 0.2302,-0.01 0.3772,0.1117 0.3331,0.2765 2.1166,0.7113 2.7706,0.6755 1.0551,-0.058 1.3196,-0.9248 0.7202,-2.3594 -0.2526,-0.6047 -0.4,-0.735 -0.7332,-0.6478 -0.2718,0.071 -0.5686,-0.051 -0.8523,-0.3503 -0.4023,-0.4245 -1.5432,-0.837 -2.7725,-1.0028 -0.2795,-0.038 -0.7367,-0.1652 -1.0162,-0.2832 -0.2794,-0.1181 -1.011,-0.3262 -1.6258,-0.4627 -1.3488,-0.2994 -4.0987,-1.2034 -4.339,-1.4261 -0.1797,-0.1667 -0.033,-0.3341 1.5649,-1.7878 1.2406,-1.1289 3.1805,-3.6572 3.1805,-4.145 0,-0.2077 0.1174,-0.4226 0.2608,-0.4776 0.1432,-0.055 0.2421,-0.3494 0.2197,-0.6541 -0.023,-0.3048 -0.048,-0.7142 -0.057,-0.9098 -0.027,-0.5908 -0.623,-1.055 -1.2768,-1.0257 z m 118.0419,3.729 c -0.3879,0 -0.8004,0.098 -1.073,0.2886 -0.7323,0.513 -0.7138,1.2508 0.057,2.26 0.3775,0.4946 0.6862,0.9795 0.6862,1.0775 0,0.098 0.1366,0.4403 0.3036,0.7605 0.167,0.3202 0.3048,0.7366 0.3048,0.9257 0,0.189 0.081,0.3927 0.1772,0.4525 0.1647,0.1018 0.7121,2.2919 0.7408,2.964 0.01,0.1678 0.087,0.4247 0.1772,0.5709 0.09,0.1462 0.1004,0.902 0.022,1.6798 -0.1142,1.1367 -0.077,1.5132 0.1886,1.9187 0.3877,0.5917 0.3465,0.5843 1.219,0.2197 0.7697,-0.3216 0.8377,-0.5714 1.0546,-3.8814 0.1022,-1.5582 0.044,-2.115 -0.3925,-3.7598 -0.8157,-3.0741 -1.0721,-3.5985 -2.5397,-5.195 -0.1741,-0.1894 -0.5377,-0.2831 -0.9257,-0.2817 z m -143.3975,2.7398 c -1.0595,0.01 -1.2741,0.085 -2.1225,0.7802 -1.6948,1.3888 -4.0343,5.574 -4.2752,7.6485 -0.1359,1.1708 0.1926,3.2504 0.5135,3.2504 0.1025,0 0.1864,0.1262 0.1864,0.2804 0,0.3181 1.4199,1.5351 2.3372,2.0031 0.5267,0.2688 1.845,0.6032 3.2516,0.825 1.6621,0.262 6.6434,-0.2339 7.1182,-0.7088 0.075,-0.075 0.63,-0.3774 1.234,-0.6729 0.604,-0.2955 1.0981,-0.6566 1.0981,-0.8024 0,-0.1458 0.1255,-0.3691 0.2788,-0.4963 0.1533,-0.1273 0.3337,-0.5697 0.4007,-0.9832 0.097,-0.5971 0.032,-0.8474 -0.314,-1.2162 -0.5405,-0.5753 -0.9074,-0.5916 -1.08,-0.048 -0.1628,0.513 -1.7841,1.2547 -3.4597,1.5826 -1.7254,0.3377 -4.6672,0.3573 -5.9747,0.04 -2.173,-0.5277 -3.0244,-1.3851 -2.7649,-2.7846 0.1794,-0.9672 1.067,-2.6327 1.6456,-3.0878 0.2387,-0.1878 0.5939,-0.6785 0.7894,-1.0905 0.4245,-0.8944 1.2617,-1.7741 1.717,-1.8039 0.1803,-0.012 0.5729,-0.01 0.8723,0.014 1.0817,0.07 1.2267,-1.3279 0.2343,-2.2593 -0.4144,-0.389 -0.724,-0.4755 -1.6861,-0.47 z m -19.1053,4.6441 c -0.3304,-0.01 -0.5176,0.1097 -0.8215,0.4332 -0.541,0.5758 -0.5023,0.8767 0.4061,3.1469 0.246,0.6148 0.591,1.6581 0.7666,2.3187 0.4514,1.6987 2.3118,5.2435 2.9147,5.5536 0.7109,0.3657 1.3466,0.313 1.8091,-0.1495 0.4779,-0.4779 0.5166,-1.0503 0.1213,-1.7977 -0.5645,-1.0674 -1.4875,-3.1976 -1.7306,-3.9944 -0.2993,-0.9806 -0.4365,-1.3361 -1.0028,-2.5966 -0.2399,-0.5339 -0.4363,-1.1553 -0.4363,-1.3807 0,-0.6052 -0.8125,-1.3429 -1.6392,-1.4884 -0.1515,-0.027 -0.2773,-0.043 -0.3874,-0.045 z m 138.2647,3.1736 c -0.6313,0 -0.9093,0.19 -2.1768,1.4881 -0.7992,0.8184 -1.7004,1.9844 -2.0028,2.5911 -0.9199,1.8459 -1.2548,5.2044 -0.6919,6.9391 0.1554,0.479 0.3356,1.0994 0.4004,1.3788 0.1531,0.6598 1.6589,2.2838 2.5686,2.77 0.3913,0.2091 0.7579,0.4415 0.8149,0.5163 0.2057,0.2705 2.2624,0.9816 2.8389,0.9816 0.3246,0 0.6466,0.091 0.7157,0.2032 0.351,0.5679 4.4635,0 5.4841,-0.7631 1.1077,-0.8235 1.4282,-2.2881 0.7932,-3.6264 -0.2743,-0.5779 -0.4368,-0.6913 -0.9914,-0.6913 -0.737,0 -1.0353,0.2732 -1.072,0.9816 -0.039,0.7583 -0.3947,1.0039 -1.6656,1.1514 -1.1801,0.1369 -2.953,-0.098 -4.1741,-0.5544 -0.765,-0.2857 -2.1238,-1.214 -2.1295,-1.4547 -0.01,-0.2603 0.6494,-0.7197 1.0381,-0.7272 0.1821,0 0.9595,-0.3248 1.7274,-0.7139 0.768,-0.3891 1.4905,-0.7093 1.6055,-0.7113 0.3118,-0.01 1.6842,-1.395 1.8291,-1.8516 0.069,-0.2181 0,-0.676 -0.1432,-1.0177 l -0.2693,-0.6215 -1.321,0.1375 c -0.7265,0.076 -1.4124,0.2062 -1.5242,0.2899 -0.3114,0.2333 -2.1545,0.79 -3.1339,0.9466 -0.8551,0.1368 -0.8715,0.1287 -0.7142,-0.347 0.089,-0.2679 0.1673,-0.708 0.1753,-0.9781 0.01,-0.2701 0.1289,-0.5292 0.2687,-0.5757 0.1397,-0.047 0.254,-0.2118 0.254,-0.3674 0,-0.1556 0.5572,-0.8111 1.2378,-1.4566 1.8387,-1.7438 2.1907,-2.6197 1.3963,-3.4724 -0.2765,-0.2967 -0.6553,-0.4449 -1.1381,-0.4449 z m -158.2379,1.0333 c -0.307,0.01 -0.6058,0.1474 -0.9012,0.4249 -0.6108,0.5738 -0.5969,1.2565 0.058,2.8471 0.2907,0.706 0.6689,1.6494 0.8402,2.0965 0.1714,0.4471 0.5279,1.2954 0.7923,1.8853 0.2645,0.5899 0.4808,1.1209 0.4808,1.18 0,0.059 0.2736,0.6586 0.6078,1.3321 0.6572,1.3247 1.0835,1.7645 2.339,2.4134 0.5416,0.2798 1.0165,0.3813 1.4227,0.3039 0.3353,-0.064 1.3818,-0.2514 2.3254,-0.4167 0.9435,-0.1652 1.9058,-0.4252 2.1383,-0.5776 0.2326,-0.1523 0.8223,-0.3443 1.3106,-0.4268 1.0478,-0.177 2.8208,-1.0235 3.311,-1.5807 0.1905,-0.2165 0.4091,-0.8126 0.4859,-1.3248 0.1291,-0.8609 0.095,-0.9668 -0.4478,-1.4014 -0.6821,-0.5458 -1.1468,-0.5952 -1.5747,-0.1673 -0.1676,0.1676 -0.4944,0.3048 -0.7259,0.3048 -0.2315,0 -0.4211,0.078 -0.4211,0.1721 0,0.1749 -3.2936,1.4462 -4.7759,1.8434 -2.1628,0.5797 -3.0918,0.06 -3.473,-1.9408 -0.045,-0.2384 -0.2193,-0.6956 -0.3865,-1.0162 -0.1672,-0.3206 -0.3055,-0.6926 -0.3055,-0.8269 0,-0.1343 -0.3282,-0.9884 -0.7281,-1.898 -0.3999,-0.9095 -0.6727,-1.7082 -0.6062,-1.7748 0.067,-0.066 -0.173,-0.4242 -0.5322,-0.7948 -0.4313,-0.4449 -0.8393,-0.6636 -1.234,-0.6567 z m -14.1001,2.8662 0,7e-4 c -0.1895,0.01 -0.4338,0.031 -0.7634,0.069 -1.2707,0.1438 -3.1377,0.8844 -3.5835,1.4216 -0.1369,0.165 -0.3649,0.3001 -0.5065,0.3001 -0.1416,0 -0.5192,0.3344 -0.839,0.7431 -0.3198,0.4087 -0.7746,0.9802 -1.0107,1.2702 -1.3287,1.6306 -2.3283,4.8865 -1.9085,6.2163 0.9284,2.9409 1.0374,3.1709 1.8554,3.9138 0.4613,0.4189 1.0328,0.8234 1.2702,0.899 0.6069,0.193 5.0136,0.1536 5.5486,-0.05 0.2433,-0.093 0.9292,-0.2209 1.5242,-0.2858 1.3537,-0.1475 4.1398,-0.8068 5.7991,-1.3721 1.0407,-0.3546 1.306,-0.5401 1.5105,-1.0559 0.1365,-0.3441 0.3566,-0.8999 0.4891,-1.2352 0.2458,-0.6222 0.088,-1.2485 -0.3963,-1.5719 -0.4055,-0.2707 -1.4815,-0.1618 -1.9761,0.2001 -0.87,0.6364 -1.2951,0.8123 -2.8313,1.1698 -0.8323,0.1937 -2.2171,0.5248 -3.077,0.7358 -0.86,0.211 -2.369,0.4382 -3.3534,0.5052 -1.6586,0.1129 -1.8418,0.086 -2.501,-0.363 -0.6148,-0.419 -0.7363,-0.6416 -0.8955,-1.6401 -0.1564,-0.9812 -0.1105,-1.4012 0.3049,-2.7874 0.269,-0.8977 0.5958,-1.6332 0.7262,-1.6332 0.1304,0 0.2676,-0.08 0.3049,-0.1765 0.1404,-0.3645 3.207,-2.2633 3.6597,-2.2661 0.8008,0 1.4203,-0.4703 1.6913,-1.2695 0.2331,-0.6876 0.2178,-0.8164 -0.1521,-1.2867 -0.2424,-0.3082 -0.3697,-0.4324 -0.7174,-0.4497 -0.052,0 -0.1092,0 -0.1724,0 z m 148.5911,2.0314 c -0.065,0 -0.1369,-10e-5 -0.2163,0 -0.6045,0.023 -0.9568,0.273 -2.3324,1.6541 -0.8911,0.8948 -1.6204,1.7279 -1.6204,1.852 0,0.124 -0.1714,0.3723 -0.3811,0.5519 -0.5421,0.4641 -1.2685,2.8703 -1.3534,4.4831 -0.1032,1.9613 0.3356,3.0767 1.8948,4.8172 0.981,1.0951 1.4714,1.4786 2.1101,1.6506 0.4577,0.1233 0.9799,0.3073 1.1607,0.409 0.1808,0.1017 0.6487,0.2696 1.04,0.3731 1.1218,0.2968 3.3902,0.2574 4.1802,-0.073 0.4682,-0.1956 0.8078,-0.5262 0.9917,-0.9653 0.1538,-0.3673 0.3525,-0.7402 0.4417,-0.8288 0.239,-0.2376 0.083,-1.8228 -0.2144,-2.1762 -0.8001,-0.9512 -0.2371,-1.5724 1.4973,-1.6515 0.5781,-0.026 1.0907,-0.1123 1.1393,-0.1909 0.049,-0.079 0.5146,-0.2067 1.0356,-0.2848 0.7628,-0.1144 1.1609,-0.3446 2.0459,-1.1816 1.0108,-0.9559 1.0907,-1.097 0.994,-1.7612 -0.058,-0.3971 -0.1085,-0.7907 -0.1128,-0.8745 -0.013,-0.2527 -1.3249,-0.1717 -2.1958,0.1356 -0.449,0.1584 -1.8097,0.3873 -3.024,0.5087 -1.2144,0.1214 -2.8935,0.3637 -3.7312,0.5383 -0.8378,0.1746 -1.8402,0.381 -2.2276,0.4588 -0.5687,0.1142 -0.7405,0.268 -0.8923,0.7974 -0.1587,0.5533 -0.1056,0.7802 0.3407,1.4547 0.2909,0.4396 0.8985,1.1761 1.3499,1.6366 0.4514,0.4606 0.8205,1.0112 0.8205,1.2232 0,0.3279 -0.1139,0.3702 -0.7621,0.2845 -3.9727,-0.5251 -5.7426,-2.5429 -4.8544,-5.5339 0.3257,-1.0968 0.4913,-1.3613 1.4211,-2.2673 0.917,-0.8935 1.28,-1.1684 1.7316,-1.3118 0.5467,-0.1735 1.2444,-1.0665 1.2444,-1.5925 0,-0.2266 -0.2307,-0.8059 -0.5128,-1.2873 -0.4005,-0.6833 -0.5514,-0.8385 -1.0085,-0.8507 z m 52.4939,4.4714 c -0.124,0 -0.2678,0.022 -0.4411,0.049 -1.0173,0.1581 -1.3496,0.5502 -1.3496,1.5931 0,0.8005 0.189,1.1162 0.9086,1.5172 0.6003,0.3347 1.5828,-0.1339 1.8335,-0.8742 0.1108,-0.3272 0.3623,-0.7141 0.5589,-0.8602 0.4376,-0.3252 0.4637,-0.6491 0.052,-0.6491 -0.1677,0 -0.4977,-0.1931 -0.7336,-0.429 -0.2649,-0.2649 -0.4572,-0.3605 -0.8291,-0.3464 z m -72.086,0.2111 c -0.25,0.01 -0.4938,0.083 -0.7247,0.2347 -0.5942,0.3894 -0.7108,1.4046 -0.2232,1.9434 0.1617,0.1787 0.5921,1.0092 0.9564,1.8453 0.6051,1.3885 0.6657,1.7176 0.7006,3.7994 0.043,2.5734 -0.085,2.8713 -1.0626,2.4671 -0.321,-0.1328 -0.6293,-0.2566 -0.6852,-0.2753 -0.3395,-0.1138 -1.4377,-0.5845 -2.134,-0.9146 -0.4471,-0.2119 -1.0415,-0.4818 -1.321,-0.5995 -0.4814,-0.2027 -2.0449,-1.208 -4.5199,-2.9062 -0.611,-0.4192 -1.2158,-0.7621 -1.3439,-0.7621 -0.1282,0 -0.2331,-0.076 -0.2331,-0.1696 0,-0.093 -0.5079,-0.5192 -1.1289,-0.9469 -1.3901,-0.9575 -2.3751,-1.0202 -3.091,-0.1966 -0.2531,0.2912 -0.4126,0.6062 -0.3547,0.6999 0.058,0.094 0.1184,0.5673 0.1347,1.0523 0.016,0.4851 0.1044,1.0863 0.1962,1.3363 0.092,0.25 0.2256,0.8901 0.2972,1.4226 0.072,0.5325 0.302,1.6417 0.5119,2.4648 0.2099,0.8232 0.3291,1.5817 0.2648,1.6856 -0.064,0.1039 -0.01,0.3206 0.1264,0.4817 0.1572,0.1893 0.233,1.0023 0.2147,2.2997 -0.028,1.9697 0.1775,3.0121 0.6567,3.3371 0.2275,0.1543 1.655,0.039 1.9767,-0.1601 0.082,-0.05 0.261,-0.6883 0.3985,-1.4175 0.2698,-1.4295 0.1672,-3.0763 -0.3416,-5.4875 -0.1652,-0.7825 -0.3227,-1.7027 -0.35,-2.0447 -0.027,-0.3421 -0.1169,-0.7308 -0.1991,-0.8638 -0.1749,-0.283 0.068,-0.7745 0.2556,-0.5173 0.2254,0.309 4.1773,2.8766 4.6308,3.0088 0.2414,0.07 0.5498,0.2615 0.6853,0.4249 0.1356,0.1633 0.5019,0.2969 0.8142,0.2969 0.3123,0 0.5985,0.071 0.6357,0.1588 0.2031,0.4761 3.795,1.8663 5.6092,2.1711 l 0.8669,0.1457 0.4008,-0.906 c 0.2204,-0.4983 0.5533,-1.0324 0.7396,-1.187 0.6233,-0.5169 0.8928,-1.5589 0.9034,-3.4911 0.015,-2.8027 -0.5085,-4.4327 -2.2559,-7.0194 -0.6005,-0.889 -1.2676,-1.373 -1.9002,-1.409 -0.036,0 -0.072,0 -0.1073,0 z m -28.8172,5.8483 c -0.3616,2e-4 -1.0734,0.3707 -1.4655,0.7628 -0.3835,0.3834 -1.0267,4.4414 -1.1467,7.2344 -0.052,1.2127 -0.1405,2.2787 -0.1962,2.3689 -0.1189,0.1923 0,2.3848 0.2003,3.5553 0.2041,1.2205 0.5284,1.9926 1.0013,2.3835 0.5447,0.4502 0.6893,0.445 1.5067,-0.053 0.5636,-0.3435 0.6686,-0.5207 0.6313,-1.0663 -0.025,-0.3598 -0.032,-1.0873 -0.016,-1.6166 l 0.03,-0.9625 1.2137,-0.6126 c 0.6675,-0.3369 1.3332,-0.6125 1.4792,-0.6125 0.146,0 0.422,-0.1829 0.6135,-0.4065 0.5261,-0.6145 1.3903,-0.5159 2.2257,0.254 0.3941,0.3633 1.0888,1.0035 1.5436,1.4227 0.4548,0.4191 0.9062,0.7621 1.0034,0.7621 0.097,0 0.3597,0.1701 0.583,0.3782 0.2234,0.208 0.8123,0.6017 1.3087,0.8748 1.2082,0.6648 1.8813,0.4446 2.3441,-0.7672 l 0.3283,-0.8599 -0.6817,-0.6198 c -0.3751,-0.3411 -0.765,-0.6227 -0.8666,-0.6259 -0.5767,-0.019 -4.5843,-3.6684 -5.6972,-5.1885 -0.3273,-0.4471 -0.8193,-1.0415 -1.0933,-1.321 -0.2739,-0.2794 -0.8392,-0.9653 -1.2562,-1.5242 -0.417,-0.5589 -0.9533,-1.1903 -1.1918,-1.4032 -0.2384,-0.213 -0.4337,-0.4538 -0.4337,-0.5351 0,-0.2746 -1.6702,-1.8207 -1.9676,-1.8215 l 0,0 z m 1.1419,5.963 c 0.1595,0.01 0.4073,0.24 0.8383,0.7068 0.7977,0.8639 0.9383,1.1508 0.6484,1.3223 -0.084,0.05 -0.5316,0.1529 -0.9952,0.2296 -0.9012,0.149 -1.1923,-0.04 -1.0072,-0.6532 0.059,-0.1946 0.1519,-0.6166 0.2073,-0.9377 0.077,-0.4496 0.1489,-0.6732 0.3084,-0.6678 z m -16.7768,0.8008 c -0.9115,0.042 -1.2675,0.7339 -1.3254,2.3711 -0.024,0.6763 -0.1727,1.1623 -0.4611,1.5075 -0.3934,0.4709 -0.5774,0.5141 -2.4365,0.5731 l -2.0111,0.064 -0.3283,-0.6097 c -0.1805,-0.3354 -0.3313,-0.7012 -0.335,-0.813 -0.016,-0.4856 -0.5819,-1.296 -0.979,-1.4026 -1.7569,-0.4715 -2.456,0.7661 -1.5547,2.7522 0.2211,0.4873 0.404,1.2682 0.4064,1.7351 0,0.6484 0.1187,0.9385 0.4875,1.2286 0.4733,0.3724 1.3461,1.8584 1.3461,2.2921 0,0.1209 0.1891,0.4219 0.4201,0.6687 0.2309,0.2469 0.565,0.7535 0.7424,1.126 0.4122,0.8655 1.2065,1.2093 1.6147,0.699 0.3347,-0.4183 0.2284,-2.767 -0.1454,-3.2174 -0.1234,-0.1487 -0.1944,-0.4813 -0.1578,-0.739 0.058,-0.4082 0.2232,-0.4885 1.2857,-0.6259 2.1932,-0.2834 3.3843,-0.5852 3.6652,-0.9281 0.1518,-0.1854 0.4536,-0.5626 0.6703,-0.8384 0.3368,-0.4285 0.4411,-0.4624 0.7186,-0.2321 0.454,0.3768 3.1768,4.2168 3.1768,4.4803 0,0.1189 0.075,0.2162 0.1676,0.2162 0.092,0 0.4308,0.5716 0.7526,1.2702 0.3219,0.6986 0.6811,1.3812 0.798,1.5166 0.2346,0.2717 0.7824,0.3213 1.4811,0.134 0.9237,-0.2475 1.0141,-2.3537 0.1514,-3.5305 -0.1229,-0.1676 -0.3337,-0.5334 -0.4683,-0.8129 -0.1346,-0.2794 -0.4036,-0.7453 -0.598,-1.0352 -1.1706,-1.7456 -1.5994,-2.3404 -1.8179,-2.5213 -0.135,-0.1118 -0.3731,-0.4541 -0.5291,-0.7606 -0.1559,-0.3064 -0.5741,-0.9009 -0.9288,-1.321 -0.3548,-0.42 -0.9908,-1.2667 -1.4134,-1.8814 -0.681,-0.9907 -0.8755,-1.1388 -1.7129,-1.3026 -0.1778,-0.035 -0.3415,-0.056 -0.4919,-0.063 -0.066,0 -0.1291,0 -0.1899,0 l 0,-3e-4 z m -21.2957,3.2171 c -0.063,0 -0.1256,0 -0.1873,0 -1.0866,0.036 -1.9756,0.5456 -3.5893,1.805 -1.2069,0.9419 -2.4419,2.2233 -2.4419,2.5337 0,0.137 -0.1311,0.5147 -0.2916,0.8393 -0.3414,0.6906 -0.7266,3.3082 -0.5068,3.4441 0.083,0.051 0.1081,0.2555 0.056,0.4538 -0.2037,0.7789 1.3666,2.8284 2.6871,3.5076 0.4952,0.2547 0.9003,0.5403 0.9003,0.6345 0,0.094 0.1646,0.1711 0.3658,0.1711 0.2012,0 0.4527,0.083 0.5589,0.1845 0.2957,0.2824 1.6842,0.6658 3.0383,0.839 1.4398,0.1841 7.108,0.041 8.449,-0.2134 1.5111,-0.2866 2.6754,-0.8191 3.5029,-1.602 0.6908,-0.6537 0.7601,-0.8076 0.6436,-1.4334 -0.2189,-1.1773 -1.3034,-1.6232 -2.0205,-0.8308 -0.7151,0.7902 -2.8522,1.1041 -7.3462,1.0794 -2.9102,-0.016 -5.5446,-0.4873 -6.2881,-1.1251 -1.928,-1.6539 -2.1056,-2.1624 -1.2829,-3.6753 0.1124,-0.2065 0.1598,-0.4201 0.1055,-0.4744 -0.1931,-0.1931 1.8375,-2.3003 2.2168,-2.3003 0.1307,0 0.4782,-0.1891 0.7719,-0.4201 0.4697,-0.3695 0.6152,-0.3908 1.2077,-0.1766 0.5792,0.2094 0.8077,0.1845 1.6274,-0.1781 0.784,-0.3468 0.9533,-0.516 0.9533,-0.9514 0,-1.0533 -0.4983,-1.6331 -1.6268,-1.8936 -0.5793,-0.1337 -1.0611,-0.2125 -1.5033,-0.2191 z m -37.7489,11.1818 c -0.3971,0.01 -0.6258,0.1228 -1.0139,0.3992 -0.3701,0.2635 -0.8863,0.4514 -1.147,0.4172 -0.9887,-0.1295 -2.3846,1.4494 -2.8776,3.2549 -0.2715,0.994 -0.131,3.0151 0.2096,3.0151 0.1013,0 0.1841,0.1421 0.1841,0.3157 0,1.0636 3.0406,3.6997 4.3069,3.734 0.3008,0.01 0.5925,0.089 0.6485,0.1794 0.056,0.091 0.5393,0.1874 1.0739,0.215 0.5346,0.028 1.0169,0.096 1.0721,0.1509 0.055,0.055 0.4692,0.036 0.9199,-0.042 0.4507,-0.078 0.9565,-0.1385 1.1241,-0.1334 0.4866,0.014 2.2656,-0.531 2.7278,-0.8365 0.5155,-0.3407 1.6247,-2.534 1.9189,-3.7943 0.2499,-1.0707 0.1423,-1.6317 -0.5141,-2.6808 -0.2609,-0.4169 -0.4744,-0.8389 -0.4744,-0.9377 0,-0.099 -0.3887,-0.4387 -0.8637,-0.7554 -0.4751,-0.3167 -1.0924,-0.7804 -1.3719,-1.0305 -0.5737,-0.5134 -2.0401,-1.0587 -3.1916,-1.1867 -0.4242,-0.047 -1.289,-0.1483 -1.9218,-0.2248 -0.2529,-0.031 -0.4563,-0.051 -0.6285,-0.058 -0.064,0 -0.1246,0 -0.1813,0 z m -7.8942,0.048 c -0.3592,0 -0.8126,0.01 -1.2734,0.033 -1.5077,0.086 -2.1153,0.1514 -3.8096,0.4084 -0.2795,0.042 -0.9671,0.1211 -1.5284,0.1749 -1.7591,0.1686 -6.8508,1.1343 -8.1251,1.5411 -0.6707,0.2141 -1.7224,0.4833 -2.3372,0.5983 -0.6148,0.115 -2.1237,0.4627 -3.3533,0.7726 l -2.2355,0.5633 -0.064,0.7853 c -0.133,1.6206 1.0337,2.0735 3.9395,1.5293 0.6633,-0.1242 1.4344,-0.2248 1.7138,-0.2248 0.2795,0 0.6453,-0.1132 0.813,-0.2528 0.1676,-0.1395 0.8535,-0.3674 1.5242,-0.5065 0.6707,-0.1391 1.5852,-0.3431 2.0323,-0.4534 0.4471,-0.1104 1.0873,-0.2158 1.4226,-0.2341 0.5275,-0.029 0.6247,0.049 0.7209,0.5764 0.1024,0.5619 0.3256,1.1333 1.1288,2.8922 0.165,0.3612 0.2967,0.7043 0.2928,0.7621 0,0.058 0.1722,0.5766 0.3912,1.153 0.2191,0.5765 0.3554,1.1174 0.303,1.2023 -0.052,0.085 -0.015,0.1848 0.084,0.2223 0.2237,0.085 1.4493,2.5028 1.4493,2.8588 0,0.1441 0.3786,0.6521 0.8412,1.1286 0.8887,0.9157 1.2842,0.9702 2.0637,0.2852 0.5302,-0.466 0.2962,-2.034 -0.5668,-3.7979 -0.3828,-0.7824 -0.7595,-1.6908 -0.8371,-2.0187 -0.078,-0.3279 -0.2637,-0.8308 -0.4134,-1.1177 -0.1497,-0.2869 -0.2734,-0.7092 -0.2734,-0.9384 0,-0.2291 -0.081,-0.5035 -0.1775,-0.6097 -0.2816,-0.3085 -0.8399,-2.1435 -0.8399,-2.7604 0,-0.4939 0.095,-0.5802 0.7621,-0.692 0.4191,-0.07 1.3108,-0.2688 1.9815,-0.441 0.6706,-0.1723 1.6956,-0.3846 2.2774,-0.4722 1.2149,-0.1829 2.4846,-0.5647 2.8542,-0.858 0.3703,-0.294 0.3297,-1.9085 -0.052,-2.0549 -0.084,-0.032 -0.349,-0.051 -0.7081,-0.055 z m 8.0285,2.1663 c 0.3984,0 0.8612,0.1742 1.4782,0.5027 0.525,0.2794 1.1215,0.5081 1.3261,0.5081 0.4553,0 1.9808,0.8746 2.4718,1.4172 0.4511,0.4984 0.744,2.004 0.5398,2.7747 -0.088,0.3321 -0.3845,0.6955 -0.6875,0.8428 -0.8947,0.4348 -4.8267,0.4617 -4.8267,0.033 0,-0.1047 -0.2106,-0.1902 -0.4684,-0.1902 -0.7835,0 -1.8279,-0.9288 -2.1069,-1.8739 -0.1671,-0.5659 -0.184,-0.9314 -0.05,-1.0926 0.1106,-0.1333 0.187,-0.3208 0.1699,-0.4164 -0.09,-0.5014 0.084,-0.8906 0.744,-1.6614 0.4915,-0.5742 0.8977,-0.848 1.4099,-0.844 z m 67.9167,25.1308 c -0.4317,0.01 -0.8914,0.1516 -1.3109,0.4239 -0.6921,0.4493 -0.6425,1.7711 0.088,2.3549 0.3,0.2397 0.6886,0.4979 0.8637,0.5739 0.5398,0.2342 1.3396,0.1806 1.7469,-0.1172 0.298,-0.2179 0.3753,-0.4897 0.3324,-1.1686 -0.08,-1.263 -0.1685,-1.4679 -0.7954,-1.8383 -0.2703,-0.1597 -0.5893,-0.2351 -0.925,-0.2286 z m -13.8715,3.0888 c -0.7373,-0.019 -1.2731,0.4252 -1.4144,1.2613 -0.1313,0.7772 -0.087,0.8916 0.6326,1.6284 0.4256,0.4359 0.8641,0.7926 0.9742,0.7926 0.1101,0 0.5016,-0.2058 0.8701,-0.4573 0.6231,-0.4252 0.6685,-0.5326 0.6462,-1.5328 -0.021,-0.9631 -0.084,-1.1067 -0.5966,-1.3718 -0.4004,-0.2071 -0.777,-0.3117 -1.1121,-0.3204 z m 15.7685,10.2904 c -0.6041,0.03 -1.0799,0.4272 -1.442,1.1975 -0.3011,0.6406 -0.7763,1.0896 -2.0345,1.9218 -1.4203,0.9394 -1.8248,1.1061 -2.9983,1.2366 -1.4996,0.1666 -3.223,0.1444 -3.6937,-0.047 -0.1677,-0.068 -0.7733,-0.2574 -1.3458,-0.4207 -0.5725,-0.1633 -1.3224,-0.4426 -1.6665,-0.6205 -0.3441,-0.178 -0.7687,-0.3236 -0.9434,-0.3236 -0.3369,0 -1.5155,-1.179 -1.5255,-1.5261 -0.011,-0.3816 -0.8106,-0.7191 -1.3801,-0.5824 -0.9884,0.2371 -1.5922,1.157 -1.2851,1.958 0.5069,1.3224 4.1059,3.7552 6.1223,4.1386 0.3867,0.073 0.886,0.228 1.1095,0.3433 0.2236,0.1153 0.9552,0.273 1.6259,0.3502 1.8441,0.2123 2.1428,0.2041 3.3533,-0.091 1.6094,-0.393 2.6898,-0.8691 4.1338,-1.8215 2.3506,-1.5504 3.1301,-2.301 3.252,-3.132 0.061,-0.415 0.1721,-1.0519 0.2471,-1.4156 0.1275,-0.6186 0.087,-0.6815 -0.6246,-0.979 -0.3288,-0.1374 -0.6298,-0.1995 -0.9044,-0.1858 z"
     id="path3340" />
</svg>
