<?xml version="1.0" encoding="UTF-8" standalone="no"?>
<svg
   xmlns:dc="http://purl.org/dc/elements/1.1/"
   xmlns:cc="http://creativecommons.org/ns#"
   xmlns:rdf="http://www.w3.org/1999/02/22-rdf-syntax-ns#"
   xmlns:svg="http://www.w3.org/2000/svg"
   xmlns="http://www.w3.org/2000/svg"
   xmlns:xlink="http://www.w3.org/1999/xlink"
   xmlns:sodipodi="http://sodipodi.sourceforge.net/DTD/sodipodi-0.dtd"
   xmlns:inkscape="http://www.inkscape.org/namespaces/inkscape"
   viewBox="0 75 320 568"
   id="svg2"
   version="1.1"
   inkscape:version="0.91 r13725"
   sodipodi:docname="website_background_10_lighter_mobile.svg"
   width="320"
   height="568">
  <metadata
     id="metadata103">
    <rdf:RDF>
      <cc:Work
         rdf:about="">
        <dc:format>image/svg+xml</dc:format>
        <dc:type
           rdf:resource="http://purl.org/dc/dcmitype/StillImage" />
        <dc:title></dc:title>
      </cc:Work>
    </rdf:RDF>
  </metadata>
  <sodipodi:namedview
     pagecolor="#e1d4d4"
     bordercolor="#666666"
     borderopacity="1"
     objecttolerance="10"
     gridtolerance="10"
     guidetolerance="10"
     inkscape:pageopacity="0"
     inkscape:pageshadow="2"
     inkscape:window-width="3062"
     inkscape:window-height="1752"
     id="namedview101"
     showgrid="false"
     inkscape:zoom="0.7599041"
     inkscape:cx="610.13102"
     inkscape:cy="421.78502"
     inkscape:window-x="138"
     inkscape:window-y="48"
     inkscape:window-maximized="1"
     inkscape:current-layer="svg2" />
  <defs
     id="defs4">
    <g
       id="grouped-triangle">
      <polygon
         class="background-triangle"
         points="0,130 150,130 75,0 "
         id="polygon7"
         style="fill:#2c2335;stroke:#000000;stroke-width:1" />
      <path
         class="symbol"
         d="m -13.518506,-13.518506 27.037012,0 0,27.037012 -27.037012,0 z"
         transform="matrix(0.34202014,-0.93969262,0.93969262,0.34202014,82.160195,55.285379)"
         id="path9"
         inkscape:connector-curvature="0"
         style="opacity:0.8;fill:#b82a39;stroke:#000000;stroke-width:1" />
      <path
         class="symbol"
         d="m -14.637281,-14.637281 29.274562,0 0,29.274562 -29.274562,0 z"
         transform="matrix(-0.9612617,0.27563736,-0.27563736,-0.9612617,42.697609,100.7344)"
         id="path11"
         inkscape:connector-curvature="0"
         style="opacity:0.8;fill:#87984d;stroke:#000000;stroke-width:1" />
      <path
         class="symbol"
         d="m 8.690038,5.0171958 0,17.3800762 -17.380076,0 0,-17.3800762 -15.051587,-8.690038 L -15.051587,-18.72443 0,-10.034392 15.051587,-18.72443 23.741625,-3.6728422 Z"
         transform="matrix(-0.80901699,0.58778525,-0.58778525,-0.80901699,68.062297,70.762236)"
         id="path13"
         inkscape:connector-curvature="0"
         style="opacity:0.8;fill:#b82a39;stroke:#000000;stroke-width:1" />
      <path
         class="symbol"
         d="m -14.688431,-14.688431 29.376862,0 0,29.376862 -29.376862,0 z"
         transform="matrix(0.95630476,0.2923717,-0.2923717,0.95630476,58.99675,72.589928)"
         id="path15"
         inkscape:connector-curvature="0"
         style="opacity:0.8;fill:#b82a39;stroke:#000000;stroke-width:1" />
      <path
         class="symbol"
         d="m 0,-29.060124 6.5244044,20.0800518 21.1134156,0 L 10.556708,3.4300824 17.081112,23.510134 0,11.09998 -17.081112,23.510134 -10.556708,3.4300824 -27.63782,-8.9800722 l 21.1134156,0 z"
         transform="matrix(-0.1391731,0.99026807,-0.99026807,-0.1391731,59.233486,95.655656)"
         id="path17"
         inkscape:connector-curvature="0"
         style="opacity:0.8;fill:#b82a39;stroke:#000000;stroke-width:1" />
      <path
         class="symbol"
         d="m -14.044572,-14.044572 28.089144,0 0,28.089144 -28.089144,0 z"
         transform="matrix(0.87461971,-0.48480962,0.48480962,0.87461971,56.097901,108.71617)"
         id="path19"
         inkscape:connector-curvature="0"
         style="opacity:0.8;fill:#87984d;stroke:#000000;stroke-width:1" />
      <path
         class="symbol"
         d="m 9.3830807,5.4173241 0,18.7661609 -18.7661614,0 0,-18.7661609 L -25.635053,-3.9657565 -16.251972,-20.217729 0,-10.834648 l 16.251972,-9.383081 9.383081,16.2519725 z"
         transform="matrix(0.43837115,-0.89879405,0.89879405,0.43837115,76.60277,102.36851)"
         id="path21"
         inkscape:connector-curvature="0"
         style="opacity:0.8;fill:#1f6b63;stroke:#000000;stroke-width:1" />
      <path
         class="symbol"
         d="m 0,-31.622313 27.385726,47.433469 -54.771452,0 z"
         transform="matrix(-0.68199836,-0.7313537,0.7313537,-0.68199836,65.876332,90.096455)"
         id="path23"
         inkscape:connector-curvature="0"
         style="opacity:0.8;fill:#73343a;stroke:#000000;stroke-width:1" />
      <path
         class="symbol"
         d="m -15.724185,-15.724185 31.44837,0 0,31.44837 -31.44837,0 z"
         transform="matrix(0.99254615,0.12186934,-0.12186934,0.99254615,46.42495,91.340149)"
         id="path25"
         inkscape:connector-curvature="0"
         style="opacity:0.8;fill:#f2692d;stroke:#000000;stroke-width:1" />
    </g>
    <g
       id="unrotated-hexagon">
      <g
         id="half-hexagon-1">
        <use
           xlink:href="#grouped-triangle"
           transform="translate(-75,0)"
           id="use29"
           x="0"
           y="0"
           width="100%"
           height="100%" />
        <use
           xlink:href="#grouped-triangle"
           transform="matrix(-0.5,0.8660254,-0.8660254,-0.5,37.5,-64.951905)"
           id="use31"
           x="0"
           y="0"
           width="100%"
           height="100%" />
        <use
           xlink:href="#grouped-triangle"
           transform="matrix(-0.5,-0.8660254,0.8660254,-0.5,37.5,64.951905)"
           id="use33"
           x="0"
           y="0"
           width="100%"
           height="100%" />
      </g>
      <g
         id="half-hexagon-2">
        <use
           xlink:href="#half-hexagon-1"
           transform="matrix(-0.5,-0.8660254,-0.8660254,0.5,0,0)"
           id="use36"
           x="0"
           y="0"
           width="100%"
           height="100%" />
      </g>
    </g>
    <g
       id="hexagon">
      <use
         xlink:href="#unrotated-hexagon"
         transform="matrix(0.8660254,0.5,-0.5,0.8660254,0,0)"
         id="use39"
         x="0"
         y="0"
         width="100%"
         height="100%" />
    </g>
  </defs>
  <g
     id="kaleidoscope"
     transform="translate(-222.39649,62.200565)">
    <g
       id="centre"
       style="fill-opacity:0.7">
      <use
         xlink:href="#hexagon"
         transform="translate(391,375)"
         id="use43"
         x="0"
         y="0"
         width="100%"
         height="100%" />
    </g>
    <g
       id="ring1"
       style="fill-opacity:0.6;stroke-opacity:0.8">
      <use
         xlink:href="#hexagon"
         transform="translate(261,150)"
         id="use46"
         x="0"
         y="0"
         width="100%"
         height="100%" />
      <use
         xlink:href="#hexagon"
         transform="translate(521,150)"
         id="use48"
         x="0"
         y="0"
         width="100%"
         height="100%" />
      <use
         xlink:href="#hexagon"
         transform="translate(131,375)"
         id="use50"
         x="0"
         y="0"
         width="100%"
         height="100%" />
      <use
         xlink:href="#hexagon"
         transform="translate(651,375)"
         id="use52"
         x="0"
         y="0"
         width="100%"
         height="100%" />
      <use
         xlink:href="#hexagon"
         transform="translate(261,600)"
         id="use54"
         x="0"
         y="0"
         width="100%"
         height="100%" />
      <use
         xlink:href="#hexagon"
         transform="translate(521,600)"
         id="use56"
         x="0"
         y="0"
         width="100%"
         height="100%" />
    </g>
    <g
       id="ring2"
       style="fill-opacity:0.5;stroke-opacity:0.7">
      <use
         xlink:href="#hexagon"
         transform="translate(131,-75)"
         id="use59"
         x="0"
         y="0"
         width="100%"
         height="100%" />
      <use
         xlink:href="#hexagon"
         transform="translate(391,-75)"
         id="use61"
         x="0"
         y="0"
         width="100%"
         height="100%" />
      <use
         xlink:href="#hexagon"
         transform="translate(651,-75)"
         id="use63"
         x="0"
         y="0"
         width="100%"
         height="100%" />
      <use
         xlink:href="#hexagon"
         transform="translate(781,150)"
         id="use65"
         x="0"
         y="0"
         width="100%"
         height="100%" />
      <use
         xlink:href="#hexagon"
         transform="translate(1,150)"
         id="use67"
         x="0"
         y="0"
         width="100%"
         height="100%" />
      <use
         xlink:href="#hexagon"
         transform="translate(911,375)"
         id="use69"
         x="0"
         y="0"
         width="100%"
         height="100%" />
      <use
         xlink:href="#hexagon"
         transform="translate(1,600)"
         id="use71"
         x="0"
         y="0"
         width="100%"
         height="100%" />
      <use
         xlink:href="#hexagon"
         transform="translate(781,600)"
         id="use73"
         x="0"
         y="0"
         width="100%"
         height="100%" />
      <use
         xlink:href="#hexagon"
         transform="translate(131,825)"
         id="use75"
         x="0"
         y="0"
         width="100%"
         height="100%" />
      <use
         xlink:href="#hexagon"
         transform="translate(391,825)"
         id="use77"
         x="0"
         y="0"
         width="100%"
         height="100%" />
      <use
         xlink:href="#hexagon"
         transform="translate(651,825)"
         id="use79"
         x="0"
         y="0"
         width="100%"
         height="100%" />
    </g>
    <g
       id="ring3"
       style="fill-opacity:0.4;stroke-opacity:0.6">
      <use
         xlink:href="#hexagon"
         transform="translate(911,-75)"
         id="use82"
         x="0"
         y="0"
         width="100%"
         height="100%" />
      <use
         xlink:href="#hexagon"
         transform="translate(1041,150)"
         id="use84"
         x="0"
         y="0"
         width="100%"
         height="100%" />
      <use
         xlink:href="#hexagon"
         transform="translate(1171,375)"
         id="use86"
         x="0"
         y="0"
         width="100%"
         height="100%" />
      <use
         xlink:href="#hexagon"
         transform="translate(1041,600)"
         id="use88"
         x="0"
         y="0"
         width="100%"
         height="100%" />
      <use
         xlink:href="#hexagon"
         transform="translate(911,825)"
         id="use90"
         x="0"
         y="0"
         width="100%"
         height="100%" />
      <use
         xlink:href="#hexagon"
         transform="translate(1,1050)"
         id="use92"
         x="0"
         y="0"
         width="100%"
         height="100%" />
      <use
         xlink:href="#hexagon"
         transform="translate(261,1050)"
         id="use94"
         x="0"
         y="0"
         width="100%"
         height="100%" />
      <use
         xlink:href="#hexagon"
         transform="translate(521,1050)"
         id="use96"
         x="0"
         y="0"
         width="100%"
         height="100%" />
      <use
         xlink:href="#hexagon"
         transform="translate(781,1050)"
         id="use98"
         x="0"
         y="0"
         width="100%"
         height="100%" />
    </g>
  </g>
  <path
     id="kaleidoscope-cover"
     d="m 1,644 1006,0 34,-20 0,-150 130,-75 0,-150 130,-75 0,-150 -130,-75 0,-150 -1171,0 z"
     inkscape:connector-curvature="0"
     style="fill:#ffffff;fill-opacity:0;stroke:#000000;stroke-width:3" />
  <flowRoot
     xml:space="preserve"
     id="flowRoot4249"
     style="font-style:normal;font-weight:normal;font-size:40px;line-height:125%;font-family:sans-serif;letter-spacing:0px;word-spacing:0px;fill:#000000;fill-opacity:1;stroke:none;stroke-width:1px;stroke-linecap:butt;stroke-linejoin:miter;stroke-opacity:1"
     transform="translate(0,-276)"><flowRegion
       id="flowRegion4251"><rect
         id="rect4253"
         width="399.39252"
         height="76.983398"
         x="928.40662"
         y="402.49692" /></flowRegion><flowPara
       id="flowPara4255" /></flowRoot>  <flowRoot
     xml:space="preserve"
     id="flowRoot4261"
     style="font-style:normal;font-weight:normal;font-size:40px;line-height:125%;font-family:sans-serif;letter-spacing:0px;word-spacing:0px;fill:#000000;fill-opacity:1;stroke:none;stroke-width:1px;stroke-linecap:butt;stroke-linejoin:miter;stroke-opacity:1"
     transform="translate(0,-276)"><flowRegion
       id="flowRegion4263"><rect
         id="rect4265"
         width="429.65948"
         height="111.85622"
         x="926.43268"
         y="395.25916" /></flowRegion><flowPara
       id="flowPara4267" /></flowRoot>  <g
     id="g4285"
     transform="translate(-869.18863,-141.11456)">
    <rect
       y="306.44724"
       x="896.19025"
       height="195.37041"
       width="265.77405"
       id="rect4231"
       style="opacity:1;fill:#e1d4d4;fill-opacity:1;stroke:#000000;stroke-width:1.88666737;stroke-miterlimit:4;stroke-dasharray:none;stroke-dashoffset:0;stroke-opacity:1" />
    <flowRoot
       transform="translate(3.9478592,5.9123339)"
       style="font-style:normal;font-weight:normal;font-size:40px;line-height:125%;font-family:sans-serif;letter-spacing:0px;word-spacing:0px;fill:#000000;fill-opacity:1;stroke:none;stroke-width:1px;stroke-linecap:butt;stroke-linejoin:miter;stroke-opacity:1"
       id="flowRoot4241"
       xml:space="preserve"><flowRegion
         id="flowRegion4243"><rect
           y="321.56564"
           x="925.11676"
           height="57.244068"
           width="319.77719"
           id="rect4245" /></flowRegion><flowPara
         id="flowPara4247">Hello!</flowPara></flowRoot>    <flowRoot
       transform="translate(1093.559,380.95966)"
       style="font-style:normal;font-variant:normal;font-weight:normal;font-stretch:normal;font-size:30px;line-height:125%;font-family:serif;-inkscape-font-specification:serif;letter-spacing:0px;word-spacing:0px;fill:#000000;fill-opacity:1;stroke:none;stroke-width:1px;stroke-linecap:butt;stroke-linejoin:miter;stroke-opacity:1"
       id="flowRoot4269"
       xml:space="preserve"><flowRegion
         id="flowRegion4271"><rect
           style="font-style:normal;font-variant:normal;font-weight:normal;font-stretch:normal;font-size:30px;font-family:serif;-inkscape-font-specification:serif"
           y="380.78366"
           x="917.22101"
           height="122.38387"
           width="440.18707"
           id="rect4273" /></flowRegion><flowPara
         style="font-size:25px"
         id="flowPara4275">This is my site for notes and thoughts on physics, maths, programming and anything else that interests me.</flowPara></flowRoot>    <rect
       style="opacity:0.8;fill:#000000;fill-opacity:1;stroke:none;stroke-width:4;stroke-miterlimit:4;stroke-dasharray:none;stroke-dashoffset:0;stroke-opacity:1"
       id="rect4204"
       width="323.06708"
       height="26.319111"
       x="864.58282"
       y="215.62177" />
  </g>
  <path
     inkscape:connector-curvature="0"
     style="opacity:0.8;fill:#0b0505;fill-opacity:0.88364778"
     d="m 1822.0986,144.59278 c -0.073,0 -0.1429,0.006 -0.208,0.0133 -0.5478,0.0799 -2.2153,0.82735 -2.5313,1.13467 -0.3633,0.35335 -0.9831,0.73597 -1.0628,0.65624 -0.045,-0.0449 -0.082,-0.0272 -0.082,0.0392 0,0.1326 -0.7125,0.94958 -0.8281,0.94958 -0.1184,0 -0.5855,0.5053 -0.5855,0.63335 0,0.0656 -0.1446,0.23289 -0.3213,0.37188 -0.1767,0.13899 -0.3213,0.34823 -0.3213,0.46502 0,0.11679 -0.1614,0.30517 -0.3588,0.41848 -0.1974,0.11332 -0.6387,0.57322 -0.9805,1.02205 -0.3418,0.44883 -0.6717,0.81603 -0.7333,0.81603 -0.061,0 -0.1141,0.0723 -0.1169,0.16068 0,0.0883 -0.3403,0.44978 -0.7504,0.80319 -0.4099,0.35335 -0.8711,0.83045 -1.0244,1.06018 -0.1534,0.22973 -0.361,0.41766 -0.4617,0.41766 -0.1006,0 -0.22,0.11648 -0.2652,0.25882 -0.046,0.1424 -0.1316,0.22833 -0.1923,0.19077 -0.061,-0.0373 -0.1523,0 -0.2035,0.0821 -0.058,0.094 -0.037,0.1161 0.056,0.0588 0.3738,-0.23093 0.094,0.20197 -0.3658,0.56607 -0.2827,0.22391 -0.5141,0.47514 -0.5141,0.55823 0,0.0831 -0.1156,0.22315 -0.2569,0.31142 -0.1414,0.0883 -0.2571,0.24807 -0.2571,0.355 0,0.10693 -0.1445,0.26027 -0.3213,0.34076 -0.1766,0.0805 -0.3214,0.20956 -0.3218,0.28652 -3e-4,0.077 -0.2358,0.33962 -0.5231,0.58352 -0.7217,0.61273 -0.9505,1.19101 -0.752,1.90175 0.1399,0.50094 0.1875,0.54622 0.5751,0.54622 0.2324,0 0.5072,0.0329 0.6108,0.0723 0.1152,0.0443 0.4328,-0.16788 0.8179,-0.54615 0.9948,-0.9774 1.6816,-1.58217 1.7985,-1.5835 0.059,0 0.321,-0.20304 0.5813,-0.44978 0.2604,-0.2468 0.5249,-0.44858 0.5879,-0.44858 0.063,0 0.2505,-0.14462 0.4165,-0.32129 0.166,-0.17674 0.3786,-0.32129 0.4723,-0.32129 0.094,0 0.1703,-0.0443 0.1703,-0.0988 0,-0.0544 0.1402,-0.18446 0.3114,-0.28917 0.1712,-0.10472 0.5905,-0.45212 0.9317,-0.77208 0.3413,-0.3199 0.9082,-0.81148 1.26,-1.0923 0.3518,-0.28083 0.7762,-0.66971 0.9432,-0.86403 0.1668,-0.19438 0.3808,-0.35341 0.4754,-0.35341 0.095,0 0.2857,-0.14462 0.4247,-0.3213 0.4157,-0.52844 0.5895,-0.40722 0.783,0.54615 0.097,0.4771 0.1893,0.9831 0.2055,1.12449 0.016,0.14139 0.065,0.34374 0.1089,0.44978 0.044,0.10605 0.098,0.32129 0.1203,0.47849 0.023,0.15726 0.081,0.32597 0.1299,0.37492 0.049,0.0487 0.089,0.21429 0.089,0.36745 0,0.15315 0.044,0.32173 0.096,0.37466 0.053,0.0531 0.1059,0.39521 0.1175,0.76045 0.011,0.36523 0.087,1.21339 0.1674,1.88487 0.081,0.67148 0.179,1.5823 0.2189,2.02405 0.04,0.44175 0.1245,0.80319 0.1883,0.80319 0.064,0 0.083,0.13242 0.042,0.29417 -0.041,0.16181 -0.01,0.4654 0.077,0.6747 0.1598,0.40419 0.9595,3.37207 1.1413,4.23584 0.059,0.28272 0.2311,0.94775 0.3811,1.47784 0.1501,0.53009 0.3084,1.12404 0.3519,1.31988 0.044,0.19583 0.1294,0.38724 0.1909,0.42524 0.061,0.0379 0.1118,0.20697 0.1118,0.3753 0,0.16839 0.057,0.34184 0.1286,0.38553 0.071,0.0436 0.1285,0.16846 0.1285,0.27735 0,0.18533 0.2579,0.85334 0.5249,1.3594 0.065,0.12273 0.1176,0.32875 0.1176,0.45781 0,0.12906 0.1098,0.46243 0.244,0.74072 0.1341,0.27835 0.3125,0.76627 0.3962,1.08433 0.2002,0.76077 1.1749,3.00923 1.7268,3.98379 0.1001,0.17674 0.3085,0.61046 0.4629,0.96387 0.1544,0.35335 0.3671,0.74016 0.4729,0.85941 0.1057,0.1192 0.1583,0.27159 0.1168,0.33875 -0.042,0.0671 0.02,0.20083 0.1367,0.29713 0.1168,0.0964 0.3203,0.41861 0.452,0.71587 0.1319,0.29727 0.3104,0.61533 0.3968,0.70683 0.086,0.0914 0.258,0.36865 0.3813,0.61602 0.2724,0.54647 0.5893,1.09275 0.9323,1.60741 0.4254,0.63802 0.5733,0.88559 0.6938,1.16078 0.063,0.1443 0.2077,0.33944 0.3211,0.43353 0.1134,0.0941 0.206,0.22916 0.206,0.30023 0,0.071 0.2781,0.5122 0.6179,0.98025 0.3397,0.46812 0.717,0.99556 0.8383,1.17229 0.3266,0.47565 1.0782,1.5431 1.4477,2.05618 0.1782,0.24737 0.4219,0.58668 0.5414,0.754 0.1196,0.16725 0.3908,0.52294 0.6028,0.79054 0.8865,1.11855 1.5793,2.02747 1.9971,2.61997 0.2445,0.34677 0.7482,0.93567 1.1192,1.30881 0.3712,0.37314 0.6748,0.72928 0.6748,0.79137 0,0.062 0.8963,0.97387 1.9919,2.02627 1.0955,1.05233 1.9919,1.98358 1.9919,2.06938 0,0.0858 0.058,0.1756 0.1297,0.19938 0.071,0.024 0.9532,0.85916 1.9598,1.85661 1.0066,0.99738 2.0344,1.9519 2.2841,2.12098 0.2496,0.16915 0.6255,0.47008 0.8353,0.6687 0.2098,0.19862 0.5926,0.47116 0.8505,0.60559 0.2581,0.13444 0.8488,0.5354 1.3127,0.89096 0.4639,0.35557 0.9361,0.64638 1.0494,0.64638 0.1132,0 0.39,0.13886 0.615,0.30858 0.225,0.16978 0.6114,0.3997 0.8588,0.51106 0.2474,0.11135 0.8257,0.43195 1.2851,0.71245 0.4594,0.28051 1.2024,0.73004 1.6509,0.99897 0.4486,0.26887 0.9691,0.58801 1.1566,0.70917 0.3577,0.23111 1.4425,0.77126 2.5199,1.25481 0.3501,0.15713 1.4199,0.54589 2.3774,0.86402 0.9575,0.31813 1.8404,0.63164 1.962,0.69659 0.6633,0.35385 4.5932,1.20669 6.14,1.33246 0.5301,0.043 1.2241,0.10629 1.5422,0.14038 0.318,0.0341 1.18,0.11736 1.9156,0.18496 0.7355,0.0676 1.3634,0.14904 1.3953,0.18091 0.032,0.0316 1.0204,0.0537 2.1967,0.048 3.1416,-0.0145 5.4584,-0.36372 7.7932,-1.17469 1.8908,-0.65674 2.1343,-0.7602 2.6965,-1.14693 0.2815,-0.19362 0.614,-0.35203 0.7389,-0.35203 0.125,0 0.2271,-0.0575 0.2271,-0.12849 0,-0.0707 0.096,-0.12849 0.2129,-0.12849 0.117,0 0.4023,-0.14461 0.6339,-0.32129 0.2317,-0.17674 0.4535,-0.32129 0.493,-0.32129 0.1072,0 1.2803,-0.90848 1.3893,-1.07586 0.1983,-0.3046 0.089,-0.71252 -0.257,-0.95881 l -0.3555,-0.253 -1.0047,0.54615 c -0.5526,0.30042 -1.1164,0.64176 -1.2526,0.75843 -0.1362,0.11666 -0.3108,0.21202 -0.388,0.21202 -0.077,0 -0.8428,0.28101 -1.7013,0.62449 -1.9996,0.80004 -2.8589,1.03691 -5.1593,1.42163 -0.8298,0.13879 -3.8184,0.35094 -4.2409,0.30105 -0.5158,-0.0607 -2.2162,-0.16738 -3.4697,-0.21708 -1.6529,-0.0656 -4.1669,-0.32344 -4.4979,-0.46142 -0.1414,-0.0588 -0.4016,-0.13582 -0.5783,-0.17092 -0.1767,-0.0348 -0.6972,-0.15947 -1.1566,-0.27645 -0.4595,-0.11705 -0.951,-0.23618 -1.0924,-0.2647 -0.1413,-0.0285 -0.3726,-0.10775 -0.514,-0.1763 -0.1413,-0.0685 -0.8642,-0.27329 -1.6064,-0.45477 -0.7421,-0.18155 -1.6385,-0.46566 -1.9919,-0.63152 -0.3534,-0.16593 -0.8738,-0.37428 -1.1566,-0.46306 -0.5447,-0.17099 -1.8428,-0.7884 -2.6987,-1.28352 -1.0885,-0.62962 -1.6528,-0.90317 -1.8626,-0.90317 -0.1199,0 -0.328,-0.12185 -0.4627,-0.27089 -0.1346,-0.14898 -0.5052,-0.40976 -0.8232,-0.57948 -0.3181,-0.16972 -0.6651,-0.3627 -0.7711,-0.42891 -0.106,-0.0662 -0.6265,-0.36214 -1.1566,-0.65763 -0.5301,-0.29543 -1.2915,-0.79017 -1.6919,-1.09932 -0.4005,-0.30915 -0.7803,-0.56209 -0.8441,-0.56209 -0.1264,0 -1.0356,-0.66344 -2.0253,-1.47783 -0.7118,-0.58567 -3.5349,-3.34216 -3.5349,-3.45149 0,-0.0398 -0.8159,-0.89855 -1.8131,-1.90859 -0.9973,-1.01009 -1.9874,-2.03891 -2.2004,-2.28634 -0.213,-0.24737 -0.944,-1.0395 -1.6245,-1.76036 -1.6108,-1.70656 -1.9441,-2.08444 -1.9441,-2.20459 0,-0.0544 -0.1735,-0.26552 -0.3855,-0.46862 -0.212,-0.20317 -0.3856,-0.42013 -0.3856,-0.48235 0,-0.062 -0.1445,-0.30264 -0.3212,-0.53432 -0.1767,-0.23163 -0.3213,-0.45845 -0.3213,-0.50398 0,-0.15005 -0.4398,-0.59977 -0.5865,-0.59977 -0.079,0 -0.2099,-0.22024 -0.2906,-0.48956 -0.081,-0.26931 -0.2973,-0.63075 -0.4813,-0.80319 -0.184,-0.17244 -0.4169,-0.48715 -0.5173,-0.69918 -0.1858,-0.39243 -0.5996,-1.00111 -1.115,-1.64015 -0.3323,-0.41204 -1.5318,-2.29324 -1.8222,-2.85773 -0.1091,-0.21202 -0.3129,-0.55905 -0.4528,-0.77107 -0.14,-0.21202 -0.5735,-1.03248 -0.9634,-1.82322 -0.39,-0.7908 -0.7671,-1.47373 -0.8382,-1.51767 -0.071,-0.0436 -0.1293,-0.19318 -0.1293,-0.33167 0,-0.13854 -0.3733,-0.98309 -0.8297,-1.8769 -0.4564,-0.89375 -0.7979,-1.67696 -0.7586,-1.74051 0.039,-0.0636 -0.01,-0.2131 -0.1106,-0.33229 -0.1002,-0.11926 -0.2883,-0.56386 -0.4179,-0.98797 -0.1297,-0.42404 -0.3715,-1.07611 -0.5373,-1.44913 -0.1659,-0.37301 -0.3016,-0.76152 -0.3016,-0.8632 0,-0.10174 -0.095,-0.40362 -0.2105,-0.6711 -0.4254,-0.98227 -0.5782,-1.52545 -0.7511,-2.67099 -0.022,-0.1414 -0.1318,-0.50998 -0.2455,-0.81926 -0.1136,-0.30928 -0.2065,-0.67161 -0.2065,-0.80503 0,-0.13342 -0.054,-0.34311 -0.1191,-0.46584 -0.1329,-0.24895 -0.7866,-2.87012 -0.841,-3.37156 -0.019,-0.17674 -0.05,-0.3213 -0.068,-0.3213 -0.04,0 -0.062,-0.13886 -0.3019,-1.86343 -0.1032,-0.74211 -0.2264,-1.81197 -0.2739,-2.3774 -0.047,-0.5655 -0.1451,-1.21871 -0.2169,-1.4516 -0.072,-0.23289 -0.1807,-0.7244 -0.2418,-1.09236 -0.061,-0.36789 -0.1955,-1.01579 -0.2989,-1.4399 -0.524,-2.149 -0.7332,-3.28594 -0.7359,-4.00111 0,-0.66718 -0.051,-0.83361 -0.3163,-1.08269 -0.3044,-0.28594 -0.3132,-0.2867 -0.3132,-0.0322 0,0.21006 -0.063,0.24939 -0.3232,0.19976 -0.1777,-0.0341 -0.3526,-0.10965 -0.3887,-0.16808 -0.119,-0.19248 1.0122,-1.27821 1.6714,-1.60418 0.3558,-0.17585 0.7493,-0.39104 0.8743,-0.47805 0.1953,-0.13595 0.2917,-0.0902 0.6827,0.32364 0.2505,0.26507 0.5026,0.48196 0.5603,0.48196 0.058,0 0.3957,0.27469 0.7513,0.6104 0.8853,0.83576 1.1644,1.06024 1.3181,1.06024 0.072,0 0.3009,0.17345 0.5082,0.38554 0.2073,0.21202 0.4223,0.38793 0.4777,0.39072 0.056,0 0.3009,0.17636 0.5456,0.38553 0.2447,0.20918 0.5106,0.38029 0.5907,0.38029 0.1995,0 0.9339,0.3739 1.0255,0.52212 0.041,0.0662 0.4325,0.11635 0.8701,0.11123 0.7435,-0.009 0.8195,-0.0379 1.1598,-0.44757 0.2924,-0.35196 0.3472,-0.51472 0.2789,-0.82608 -0.047,-0.21329 -0.1647,-0.38775 -0.2619,-0.38775 -0.097,0 -0.3213,-0.14462 -0.4979,-0.32129 -0.1768,-0.17668 -0.4365,-0.32129 -0.5774,-0.32129 -0.3724,0 -2.5722,-1.28915 -3.1248,-1.83125 -0.126,-0.12369 -0.2726,-0.22518 -0.3256,-0.22651 -0.053,0 -0.3383,-0.22638 -0.6339,-0.501 -0.2957,-0.27462 -0.7583,-0.66086 -1.0282,-0.8584 -0.2697,-0.19754 -0.5483,-0.42272 -0.619,-0.50037 -0.2742,-0.30137 -0.9384,-0.54172 -1.4492,-0.54621 z m 137.8373,32.69793 c -0.028,0 -0.056,0.006 -0.083,0.008 -0.2227,0.0329 -0.405,0.13684 -0.405,0.23131 0,0.0945 -0.072,0.21796 -0.1606,0.27449 -0.088,0.0563 -0.4281,0.42089 -0.7548,0.80965 -0.3268,0.3887 -1.1654,1.31849 -1.8634,2.06616 -0.6981,0.74774 -1.5171,1.64414 -1.8199,1.99193 l -0.5506,0.63253 -0.2516,-0.32129 c -0.1384,-0.17668 -0.3492,-0.62437 -0.4684,-0.99473 -0.429,-1.33291 -1.2437,-1.91611 -1.8413,-1.31843 -0.3224,0.32243 -0.3248,0.6754 -0.01,1.34094 0.272,0.57334 0.585,1.61315 0.5399,1.79312 -0.016,0.0626 0.085,0.23618 0.2229,0.38553 0.1384,0.1493 0.4634,0.70519 0.7221,1.23528 0.8024,1.64388 0.9238,1.84497 1.1735,1.9445 0.3984,0.15897 0.5929,0.0704 0.8473,-0.3851 0.1837,-0.32887 0.2212,-0.56714 0.157,-0.99498 -0.072,-0.48152 -0.04,-0.6085 0.2193,-0.88249 0.3809,-0.40147 0.5451,-0.40179 1.3717,0 0.3664,0.17674 0.7096,0.31231 0.7629,0.30137 0.053,-0.0107 0.3259,0.0815 0.6059,0.20564 0.6434,0.28518 3.7555,1.09673 3.8487,1.00358 0.039,-0.0379 0.1456,-0.006 0.2386,0.0706 0.2106,0.17485 1.3384,0.44979 1.7519,0.42715 0.6672,-0.0367 0.8345,-0.58479 0.4554,-1.49194 -0.1597,-0.38237 -0.2529,-0.46477 -0.4636,-0.40963 -0.1719,0.0449 -0.3596,-0.0322 -0.5389,-0.22151 -0.2544,-0.26842 -0.9759,-0.52926 -1.7532,-0.6341 -0.1767,-0.024 -0.4658,-0.10447 -0.6426,-0.17908 -0.1767,-0.0747 -0.6393,-0.20627 -1.028,-0.29258 -0.8529,-0.18933 -2.5918,-0.76096 -2.7438,-0.90178 -0.1136,-0.10541 -0.021,-0.21127 0.9896,-1.1305 0.7845,-0.71384 2.0111,-2.31258 2.0111,-2.62103 0,-0.13134 0.074,-0.26723 0.165,-0.30201 0.091,-0.0348 0.153,-0.22094 0.1389,-0.41361 -0.015,-0.19274 -0.03,-0.45162 -0.036,-0.5753 -0.017,-0.37359 -0.394,-0.66712 -0.8074,-0.64859 z m 74.6423,2.35799 c -0.2452,0 -0.5061,0.062 -0.6785,0.18249 -0.463,0.32439 -0.4513,0.79093 0.036,1.42908 0.2387,0.31276 0.4339,0.61938 0.4339,0.68135 0,0.062 0.086,0.27842 0.192,0.48089 0.1056,0.20247 0.1928,0.46578 0.1928,0.58535 0,0.11952 0.051,0.24832 0.112,0.28614 0.1042,0.0644 0.4503,1.44925 0.4684,1.87425 0.01,0.1061 0.055,0.26855 0.1121,0.361 0.057,0.0925 0.064,0.57037 0.014,1.0622 -0.072,0.71878 -0.049,0.95685 0.1193,1.21327 0.2451,0.37415 0.2191,0.36947 0.7708,0.13892 0.4867,-0.20336 0.5297,-0.36132 0.6668,-2.45436 0.065,-0.9853 0.028,-1.33739 -0.2482,-2.37746 -0.5158,-1.94387 -0.6779,-2.27547 -1.6059,-3.28499 -0.1101,-0.11977 -0.34,-0.17902 -0.5854,-0.17813 z m -90.6756,1.73248 c -0.67,0.006 -0.8057,0.0537 -1.3421,0.49335 -1.0717,0.87819 -2.5511,3.52465 -2.7034,4.83643 -0.086,0.74034 0.1218,2.05535 0.3247,2.05535 0.065,0 0.1179,0.0798 0.1179,0.17731 0,0.20115 0.8978,0.9707 1.4779,1.26663 0.333,0.16998 1.1666,0.38143 2.0561,0.52168 1.051,0.16568 4.2008,-0.1479 4.5011,-0.4482 0.047,-0.0474 0.3983,-0.23864 0.7803,-0.4255 0.3819,-0.18685 0.6943,-0.41519 0.6943,-0.50739 0,-0.0922 0.079,-0.23339 0.1763,-0.31382 0.097,-0.0805 0.2111,-0.36025 0.2534,-0.62172 0.061,-0.37757 0.02,-0.53584 -0.1985,-0.76905 -0.3418,-0.36378 -0.5738,-0.37409 -0.683,-0.0303 -0.1029,0.32439 -1.1281,0.79339 -2.1877,1.00074 -1.091,0.21354 -2.9512,0.22593 -3.778,0.0253 -1.3741,-0.33368 -1.9124,-0.87585 -1.7483,-1.76081 0.1134,-0.61159 0.6747,-1.66475 1.0405,-1.95253 0.151,-0.11875 0.3756,-0.42904 0.4992,-0.68956 0.2684,-0.56557 0.7978,-1.12183 1.0857,-1.14068 0.114,-0.008 0.3623,-0.006 0.5516,0.009 0.684,0.0443 0.7757,-0.83969 0.1482,-1.42865 -0.2621,-0.24597 -0.4578,-0.30067 -1.0662,-0.29719 z m -12.081,2.93664 c -0.2089,-0.006 -0.3273,0.0694 -0.5195,0.27392 -0.3421,0.3641 -0.3176,0.55437 0.2568,1.98991 0.1556,0.38876 0.3737,1.04848 0.4848,1.4662 0.2854,1.07415 1.4618,3.31566 1.843,3.51175 0.4496,0.23125 0.8515,0.19792 1.144,-0.0945 0.3022,-0.3022 0.3267,-0.66415 0.077,-1.13676 -0.3569,-0.67496 -0.9406,-2.02196 -1.0943,-2.52581 -0.1893,-0.62007 -0.276,-0.84486 -0.6341,-1.64193 -0.1517,-0.3376 -0.2759,-0.73054 -0.2759,-0.87306 0,-0.3827 -0.5138,-0.84917 -1.0365,-0.94118 -0.096,-0.0171 -0.1754,-0.0272 -0.245,-0.0285 z m 87.43,2.00678 c -0.3992,0 -0.575,0.12015 -1.3765,0.94098 -0.5054,0.51751 -1.0752,1.25482 -1.2664,1.63845 -0.5817,1.16724 -0.7935,3.29094 -0.4376,4.38786 0.098,0.30289 0.2123,0.69519 0.2532,0.87187 0.097,0.41721 1.049,1.44413 1.6242,1.75157 0.2475,0.13222 0.4793,0.27918 0.5153,0.32648 0.1301,0.17105 1.4306,0.6207 1.7952,0.6207 0.2052,0 0.4089,0.0575 0.4525,0.12849 0.222,0.35911 2.8225,0 3.4679,-0.48254 0.7004,-0.52073 0.9031,-1.44685 0.5015,-2.2931 -0.1734,-0.36543 -0.2762,-0.43714 -0.6269,-0.43714 -0.466,0 -0.6546,0.17275 -0.6778,0.6207 -0.025,0.4795 -0.2496,0.63481 -1.0533,0.72808 -0.7462,0.0866 -1.8673,-0.062 -2.6394,-0.35057 -0.4837,-0.18066 -1.343,-0.76766 -1.3466,-0.91986 -0.01,-0.1646 0.4107,-0.4551 0.6565,-0.45984 0.1151,0 0.6067,-0.20538 1.0923,-0.45143 0.4856,-0.24604 0.9425,-0.44851 1.0152,-0.44978 0.1971,-0.006 1.065,-0.88211 1.1566,-1.17083 0.044,-0.13792 0,-0.42746 -0.091,-0.64353 l -0.1703,-0.393 -0.8353,0.0869 c -0.4594,0.0481 -0.8931,0.13039 -0.9638,0.18332 -0.1969,0.14752 -1.3624,0.49955 -1.9817,0.59857 -0.5407,0.0865 -0.5511,0.0814 -0.4516,-0.21942 0.056,-0.1694 0.1058,-0.4477 0.1108,-0.61849 0.01,-0.17079 0.082,-0.33463 0.1699,-0.36404 0.088,-0.0297 0.1606,-0.13393 0.1606,-0.23232 0,-0.0984 0.3524,-0.51289 0.7828,-0.92106 1.1626,-1.10267 1.3852,-1.65654 0.8829,-2.19573 -0.1749,-0.18761 -0.4144,-0.28133 -0.7197,-0.28133 z m -100.0598,0.6534 c -0.1941,0.006 -0.3831,0.0932 -0.5699,0.26868 -0.3862,0.36283 -0.3774,0.79453 0.037,1.80033 0.1838,0.44643 0.423,1.04297 0.5313,1.32569 0.1084,0.28272 0.3338,0.81913 0.501,1.19215 0.1673,0.37301 0.304,0.70879 0.304,0.74616 0,0.0373 0.173,0.41645 0.3844,0.84233 0.4155,0.83766 0.6851,1.11576 1.479,1.52609 0.3425,0.17693 0.6428,0.24111 0.8996,0.19217 0.2121,-0.0405 0.8738,-0.15897 1.4705,-0.2635 0.5966,-0.10446 1.2051,-0.26887 1.3521,-0.36524 0.1471,-0.0963 0.52,-0.21771 0.8287,-0.26988 0.6626,-0.11192 1.7837,-0.6472 2.0937,-0.99954 0.1205,-0.1369 0.2587,-0.51383 0.3073,-0.83772 0.082,-0.54438 0.06,-0.61134 -0.2832,-0.88616 -0.4313,-0.34513 -0.7252,-0.37636 -0.9957,-0.10579 -0.106,0.10598 -0.3127,0.19274 -0.4591,0.19274 -0.1463,0 -0.2662,0.0493 -0.2662,0.10883 0,0.11059 -2.0827,0.91448 -3.02,1.16565 -1.3676,0.36656 -1.9551,0.0379 -2.1961,-1.22724 -0.028,-0.15075 -0.1387,-0.43986 -0.2444,-0.64258 -0.1057,-0.20273 -0.1932,-0.43796 -0.1932,-0.52288 0,-0.0849 -0.2075,-0.62501 -0.4604,-1.20018 -0.2529,-0.57511 -0.4254,-1.08016 -0.3833,-1.12227 0.042,-0.0417 -0.1094,-0.26824 -0.3366,-0.50259 -0.2727,-0.28132 -0.5307,-0.41962 -0.7803,-0.41525 z m -8.916,1.8124 0,4.5e-4 c -0.1199,0.006 -0.2744,0.0196 -0.4828,0.0436 -0.8035,0.0909 -1.9841,0.55924 -2.266,0.89893 -0.087,0.10433 -0.2307,0.18976 -0.3202,0.18976 -0.09,0 -0.3283,0.21146 -0.5306,0.46989 -0.2022,0.25844 -0.4898,0.61982 -0.6391,0.8032 -0.8402,1.03109 -1.4722,3.08992 -1.2068,3.9308 0.5871,1.85964 0.656,2.00508 1.1733,2.47484 0.2917,0.26489 0.653,0.52067 0.8032,0.56847 0.3837,0.12205 3.1702,0.0971 3.5085,-0.0316 0.1539,-0.0588 0.5876,-0.13969 0.9638,-0.18072 0.856,-0.0933 2.6178,-0.51017 3.667,-0.86764 0.6581,-0.22422 0.8259,-0.34152 0.9552,-0.66768 0.086,-0.21759 0.2255,-0.56904 0.3093,-0.78106 0.1554,-0.39344 0.056,-0.78948 -0.2506,-0.99398 -0.2564,-0.17117 -0.9368,-0.10231 -1.2496,0.12654 -0.5501,0.40241 -0.8189,0.51364 -1.7903,0.7397 -0.5263,0.12249 -1.402,0.33185 -1.9457,0.46528 -0.5438,0.13342 -1.498,0.27709 -2.1205,0.31945 -1.0488,0.0714 -1.1647,0.0544 -1.5815,-0.22953 -0.3888,-0.26495 -0.4656,-0.40571 -0.5663,-1.0371 -0.099,-0.62045 -0.07,-0.88603 0.1928,-1.76258 0.1701,-0.56765 0.3768,-1.03273 0.4593,-1.03273 0.082,0 0.1692,-0.0506 0.1927,-0.11161 0.089,-0.23049 2.028,-1.43117 2.3142,-1.43294 0.5064,0 0.8981,-0.29739 1.0695,-0.80275 0.1474,-0.4348 0.1377,-0.51624 -0.096,-0.81363 -0.1533,-0.19489 -0.2338,-0.27343 -0.4537,-0.28436 -0.033,0 -0.069,0 -0.109,0 z m 93.9597,1.28453 c -0.041,0 -0.087,-6e-5 -0.1368,0 -0.3822,0.0146 -0.605,0.17263 -1.4748,1.04595 -0.5635,0.56582 -1.0247,1.09262 -1.0247,1.17109 0,0.0784 -0.1083,0.23542 -0.241,0.34899 -0.3427,0.29347 -0.8021,1.815 -0.8558,2.83483 -0.065,1.24021 0.2123,1.94552 1.1982,3.0461 0.6203,0.69247 0.9304,0.93498 1.3343,1.04374 0.2894,0.078 0.6196,0.19432 0.7339,0.25862 0.1144,0.0643 0.4102,0.17048 0.6577,0.23593 0.7093,0.18768 2.1437,0.16276 2.6433,-0.0462 0.296,-0.12369 0.5108,-0.33274 0.6271,-0.6104 0.097,-0.23225 0.2229,-0.46805 0.2793,-0.52408 0.1511,-0.15024 0.053,-1.15262 -0.1356,-1.37609 -0.5059,-0.60148 -0.1499,-0.99429 0.9468,-1.04431 0.3655,-0.0164 0.6897,-0.071 0.7204,-0.12071 0.031,-0.05 0.3254,-0.13071 0.6549,-0.18009 0.4823,-0.0723 0.734,-0.2179 1.2937,-0.74717 0.6391,-0.60445 0.6897,-0.69368 0.6285,-1.11367 -0.037,-0.25111 -0.069,-0.49999 -0.071,-0.55298 -0.01,-0.1598 -0.8378,-0.10858 -1.3885,0.0857 -0.2839,0.10016 -1.1443,0.24491 -1.9122,0.32167 -0.7679,0.0768 -1.8296,0.22998 -2.3594,0.34039 -0.5297,0.11041 -1.1636,0.24092 -1.4085,0.29012 -0.3597,0.0722 -0.4683,0.16946 -0.5643,0.50422 -0.1003,0.34987 -0.067,0.49335 0.2155,0.91986 0.1839,0.27798 0.5681,0.7437 0.8535,1.03489 0.2855,0.29125 0.5189,0.63942 0.5189,0.77347 0,0.20735 -0.072,0.23409 -0.4819,0.1799 -2.5121,-0.33204 -3.6313,-1.60797 -3.0696,-3.49929 0.2059,-0.69355 0.3106,-0.8608 0.8986,-1.4337 0.5798,-0.56499 0.8094,-0.73882 1.0949,-0.8295 0.3457,-0.10971 0.7869,-0.67439 0.7869,-1.007 0,-0.14329 -0.1459,-0.5096 -0.3243,-0.81401 -0.2532,-0.43207 -0.3486,-0.53021 -0.6377,-0.53793 z m 33.1939,2.82744 c -0.078,0 -0.1694,0.0139 -0.2789,0.031 -0.6433,0.1 -0.8534,0.34792 -0.8534,1.00738 0,0.50619 0.1195,0.70582 0.5745,0.95938 0.3796,0.21165 1.0009,-0.0847 1.1594,-0.55279 0.07,-0.2069 0.2291,-0.45155 0.3534,-0.54393 0.2767,-0.20564 0.2932,-0.41045 0.033,-0.41045 -0.106,0 -0.3147,-0.12211 -0.4639,-0.27128 -0.1675,-0.1675 -0.2891,-0.22795 -0.5242,-0.21904 z m -45.5827,0.13349 c -0.1581,0.006 -0.3123,0.0525 -0.4583,0.14841 -0.3757,0.24623 -0.4494,0.88818 -0.1411,1.22888 0.1022,0.113 0.3744,0.63816 0.6048,1.16685 0.3826,0.878 0.4209,1.08611 0.443,2.40251 0.027,1.62725 -0.054,1.81563 -0.6719,1.56004 -0.203,-0.084 -0.398,-0.16226 -0.4333,-0.17409 -0.2147,-0.072 -0.9091,-0.3696 -1.3494,-0.57833 -0.2827,-0.13399 -0.6586,-0.30466 -0.8353,-0.37909 -0.3045,-0.12817 -1.2931,-0.76386 -2.8582,-1.8377 -0.3863,-0.26507 -0.7687,-0.4819 -0.8497,-0.4819 -0.081,0 -0.1474,-0.0481 -0.1474,-0.10725 0,-0.0588 -0.3212,-0.32831 -0.7139,-0.59876 -0.879,-0.60546 -1.5019,-0.64511 -1.9545,-0.12431 -0.1601,0.18413 -0.261,0.38332 -0.2243,0.44257 0.037,0.0594 0.075,0.35872 0.085,0.66541 0.01,0.30674 0.066,0.68691 0.124,0.84499 0.058,0.15808 0.1427,0.56284 0.188,0.89956 0.046,0.33672 0.1909,1.03811 0.3237,1.55859 0.1327,0.52054 0.2081,1.00017 0.1674,1.06587 -0.041,0.0657 -0.01,0.20273 0.08,0.3046 0.099,0.1197 0.1473,0.63379 0.1358,1.45418 -0.018,1.24552 0.1122,1.90467 0.4152,2.11018 0.1439,0.0976 1.0465,0.0247 1.25,-0.10124 0.052,-0.0316 0.165,-0.43524 0.2519,-0.89634 0.1706,-0.90393 0.1058,-1.94526 -0.216,-3.46995 -0.1044,-0.49481 -0.204,-1.07668 -0.2213,-1.29294 -0.017,-0.21633 -0.074,-0.46212 -0.1259,-0.54622 -0.1106,-0.17895 0.043,-0.48974 0.1616,-0.32711 0.1426,0.1954 2.6415,1.81899 2.9283,1.90258 0.1526,0.0443 0.3476,0.16536 0.4333,0.26868 0.086,0.10326 0.3174,0.18774 0.5149,0.18774 0.1974,0 0.3784,0.0449 0.4019,0.10042 0.1285,0.30106 2.3998,1.18013 3.547,1.37287 l 0.5481,0.0921 0.2535,-0.5729 c 0.1393,-0.31509 0.3498,-0.65282 0.4676,-0.75058 0.3942,-0.32686 0.5646,-0.98575 0.5713,-2.20756 0.01,-1.77225 -0.3215,-2.80296 -1.4265,-4.43863 -0.3797,-0.56215 -0.8015,-0.8682 -1.2016,-0.89096 -0.023,0 -0.046,0 -0.068,0 z m -18.2222,3.6981 c -0.2287,1.2e-4 -0.6788,0.2344 -0.9267,0.48234 -0.2425,0.24244 -0.6492,2.80847 -0.7251,4.57459 -0.033,0.76683 -0.089,1.44091 -0.1241,1.49794 -0.075,0.1216 0,1.508 0.1267,2.24815 0.129,0.77177 0.3341,1.26 0.6331,1.50718 0.3445,0.28468 0.4359,0.28139 0.9528,-0.0335 0.3564,-0.21721 0.4228,-0.32926 0.3992,-0.67427 -0.016,-0.22751 -0.02,-0.68754 -0.01,-1.02223 l 0.019,-0.60863 0.7675,-0.38737 c 0.422,-0.21303 0.843,-0.38731 0.9353,-0.38731 0.092,0 0.2669,-0.11565 0.3879,-0.25704 0.3327,-0.38857 0.8792,-0.32622 1.4074,0.16061 0.2492,0.22973 0.6885,0.63455 0.9761,0.89963 0.2876,0.26501 0.573,0.4819 0.6345,0.4819 0.061,0 0.2275,0.10757 0.3687,0.23915 0.1412,0.13153 0.5136,0.38048 0.8275,0.55317 0.764,0.42038 1.1896,0.28114 1.4823,-0.48513 l 0.2076,-0.54374 -0.4311,-0.39193 c -0.2372,-0.21569 -0.4837,-0.39375 -0.548,-0.39578 -0.3647,-0.012 -2.8988,-2.31966 -3.6025,-3.28088 -0.207,-0.28272 -0.5181,-0.65858 -0.6914,-0.83532 -0.1732,-0.17667 -0.5306,-0.61039 -0.7943,-0.96381 -0.2637,-0.35341 -0.6028,-0.75267 -0.7536,-0.88729 -0.1508,-0.13469 -0.2743,-0.28696 -0.2743,-0.33837 0,-0.17364 -1.0561,-1.1513 -1.2442,-1.1518 l 0,0 z m 0.7221,3.77063 c 0.1008,0.006 0.2575,0.15176 0.53,0.44693 0.5045,0.54628 0.5934,0.7277 0.41,0.83614 -0.053,0.0316 -0.3361,0.0967 -0.6293,0.14519 -0.5698,0.0942 -0.7539,-0.0253 -0.6368,-0.41305 0.037,-0.12305 0.096,-0.3899 0.131,-0.59294 0.049,-0.2843 0.094,-0.42569 0.1951,-0.42227 z m -10.6087,0.50637 c -0.5763,0.0266 -0.8014,0.46407 -0.8381,1.49934 -0.015,0.42765 -0.1092,0.73496 -0.2915,0.95325 -0.2488,0.29776 -0.3651,0.32508 -1.5407,0.36239 l -1.2717,0.0405 -0.2076,-0.38554 c -0.1141,-0.21208 -0.2095,-0.44339 -0.2118,-0.51409 -0.01,-0.30706 -0.368,-0.81951 -0.6191,-0.88691 -1.1109,-0.29815 -1.553,0.48443 -0.9831,1.74032 0.1398,0.30813 0.2555,0.80193 0.257,1.09716 0,0.41001 0.075,0.59345 0.3083,0.77689 0.2992,0.23549 0.8511,1.17514 0.8511,1.44939 0,0.0764 0.1196,0.26678 0.2657,0.42284 0.146,0.15612 0.3573,0.47647 0.4694,0.71201 0.2607,0.54729 0.763,0.76469 1.0211,0.44201 0.2116,-0.26451 0.1444,-1.74968 -0.092,-2.03449 -0.078,-0.094 -0.123,-0.30434 -0.1,-0.46729 0.037,-0.25812 0.1411,-0.3089 0.813,-0.39578 1.3868,-0.17921 2.14,-0.37005 2.3176,-0.58688 0.096,-0.11723 0.2868,-0.35575 0.4239,-0.53015 0.2129,-0.27096 0.2789,-0.29239 0.4544,-0.14676 0.2871,0.23826 2.0088,2.66644 2.0088,2.83306 0,0.0752 0.047,0.13671 0.106,0.13671 0.058,0 0.2724,0.36144 0.4759,0.80319 0.2035,0.44176 0.4306,0.87339 0.5046,0.95901 0.1483,0.1718 0.4947,0.20317 0.9365,0.0847 0.5841,-0.1565 0.6413,-1.48833 0.096,-2.23247 -0.078,-0.10598 -0.211,-0.33729 -0.2961,-0.51402 -0.085,-0.17668 -0.2552,-0.47129 -0.3781,-0.6546 -0.7402,-1.10381 -1.0114,-1.47992 -1.1496,-1.59431 -0.085,-0.0707 -0.2359,-0.28715 -0.3345,-0.48096 -0.099,-0.19375 -0.3631,-0.56967 -0.5873,-0.83532 -0.2244,-0.26558 -0.6266,-0.80098 -0.8938,-1.18968 -0.4306,-0.62645 -0.5536,-0.7201 -1.0831,-0.82368 -0.1125,-0.0221 -0.216,-0.0354 -0.3111,-0.0398 -0.042,0 -0.082,0 -0.1201,0 l 0,-1.9e-4 z m -13.466,2.0343 c -0.04,0 -0.079,0 -0.1185,0 -0.6871,0.0228 -1.2492,0.345 -2.2696,1.14137 -0.7632,0.59559 -1.5441,1.40587 -1.5441,1.60215 0,0.0866 -0.083,0.32546 -0.1844,0.53072 -0.2159,0.43669 -0.4595,2.0919 -0.3205,2.17783 0.053,0.0322 0.068,0.16157 0.035,0.28696 -0.1288,0.49253 0.8642,1.7885 1.6992,2.21799 0.3131,0.16105 0.5693,0.34165 0.5693,0.40122 0,0.0594 0.1041,0.10819 0.2313,0.10819 0.1272,0 0.2862,0.0525 0.3534,0.11666 0.187,0.17858 1.065,0.42102 1.9212,0.53054 0.9105,0.11641 4.4947,0.0259 5.3426,-0.13494 0.9556,-0.18123 1.6918,-0.51795 2.2151,-1.01301 0.4368,-0.41336 0.4806,-0.51068 0.4069,-0.90639 -0.1384,-0.74445 -0.8242,-1.02641 -1.2776,-0.52535 -0.4522,0.49967 -1.8036,0.69817 -4.6453,0.68255 -1.8402,-0.0101 -3.506,-0.30814 -3.9762,-0.71145 -1.2191,-1.04582 -1.3314,-1.36736 -0.8112,-2.32403 0.071,-0.13058 0.101,-0.26564 0.067,-0.29998 -0.1221,-0.1221 1.1619,-1.45456 1.4018,-1.45456 0.083,0 0.3023,-0.11958 0.4881,-0.26565 0.297,-0.23365 0.389,-0.24712 0.7636,-0.11167 0.3663,0.13241 0.5108,0.11667 1.0291,-0.11262 0.4958,-0.21929 0.6028,-0.32629 0.6028,-0.60161 0,-0.66604 -0.3151,-1.03267 -1.0287,-1.19739 -0.3663,-0.0845 -0.671,-0.13437 -0.9506,-0.13855 z m -23.8701,7.07067 c -0.2511,0.006 -0.3957,0.0777 -0.6411,0.25243 -0.234,0.16662 -0.5604,0.28544 -0.7253,0.26381 -0.6252,-0.0819 -1.5079,0.91651 -1.8196,2.0582 -0.1717,0.62854 -0.083,1.90656 0.1325,1.90656 0.064,0 0.1164,0.0898 0.1164,0.19963 0,0.67255 1.9227,2.33946 2.7235,2.36115 0.1902,0.006 0.3746,0.0563 0.41,0.11344 0.035,0.0575 0.341,0.1185 0.6791,0.13595 0.338,0.0177 0.643,0.0607 0.6779,0.0954 0.035,0.0348 0.2967,0.0228 0.5817,-0.0266 0.285,-0.0493 0.6048,-0.0876 0.7108,-0.0844 0.3077,0.009 1.4326,-0.33577 1.7249,-0.52895 0.326,-0.21544 1.0274,-1.60235 1.2134,-2.39928 0.158,-0.67705 0.09,-1.03179 -0.3251,-1.69517 -0.165,-0.26362 -0.3,-0.53047 -0.3,-0.59295 0,-0.0626 -0.2458,-0.2774 -0.5461,-0.47766 -0.3004,-0.20027 -0.6908,-0.49348 -0.8675,-0.65163 -0.3628,-0.32464 -1.29,-0.66945 -2.0182,-0.75039 -0.2682,-0.0297 -0.8151,-0.0938 -1.2152,-0.14215 -0.1599,-0.0196 -0.2885,-0.0322 -0.3974,-0.0367 -0.04,0 -0.079,0 -0.1147,0 z m -4.9918,0.0303 c -0.2271,0 -0.5138,0.006 -0.8052,0.0209 -0.9534,0.0544 -1.3376,0.0957 -2.409,0.25825 -0.1767,0.0265 -0.6115,0.0766 -0.9664,0.11059 -1.1124,0.10661 -4.332,0.71726 -5.1378,0.9745 -0.4241,0.13538 -1.0892,0.30561 -1.4779,0.37832 -0.3888,0.0727 -1.3429,0.29259 -2.1204,0.48855 l -1.4136,0.35619 -0.041,0.49658 c -0.084,1.02477 0.6536,1.31115 2.4911,0.96703 0.4194,-0.0785 0.907,-0.14215 1.0837,-0.14215 0.1767,0 0.408,-0.0716 0.5141,-0.15985 0.1059,-0.0882 0.5397,-0.23232 0.9638,-0.32028 0.4241,-0.088 1.0023,-0.21696 1.2851,-0.2867 0.2827,-0.0698 0.6875,-0.13646 0.8995,-0.14803 0.3336,-0.0183 0.395,0.031 0.4559,0.36448 0.065,0.35531 0.2059,0.71663 0.7138,1.82884 0.1043,0.2284 0.1876,0.44536 0.1851,0.48191 0,0.0367 0.1089,0.3646 0.2474,0.72908 0.1385,0.36455 0.2247,0.70658 0.1916,0.76026 -0.033,0.0537 -0.01,0.11686 0.053,0.14057 0.1414,0.0538 0.9164,1.58262 0.9164,1.80773 0,0.0911 0.2394,0.41235 0.5319,0.71366 0.562,0.57903 0.8121,0.61349 1.305,0.18034 0.3353,-0.29467 0.1873,-1.28618 -0.3584,-2.40156 -0.2421,-0.49474 -0.4803,-1.06915 -0.5293,-1.2765 -0.049,-0.20734 -0.1668,-0.52534 -0.2614,-0.70676 -0.095,-0.18142 -0.1729,-0.44845 -0.1729,-0.59339 0,-0.14487 -0.051,-0.31838 -0.1123,-0.38553 -0.178,-0.19508 -0.5311,-1.35542 -0.5311,-1.74551 0,-0.31231 0.06,-0.36688 0.4819,-0.43758 0.265,-0.0443 0.8289,-0.16997 1.253,-0.27886 0.4241,-0.10895 1.0722,-0.24319 1.4401,-0.29859 0.7682,-0.11565 1.5711,-0.35708 1.8048,-0.54254 0.2342,-0.18591 0.2085,-1.20682 -0.033,-1.29939 -0.053,-0.0202 -0.2207,-0.0322 -0.4477,-0.0348 z m 5.0767,1.36983 c 0.252,0 0.5446,0.11016 0.9348,0.31788 0.3319,0.17668 0.7091,0.32129 0.8385,0.32129 0.2879,0 1.2525,0.55304 1.563,0.89615 0.2853,0.31516 0.4705,1.26721 0.3414,1.75455 -0.056,0.21 -0.2432,0.43979 -0.4348,0.53293 -0.5657,0.27494 -3.0521,0.29195 -3.0521,0.0209 0,-0.0662 -0.1331,-0.12027 -0.2962,-0.12027 -0.4954,0 -1.1558,-0.58732 -1.3322,-1.18494 -0.1057,-0.35784 -0.1164,-0.58896 -0.032,-0.69089 0.07,-0.0843 0.1182,-0.20285 0.1074,-0.26331 -0.057,-0.31705 0.053,-0.56316 0.4705,-1.05056 0.3108,-0.36309 0.5676,-0.53622 0.8915,-0.5337 z m 42.9463,15.89116 c -0.2729,0.006 -0.5636,0.0959 -0.8289,0.26805 -0.4376,0.2841 -0.4063,1.11993 0.056,1.48909 0.1897,0.15157 0.4354,0.31484 0.5462,0.3629 0.3413,0.14809 0.847,0.1142 1.1046,-0.0741 0.1884,-0.13779 0.2373,-0.30966 0.2102,-0.73895 -0.051,-0.79865 -0.1066,-0.92821 -0.503,-1.16243 -0.1709,-0.10098 -0.3726,-0.14866 -0.5849,-0.14455 z m -8.7714,1.95316 c -0.4663,-0.012 -0.8051,0.26887 -0.8944,0.79757 -0.083,0.49145 -0.055,0.56379 0.4,1.0297 0.2691,0.27563 0.5464,0.50119 0.616,0.50119 0.07,0 0.3172,-0.13014 0.5502,-0.28917 0.394,-0.26887 0.4227,-0.33678 0.4086,-0.96925 -0.013,-0.609 -0.053,-0.6998 -0.3772,-0.86744 -0.2532,-0.13095 -0.4913,-0.1971 -0.7032,-0.2026 z m 9.971,6.50701 c -0.382,0.019 -0.6829,0.27013 -0.9119,0.75722 -0.1903,0.40508 -0.4908,0.689 -1.2864,1.21523 -0.8982,0.59402 -1.1539,0.69943 -1.896,0.78195 -0.9482,0.10535 -2.038,0.0913 -2.3356,-0.0297 -0.1061,-0.043 -0.489,-0.16276 -0.851,-0.26602 -0.3621,-0.10327 -0.8362,-0.27988 -1.0538,-0.39237 -0.2176,-0.11256 -0.4861,-0.20462 -0.5966,-0.20462 -0.213,0 -0.9583,-0.74553 -0.9646,-0.96502 -0.01,-0.2413 -0.5126,-0.45471 -0.8727,-0.36827 -0.625,0.14993 -1.0068,0.73162 -0.8126,1.23812 0.3205,0.8362 2.5963,2.37455 3.8713,2.61699 0.2446,0.0462 0.5603,0.14417 0.7016,0.21708 0.1414,0.0729 0.604,0.17263 1.0281,0.22145 1.1661,0.13424 1.355,0.12906 2.1205,-0.0575 1.0176,-0.2485 1.7008,-0.54956 2.6139,-1.1518 1.4864,-0.98037 1.9793,-1.45501 2.0564,-1.98048 0.039,-0.26242 0.1088,-0.66516 0.1562,-0.89514 0.081,-0.39116 0.055,-0.43094 -0.3949,-0.61906 -0.2079,-0.0869 -0.3983,-0.12615 -0.5719,-0.11748 z"
     id="path3340" />
</svg>
