<?xml version="1.0" encoding="UTF-8" standalone="no"?>
<svg
   xmlns:dc="http://purl.org/dc/elements/1.1/"
   xmlns:cc="http://creativecommons.org/ns#"
   xmlns:rdf="http://www.w3.org/1999/02/22-rdf-syntax-ns#"
   xmlns:svg="http://www.w3.org/2000/svg"
   xmlns="http://www.w3.org/2000/svg"
   xmlns:xlink="http://www.w3.org/1999/xlink"
   xmlns:sodipodi="http://sodipodi.sourceforge.net/DTD/sodipodi-0.dtd"
   xmlns:inkscape="http://www.inkscape.org/namespaces/inkscape"
   viewBox="0 0 1344.8743 586.15463"
   width="942.0318"
   height="530.33038"
   id="svg2"
   version="1.1"
   inkscape:version="0.91 r13725"
   sodipodi:docname="website_background_7.svg">
  <metadata
     id="metadata101">
    <rdf:RDF>
      <cc:Work
         rdf:about="">
        <dc:format>image/svg+xml</dc:format>
        <dc:type
           rdf:resource="http://purl.org/dc/dcmitype/StillImage" />
        <dc:title />
      </cc:Work>
    </rdf:RDF>
  </metadata>
  <sodipodi:namedview
     pagecolor="#2c2335"
     bordercolor="#666666"
     borderopacity="1"
     objecttolerance="10"
     gridtolerance="10"
     guidetolerance="10"
     inkscape:pageopacity="0"
     inkscape:pageshadow="2"
     inkscape:window-width="3062"
     inkscape:window-height="1752"
     id="namedview99"
     showgrid="false"
     inkscape:zoom="1.9873684"
     inkscape:cx="327.70696"
     inkscape:cy="198.43566"
     inkscape:window-x="138"
     inkscape:window-y="48"
     inkscape:window-maximized="1"
     inkscape:current-layer="svg2"
     fit-margin-top="0"
     fit-margin-left="0"
     fit-margin-right="0"
     fit-margin-bottom="0" />
  <defs
     id="defs4">
    <g
       id="grouped-triangle">
      <polygon
         id="background-triangle"
         points="150,130 75,0 0,130 "
         style="fill:#695e53;stroke:#000000;stroke-width:1" />
      <path
         class="symbol"
         d="m -17.0147,-17.0147 34.0294,0 0,34.0294 -34.0294,0 z"
         transform="matrix(-0.9998477,-0.01745241,0.01745241,-0.9998477,72.752354,61.390802)"
         id="path8"
         inkscape:connector-curvature="0"
         style="opacity:0.8;fill:#87984d;stroke:#000000;stroke-width:1" />
      <path
         class="symbol"
         d="m 0,-23.345635 20.217913,35.018452 -40.435826,0 z"
         transform="matrix(0.8660254,-0.5,0.5,0.8660254,66.463131,104.55763)"
         id="path10"
         inkscape:connector-curvature="0"
         style="opacity:0.8;fill:#1f6b63;stroke:#000000;stroke-width:1" />
      <path
         class="symbol"
         d="m 0,-26.139121 5.8685983,18.0616884 18.9911827,0 L 9.4955915,3.0853047 15.36419,21.146993 0,9.9842557 -15.36419,21.146993 -9.4955915,3.0853047 -24.859781,-8.0774326 l 18.9911827,0 z"
         transform="matrix(0.20791169,0.9781476,-0.9781476,0.20791169,56.096959,103.45495)"
         id="path12"
         inkscape:connector-curvature="0"
         style="opacity:0.8;fill:#ed6409;stroke:#000000;stroke-width:1" />
      <path
         class="symbol"
         d="M 0,-30.398176 17.550395,0 0,30.398176 -17.550395,0 Z"
         transform="matrix(-0.99254615,0.12186934,-0.12186934,-0.99254615,104.34997,85.108722)"
         id="path14"
         inkscape:connector-curvature="0"
         style="opacity:0.8;fill:#1f6b63;stroke:#000000;stroke-width:1" />
      <path
         class="symbol"
         d="M 0,-25.873493 14.938068,0 0,25.873493 -14.938068,0 Z"
         transform="matrix(-0.30901699,0.95105652,-0.95105652,-0.30901699,67.572972,72.249168)"
         id="path16"
         inkscape:connector-curvature="0"
         style="opacity:0.8;fill:#73343a;stroke:#000000;stroke-width:1" />
      <path
         class="symbol"
         d="m -14.097872,-14.097872 28.195744,0 0,28.195744 -28.195744,0 z"
         transform="matrix(0.69465837,0.7193398,-0.7193398,0.69465837,87.576724,85.585762)"
         id="path18"
         inkscape:connector-curvature="0"
         style="opacity:0.8;fill:#1f6b63;stroke:#000000;stroke-width:1" />
      <path
         class="symbol"
         d="m 0,-31.816465 27.553867,47.724698 -55.107734,0 z"
         transform="matrix(0.99862953,-0.05233596,0.05233596,0.99862953,72.667599,51.596594)"
         id="path20"
         inkscape:connector-curvature="0"
         style="opacity:0.8;fill:#b82a39;stroke:#000000;stroke-width:1" />
      <path
         class="symbol"
         d="m 0,-25.864194 22.399049,38.796291 -44.798098,0 z"
         transform="matrix(0.94551858,0.32556815,-0.32556815,0.94551858,92.704725,104.4529)"
         id="path22"
         inkscape:connector-curvature="0"
         style="opacity:0.8;fill:#1f6b63;stroke:#000000;stroke-width:1" />
      <path
         class="symbol"
         d="m 0,-29.073025 25.177978,43.609538 -50.355956,0 z"
         transform="matrix(-0.7193398,-0.69465837,0.69465837,-0.7193398,85.307851,95.979074)"
         id="path24"
         inkscape:connector-curvature="0"
         style="opacity:0.8;fill:#73343a;stroke:#000000;stroke-width:1" />
    </g>
    <g
       id="unrotated-hexagon">
      <g
         id="half-hexagon-1">
        <use
           xlink:href="#grouped-triangle"
           transform="translate(-75,0)"
           id="use28"
           x="0"
           y="0"
           width="100%"
           height="100%" />
        <use
           xlink:href="#grouped-triangle"
           transform="matrix(-0.5,0.8660254,-0.8660254,-0.5,37.5,-64.951905)"
           id="use30"
           x="0"
           y="0"
           width="100%"
           height="100%" />
        <use
           xlink:href="#grouped-triangle"
           transform="matrix(-0.5,-0.8660254,0.8660254,-0.5,37.5,64.951905)"
           id="use32"
           x="0"
           y="0"
           width="100%"
           height="100%" />
      </g>
      <g
         id="half-hexagon-2">
        <use
           xlink:href="#half-hexagon-1"
           transform="matrix(-0.5,-0.8660254,-0.8660254,0.5,0,0)"
           id="use35"
           x="0"
           y="0"
           width="100%"
           height="100%" />
      </g>
    </g>
    <g
       id="hexagon">
      <use
         xlink:href="#unrotated-hexagon"
         transform="matrix(0.8660254,0.5,-0.5,0.8660254,0,0)"
         id="use38"
         x="0"
         y="0"
         width="100%"
         height="100%" />
    </g>
  </defs>
  <g
     id="kaleidoscope"
     transform="translate(-64.435614,-240.90984)">
    <g
       id="centre">
      <use
         xlink:href="#hexagon"
         transform="translate(391,375)"
         id="use42"
         x="0"
         y="0"
         width="100%"
         height="100%" />
    </g>
    <g
       id="ring1"
       style="opacity:0.75">
      <use
         xlink:href="#hexagon"
         transform="translate(261,150)"
         id="use45"
         x="0"
         y="0"
         width="100%"
         height="100%" />
      <use
         xlink:href="#hexagon"
         transform="translate(521,150)"
         id="use47"
         x="0"
         y="0"
         width="100%"
         height="100%" />
      <use
         xlink:href="#hexagon"
         transform="translate(131,375)"
         id="use49"
         x="0"
         y="0"
         width="100%"
         height="100%" />
      <use
         xlink:href="#hexagon"
         transform="translate(651,375)"
         id="use51"
         x="0"
         y="0"
         width="100%"
         height="100%" />
      <use
         xlink:href="#hexagon"
         transform="translate(261,600)"
         id="use53"
         x="0"
         y="0"
         width="100%"
         height="100%" />
      <use
         xlink:href="#hexagon"
         transform="translate(521,600)"
         id="use55"
         x="0"
         y="0"
         width="100%"
         height="100%" />
    </g>
    <g
       id="ring2"
       style="opacity:0.5">
      <use
         xlink:href="#hexagon"
         transform="translate(131,-75)"
         id="use58"
         x="0"
         y="0"
         width="100%"
         height="100%" />
      <use
         xlink:href="#hexagon"
         transform="translate(391,-75)"
         id="use60"
         x="0"
         y="0"
         width="100%"
         height="100%" />
      <use
         xlink:href="#hexagon"
         transform="translate(651,-75)"
         id="use62"
         x="0"
         y="0"
         width="100%"
         height="100%" />
      <use
         xlink:href="#hexagon"
         transform="translate(781,150)"
         id="use64"
         x="0"
         y="0"
         width="100%"
         height="100%" />
      <use
         xlink:href="#hexagon"
         transform="translate(1,150)"
         id="use66"
         x="0"
         y="0"
         width="100%"
         height="100%" />
      <use
         xlink:href="#hexagon"
         transform="translate(911,375)"
         id="use68"
         x="0"
         y="0"
         width="100%"
         height="100%" />
      <use
         xlink:href="#hexagon"
         transform="translate(1,600)"
         id="use70"
         x="0"
         y="0"
         width="100%"
         height="100%" />
      <use
         xlink:href="#hexagon"
         transform="translate(781,600)"
         id="use72"
         x="0"
         y="0"
         width="100%"
         height="100%" />
      <use
         xlink:href="#hexagon"
         transform="translate(131,825)"
         id="use74"
         x="0"
         y="0"
         width="100%"
         height="100%" />
      <use
         xlink:href="#hexagon"
         transform="translate(391,825)"
         id="use76"
         x="0"
         y="0"
         width="100%"
         height="100%" />
      <use
         xlink:href="#hexagon"
         transform="translate(651,825)"
         id="use78"
         x="0"
         y="0"
         width="100%"
         height="100%" />
    </g>
    <g
       id="ring3"
       style="opacity:0.25">
      <use
         xlink:href="#hexagon"
         transform="translate(911,-75)"
         id="use81"
         x="0"
         y="0"
         width="100%"
         height="100%" />
      <use
         xlink:href="#hexagon"
         transform="translate(1041,150)"
         id="use83"
         x="0"
         y="0"
         width="100%"
         height="100%" />
      <use
         xlink:href="#hexagon"
         transform="translate(1171,375)"
         id="use85"
         x="0"
         y="0"
         width="100%"
         height="100%" />
      <use
         xlink:href="#hexagon"
         transform="translate(1041,600)"
         id="use87"
         x="0"
         y="0"
         width="100%"
         height="100%" />
      <use
         xlink:href="#hexagon"
         transform="translate(911,825)"
         id="use89"
         x="0"
         y="0"
         width="100%"
         height="100%" />
      <use
         xlink:href="#hexagon"
         transform="translate(1,1050)"
         id="use91"
         x="0"
         y="0"
         width="100%"
         height="100%" />
      <use
         xlink:href="#hexagon"
         transform="translate(261,1050)"
         id="use93"
         x="0"
         y="0"
         width="100%"
         height="100%" />
      <use
         xlink:href="#hexagon"
         transform="translate(521,1050)"
         id="use95"
         x="0"
         y="0"
         width="100%"
         height="100%" />
      <use
         xlink:href="#hexagon"
         transform="translate(781,1050)"
         id="use97"
         x="0"
         y="0"
         width="100%"
         height="100%" />
    </g>
  </g>
</svg>
